<svg xmlns="http://www.w3.org/2000/svg" id="argentina-map" version="1.1" viewBox="0 0 254.5 536.166">
  <g id="Layer_2">
    <circle cx="223.982" cy="192.295" r="24.591" fill="none" stroke="#CCC" />
    <polyline fill="none" stroke="#CCC" points="199.392,192.295 191.487,192.295 174.48,212.416" />
  </g>
  <g id="Layer_1_1_">
    <path id="1" name="Buenos Aires" fill="#bb007d" stroke="#CCC"
      d="M171.434 203.672c-1.195-.255-2.006-1.071-3.287-1.188-.453-.04-.994-.021-1.381-.301-.498-.366-.822-1.123-1.594-.626-.4.23-2.563-2.028-3.148-2.275-.539-.226-1.387-.139-1.75-.685-.393-.604-1.485-.802-2.043-1.309-1-.901-2.563-1.188-3.465-2.131-.434-.422-.498-1.31-1.127-1.517-.842-.278-1.447-.36-1.963-1.131-1.332-1.998-2.338 1.146-2.896 2.15a581.66 581.66 0 0 1-1.354 2.442c-.346.621-.299.539-1.015.371-.957-.229-2.476-1.065-3.265-.338-2.696 2.484-5.396 4.975-8.101 7.462-1.214 1.118-2.428 2.237-3.646 3.354-.621.573-.678.564-1.547.573l-11.209.127c-.98.01-7.265.159-7.265.229-.01.816-.021 1.636-.028 2.451-.16 13.437-.317 26.868-.479 40.307-.188 15.596-.372 31.19-.562 46.79-.006.632-.361 8.183.062 8.22.716.065 1.474.063 2.171.229.883.214 1.042.062 1.854-.286.748-.32 1.146-.814 1.66-.131.491.652.907 1.145 1.145 1.917.165.556.254 1.595.686 2.001.33.307.659.613.988.928.365.34.464.104.895-.15.604-.355 1.326-.165 1.901-.471.292-.154.566-.565.8-.801.18-.178.904-.045 1.148-.045 1.064 0 .624-1.141.848-1.807.288-.871.674-1.747.852-2.646.129-.64.313-.771-.241-1.104-.556-.331-.702-.479-1.032-1.026-.285-.474-.535-.563-1.035-.813-.218-.104-.219-.854-.275-1.092-.207-.865-.7-1.636.05-2.386.362-.364 1.59-1.618 1.42-2.128-.308-.909-.69-1.809-.155-2.693.334-.55.44-.67 1.018-.953.418-.209.897.295 1.276.521.133-.782.217-1.265.021-2.034-.132-.521.294-1.498.438-2.014.168-.588.391-1.188.391-1.801v-1.457c0-.502-.286-.396-.762-.521-.935-.229-.684-.564-1.146-1.296-.463-.729-1.02-.81-1.163-1.694-.116-.697-.106-1.363-.106-2.069 0-.58-.425-1.11-.425-1.75 0-.212-.052-2.115.05-2.115h1.281c.498 0 .436.168.624.646.205.51.942 1.053 1.524 1.053.378 0 .688-.123.889.211.191.324.333.813.721.895.864.172 1.223.045 2.068-.236 1.021-.35 1.033.317 1.747.619.351.146 1.083 0 1.45 0h3.289c1.435 0 2.813.01 4.231-.147.623-.065 1.032-.356 1.617-.562.896-.293 1.312-.336 2.243-.246 1.038.095 1.104.162 1.847-.569.396-.396 1.271.041 1.813.041 1.433 0 2.851-.212 4.271-.212 1.064 0 1.216.165 1.688-.79-.012.026 1.979-.354 2.168-.423 1.285-.432 2.859-.271 4.191-.271 1.315 0 2.87-.3 3.809-1.229.361-.354 1.334-.047 1.795-.28.771-.388 1.48-.7 2.293-.974.648-.213 1.486-.065 2.164-.065.604 0 .92-.976 1.482-1.065.838-.142 1.262-.229 1.961-.692.489-.328 1.203-.995 1.789-.995 1.557 0 2.709-.073 3.938-1.056.563-.448 1.051-.942 1.559-1.45.369-.373.516-1.434.674-1.942.422-1.366.642-2.757 1.438-3.966.358-.55-.017-1.159.588-1.559a11.595 11.595 0 0 0 1.793-1.479c.604-.604.875-.909 1.188-1.695.24-.604.762-1.188 1.332-1.475.891-.441 1.035-.728 1.535-1.602.317-.561.666-1.14 1.063-1.642 1.476-1.839 1.519-3.952 2.01-6.181.228-1.02.105-2.128-.122-3.133-.228-.961-.238-1.966-.437-2.943-1.388.345-2.779-.396-4.188-.627-.084-.016-.883-1.32-1.031-1.498-.563-.652-.957-1.259-1.387-2.01-.277-.483-.607-1.258-.607-1.809 0-.654.418-1.421.515-2.103.127-.892.365-1.188.92-1.926.361-.481.563-1.358.947-1.744.254-.256.506-.591.803-.802.181-.129.757-.238.849-.426.244-.514-.361-1.494-.629-1.901-.824-1.242-1.293-2.707-2.25-3.827-1.009-1.177-2.154-2.078-3.439-2.938-.494-.33-.873-.783-1.424-1.021-.826-.354-1.328-.638-2.008-1.22-.604-.511-1.271-1.005-2.043-1.216-1.035-.281-2.029-.251-2.521-1.234-.396-.807-.887-1.576-1.348-2.349-.438-.729-1.547-1.121-1.801-1.889-.14-.406-.466-.896-.232-1.282.361-.6.539-.735.373-1.4-.137-.551.357-.479.563-.935.15-.332 0-1.061 0-1.429 0-.193 1.021-.565 1.217-.663.154-.075-.201-1.188-.242-1.363-.143-.648-.09-.582-.743-.45-.672.146-1.342.335-2.017.188" />
    <path id="8" name="La Rioja" fill="#bb007d" stroke="#CCC"
      d="M31.738 120.231c.035.265.021 1.331.212 1.479.541.436.739-.391.974.462l.504 1.839c.041.148 1.473.168 1.66.185.499.045.68-.094.68.403v2.331c0 .279-.14.85.125 1.014.523.328 1.047.655 1.569.979-.634.144-1.271.284-1.905.427.543 1.084 1.68 2.563.575 3.668-.597.595-.893.999-1.271 1.748-.074.151-.438.642-.317.796.187.247.418.806.75.771.579-.059 1.563-.373 2.104-.135.645.285 1.387.824 2.1.751.68-.068 1.361-.18 2.048-.18.601 0 1.978-.277 2.5 0 .763.4.474 1.061 1.44 1.061.186 0 .968-.12 1.104 0 .168.146.139 1.104.168 1.331.082.654.793.989 1.283 1.4.225.186.563.291.818.421.229.113.314.893.378 1.127.163.569 1 .787 1.597.813.311.017.693-.139 1.001-.195.173-.035.563.69.66.83.517.724.457 1.06.457 1.974 0 .719.95 1.199 1.468 1.65.25.218.455 1.472.49 1.469.852-.11 1.438-.396 2.095.173.556.478 1.108.953 1.675 1.42.771.637.672.927.771 1.943.071.811.116.963.63 1.589.417.509 1.208 1.161 1.398 1.801.182.598.6 1.393.6 2.016v2.607c0 .651-.227 1.348-.344 1.988-.133.728.24 1.326.496 2.013.162.426 1.3.614 1.717.771.826.313 1.08.264 1.158 1.12.064.706.055 1.41.315 2.069.116.292.136.606.445.697.272.081 1.108.158 1.296.373.268.309-.346 1.599.129 1.729.555.15 1.844.237 2.242.642.257.256.688.906 1.021 1.021.336.111 1.076-.15 1.437-.202.272-.038.024-.874.373-.849l1.745.117c.271.019 1.082.223 1.328.089.254-.146.39-1.063.688-1.063.221 0 1.131-.13 1.246.043.271.41.548.818.818 1.229.604-.604 1.011-1.349 1.91-1.272-.328-.056-1.271.001-1.271-.384V162.62c0-.469-.664-.973-.949-1.318-.181-.217-.002-.43.094-.687.527-1.438 1.058-2.875 1.584-4.313l4-10.886c.912-2.479-.242-4.56-1.115-6.922-.102-.271-1.17.238-1.418-.34-.278-.656-.508-1.202-.637-1.897a185.85 185.85 0 0 0-.871-4.425c-.158-.749-.313-1.497-.474-2.246-.055-.256-1.909-.711-2.207-.815-.438-.16.138-1.121-.206-1.388-.75-.572-1.5-1.147-2.25-1.727-1.126-.865-2.771-1.152-4.103-1.618-.718-.253-.563-.271-.449-1.05.052-.361.513-2.039.153-2.173-.401-.15-1.395-.307-1.606-.689-.411-.731-.821-1.469-1.231-2.203-.541-.968-1.063-2.984-2.273-2.999-.658-.006-3.563-.437-3.938.072-.313.43-.738 1.368-1.19 1.631-.446.259-1.603.107-2.11.146-.705.048-.959.15-1.509-.263-.507-.382-.978-.979-1.622-.898-.621.079-1.168.063-1.693.396l-1.969 1.253-1.125-3.055c-.427-1.156-.445-.975-1.703-.975-.771 0-2.322.313-3.014-.063l-1.813-.99c-.5-.271-.686-.149-1.258-.008l-.189-3.27c-.031-.563-1.338-1.252-1.885-1.15l-3.688.692c-.938.178-1.646-.343-2.511-.728-.179.705-.226 1.954-.638 2.539-.223.318-.994.571-1.334.771-.276.16-.424.477-.604.74-.531.762-1.007 2.102-1.988 2.102-.607 0-.529-.013-.652.559-.131.619-.264 1.234-.396 1.854-.2.938-1.194 1.049-2.042 1.434-.553.25-.369.34-.22.944.048.192.646.059.813.05 1.166-.055 2.332-.11 3.498-.168.521-.027 1.306 1.301 1.648 1.692" />
    <path id="18" name="Misiones" fill="#bb007d" stroke="#CCC"
      d="M241.719 92.582c-1.125-.958-.375-2.281.057-3.379.494-1.146.841-1.165.287-2.225-.401-.771-.805-1.537-1.205-2.309-.17-.322-.01-.76-.18-1.125-.357-.771-.982-1.2-.982-2.146-.088-1.188-.19-1.861-.95-2.864-.293-.388-.636-.705-.992-1.021-.688-.605-.854.164-1.438.007s-.258-1.285-.762-1.365c-.727-.114-.4 1.088-.775 1.104-.646.026-.948-.487-1.52.2-.434.522-.771 1.438-1.627.896-.816-.534-2.23-1.675-2.791-.091-.287.813.309 1.905.197 2.779-.094.721-.104 1.495-.301 2.191-.313 1.118-.973 1.566-.76 2.822.18 1.061.069 1.504-.547 2.386-.509.727-.703 1.703-.918 2.551-.244.955-.23 1.997-.826 2.825-.414.577-1.078.57-1.517 1.063-.479.536-.698.927-1.36 1.262-.439.189-.972.395-1.355.688-.615.354-.523.981-.939 1.407-.654.673-1.848-.289-2.688.537-.64.627-1.271 1.213-2.021 1.711-.846.563-1.053 1.918-1.66 2.729-1.271 1.688-3.463-.497-4.668 1.053-.418.537-.104 1.501-.053 2.147.059.728-.047 1.364-.148 2.087-.02.136.713.347.843.396.291.117.305.287.434.58.345.769.662 1.459 1.125 2.158.453.68.429 1.275.509 2.104.08.78.645.99 1.254 1.438.271.194.588.57.93.521.93-.139 1.16-.63 1.902-1.056.938-.537 1.229-1.623 2.176-2.271.838-.676 2.021-.588 2.924-1.214.436-.298.969-.423 1.385-.729.65-.483.813-1.416 1.557-1.811.578-.304 1.383-.082 1.74-.771.336-.394.396-1.194 1.17-.923.49.039.922.526 1.422.147.469-.354.271-.66.873-.748.422-.063.625-.594.963-.798.535-.325.863-.022 1.388-.045.834.175 1.161-.967 1.905-1.136.531-.2 1.037-.146 1.521-.517.399-.313 1.121-.788 1.404-1.195.112-.167.202-.638.495-.604.42.046.563.484 1.029.071.283-.254.563-.537.783-.85.299-.401.525-.002.828-.033.791.561 1.156-.998 1.098-1.513-.094-.788-.576-1.026-.018-1.771.355-.47.637-.994.842-1.545.47-1.29 1.11-2.733-.04-3.805" />
    <path id="22" name="Santa Cruz" fill="#bb007d" stroke="#CCC"
      d="M23.919 388.95c-1.323.024-2.646.047-3.97.073-.328.002-1.032-.131-1.278.117-.405.397-1.138.397-1.503-.07.52.531.467.775.494 1.527.507-.191 1.27.316 1.357.807.052.25.06 1.738-.049 1.8-.367.208-.386.923-.856 1.313-.468.377-1.722-.106-1.677.693-.02-.352.722.745.515.607.313.212.651.205 1.017.222.768.042.469 1.419.354 1.811-.396 1.293.917 2.479 1.069 3.768.08.661.474 1.088.217 1.688-.114.273-1.115 1.7-1.365 1.66-1.084-.165-.846-.012-.975.869-.082.563-.564 1.26-.022 1.715.329.279.56.345.528.771-.021.311-.375.479-.354.698.063.704.864.257.832 1.138-.037.994.094 1.352-.918.849-.585-.294-.271 1.406-.363 1.619-.164.388-.426.404-.646.802-.353.619-.335.646-1.026.75-.664.104-.671.121-1.029.69-.361.588.063.47.276 1.037.229.595-.079 1.555-.183 2.179-.049.271-.266-.061-.152.398.063.271.061.344-.006.607-.047.188-.393.617-.508.938-.102-.07-.244-.075-.342-.152-.268.479.121.479.093.758-.06.481-.308.426-.321.975-.013.378-.229.52-.189.909.015.132.648.173.855.304.459.284.521.215.612.785.022.171.19.195.338.271.218.121.114.354.198.572.135.331.281.598.313.958.045.49-.189.713-.031 1.144.114.313.555.563.614.862.044.212-.05.689-.163.797-.031.035-.671.258-.671.258-.671.152.063.403.056.618-.012.326-.295.313-.41.563-.09.188.627.487.229.744-.357.229-.621.516-1.048.44-.446-.063-.42-.479-1-.307.208.714.44 1.41.688 2.111.203.573-.092 1.271.141 1.861.154.407.346.575.068.921-.271.354-.653.407-.896.689-.306.359-.728 1.542-1.065 1.752-.637.391-1.248-.574-1.737.185-.229.354-.134.596-.259.979-.023.081-.313.068-.354.146-.066.143.164.28.027.422-.33.348-.333.354-.297.83.025.285-.114.788-.104.872.033.237-.002.919.146 1.091.248.283.617-.126.775.434-1.174.182-2.174-.184-3.33-.452-.338-.079-.923-.415-1.025-.02-.122.472-.42 1.279.423 1.17-.144.549.539.854.298 1.46-.111.283-.209 1.672-.244 1.683-1.14.178-.402.283-.479 1.097-.021.227.363.394.525.52.281.216.174.479.123.819-.023.178-.17.15-.111.53.08.533.264.328.461.729.338.666-.109.854-.059 1.479.036.417.135.468-.271.563-.312.074-.171.555-.046.743.26.397.554.54.164.854-.277.229-.514.243-.403.711.637-.119 1.177.406.948 1.024-.307-.157-.812.143-.582.456.232.319.539.885-.176.778.229 1.004.381 1.512 1.326 1.885.241.095-.002.898.098 1.133.063.142.421.078.463.271.035.171.058.731.184.848.141.121.545-.061.684.063.104.081.123.585.15.71.068.317.086.255.422.271.291.015.062.275.223.432.115.104.437-.039.438.159.009.296.019.599.026.896.007.263 1.063-.109.963.547-.086.574-.948.152-.587.902.208.427-.233.72.084 1.174.555.801 1.3-.99 1.644-1.083.272-.075.545-.146.819-.226.188-.053.003-.381.089-.521.104-.161.334-.103.375-.322.053-.271.034-.305.244-.463.382-.281.727-.578 1.084-.889.12-.104.35.079.376-.128.047-.331-.022-.545.376-.431-.033.103-.064.21-.1.313.463-.01.519.349.953.246.267-.06.104.552.688.229-.081-.214-.162-.436-.243-.649.604.035.279-.677.998-.579.232.031.424.479.656.503.164.017.495-.229.646-.301-.058.385.064.688.492.693-.156.354-.549 1.061-.199 1.431.436.454.562.994.979 1.419.298.308.104 1.394.107 1.819.016.729-.625.479-1.019.318-.012.566-.005 1.096-.138 1.646.02-.09.76 1.374.76 1.374.146.095.646-.212.682.021.035.239.258.875.051 1.022-.303.216-1.106 1.396-.188 1.003.08.516-.106.985.062 1.298.344.629-.361.629-.271 1.298-.121-.102-.323-.107-.446-.21-.048.513-.324 1.631.451 1.563.355-.028-.056-.512.512-.485.254.015.299.938.347 1.17.159.801.675.59 1.321.818.66.238 1.349 1.122 1.873 1.578.147.129.461.297.479.504.014.155-.229.924-.229.91.078.23.623.409.787.604.203.242.284.883.551 1.037.451.262 1.979-.082 2.48-.104l12.207-.52c1.541-.063 3.083-.128 4.623-.188 1.021-.044 1.553.299 2.521.758 1.229.58 1.812.908 3.129.854.854-.042 2.89-.538 3.617-.052.95.631 2.041 1.687 3.123 2.05.7.232 1.402.468 2.104.701.802.271 1.037.115.795.962.501-.229.559-1.634.229-2.02-.262-.462-.619-1.126-1.05-1.4-.434-.299-.733-1.152-1.087-1.59a11.945 11.945 0 0 1-1.236-1.654c-.041-.234-.429-.704-.547-.995a13.241 13.241 0 0 0-.457-.957c-.353-.548-.679-1.37-1.082-1.854-.316-.457-.416-1.011-.727-1.428-.07-.14-.293-.391-.455-.397-.348-.042-.128.276-.271.369-.019.092-1.567 1.307-1.629 1.057-.152-.33.746-.512.252-1.088-.09.008-.596-.266-.67-.338-.254-.229-.639.049-.895-.121-.499-.002-.714-.057-1.169.271-.248.104-1.038.199-1.188.479.246-.49.504-.554.938-.591.375-.011.675-.671 1.138-.71.434-.034.858.377 1.246.316.223.065.762.41.997.378.396.063.499-.643.827-.719.424-.257.768.781.88.058.073-.475-.269-.965-.438-1.366-.345-.562-.396-1.151-.563-1.785-.329-.935-.607-1.787-1.004-2.682-.354-.813-.17-1.807-.479-2.578-.021-.107-.291-1.134-.512-.604-.063.013-.96.561-.972.604-.289.213-1.144 1.855-1.562 1.562-.119-.171 1.168-1.599 1.334-1.813.141-.286.527-.714.895-.714.453-.036.373-.688.641-.87.059-.037.174.315.208.213.481-.902-.618-2.257-.222-3.237.384-.953.457-1.959.723-2.972.115-.443.334-.896.455-1.358.126-.277.074-.568.249-.82.142-.199.503-.546.537-.785.106-.584 1.884-1.668 2.397-1.984.396-.246.896-.162 1.285-.548.18-.221 1.299-.518 1.336-.646.178-.582.197-1.047-.674-1.047-.613.09-.809-1.214-1.005-1.574-.517-.723-.521-.646-1.302-.43-.604.188-1.357-.097-1.999.166-.205.076-1.117.459-1.188.646-.058.062-.961 1.341-.943 1.355-.215-.27.795-1.584 1.033-1.654.317 0 .771-.515 1.193-.544.406-.027.818-.125 1.229-.185.42-.126 2.25-.152 1.354-.958-.254-.229-.354-.771-.479-1.1-.084-.223-.674-.943-.828-.963.32.131.835.296.934.688.176.229.301.744.57.898.417.646.797 1.023 1.031 1.773.076.23.262 1.033.673.988.298 0 .473.729.608.81.186.479 2.144-.428 2.514-.573 4.625-1.833 5.604-6.902 5.039-11.356-.152.229-.7 1.324-.944 1.243-.78-.271-.537-.685-.537-1.479 0-.453.718-.9 1.022-1.212.332-.334.229-1.108.459-1.521.242-.438.938-.67 1.098-1.156.188-.582.279-1.156.38-1.761.043-.257 1.271-.112 1.494-.27.335-.234.604-.979.771-1.383.233-.54.446-1.074.75-1.584.41-.676.613-.735 1.354-1.053.531-.229 1.063-.378 1.62-.538.606-.17.737-.732 1.05-1.272.506-.891 1.506-1.684 2.509-1.894.646-.131 1.124-.368 1.716-.663.41-.201-.107-1.188-.223-1.58.969-.163 1.219-.015 1.462-.978.07-.271.612.097.681-.183.142-.561.084-.718.606-.925.791-.313.985-.771 1.46-1.483.161-.236.639-.401.881-.551.334-.203.43-.569.604-.921.166-.331-.303-1.484-.604-1.672-.68-.405-1.188-.736-.604-1.612.933-1.4 1.236-2.568 1.236-4.257 0-.465.563-1.363.396-1.696-.408-.813-.396-1.308-.396-2.226 0-.188-.629-.521-.779-.641-.238-.178-.068-.727-.275-.892-.373-.296-1.677.069-2.176-.015-1.383-.231-2.797-.335-4.188-.097-.711.119-1.309-.063-1.91-.534-.574-.447-.732-1.17-1.463-1.409-.765-.25-1.261-.548-1.935-.995-.258-.171-.63-.337-.845-.563-.278-.29-.363-.764-.641-1.063-.479-.521-1.146-.589-1.476-1.248-.099-.196-.293-.869-.532-.869-.475 0-.583-.026-.979-.275-.654-.406-1.176-.607-1.516-1.298-.402-.811-.625-1.367-.771-2.264-.229-1.361-1.094-2.374-1.094-3.814 0-.6.479-2.076-.349-2.063-.892.018-1.784.033-2.677.055-3.582.073-7.163.146-10.746.223-8.942.206-17.936.629-26.904.472" />
    <path id="20" name="La Pampa" fill="#bb007d" stroke="#CCC"
      d="m88.709 218.646.293 15.267-38.613.615c-.486.007-.973.013-1.459.021-.029 0-.01 3.453-.01 3.823.281-.141.563-.285.846-.428.205 6.438.407 12.875.612 19.312l.021.729c.002.088 1.719.509 1.91.535 1.438.185 2.783-.354 4.142.287.887.418.835.682 1.106 1.646.146.517-1.316.286-1.496.813-.25.758-1.89 3.139-1.256 3.832l1.668 1.816c.262.289.955-.479 1.467-.069 1.162.928 2.322 1.985 3.914 2.063.541.025 1.461-.242 1.97-.442 1.146-.463 1.049-.354 1.836.603.825.999 2.438 1.589 3.577 2.158.607.307 1.162.857 1.707 1.269.533.402 1.549.529 2.183.736.715.242.179 1.015.017 1.656-.121.483 1.026 1.396 1.351 1.767.325.372 1.569.254 2.056.307.684.065 1.561-.373 2.217-.551.574-.158 1.252.333 1.787.551.977.406 1.021.438 1.988.011.443-.197.785-.488 1.238-.31.611.244 1.226.485 1.839.729.173-.459.349-.92.521-1.386.18-.477.444-.271.94-.22 1.11.123 1.963-.053 3.067-.27 1.699-.339 3.804-.071 5.438.391-.282.566-.565 1.13-.853 1.695.879.09 1.793.043 2.576.461.696.369 2.102 1.513 2.896 1.429.444-.052 1.315-.333 1.739-.188.438.146.973.853 1.314 1.146.729.645 1.396 1.348 2.08 2.029l.895-1.432c.313-.494.896.149 1.33.396.906.521 1.773 1.107 2.654 1.668.199-12.413.4-24.828.602-37.241.146-9.05.291-18.099.438-27.146-7.516-.018-15.03-.049-22.548-.078" />
    <path id="7" name="Mendoza" fill="#bb007d" stroke="#CCC"
      d="M22.831 241.342c.185 1.28.521 2.269 1.004 3.474.136.339 1.144.289 1.487.339.339.048 1.016-.479 1.322-.63.271.979.229 2.175 1.213 2.554.65.251 1.304.501 1.953.753.431.166.522.822.903.951 1.021.34 2.279.521 2.72 1.688.086.229.131 1.494 0 1.688-.191.285-1.152.498-1.484.637.551.479 1.113 1.229 1.852 1.319 1.018.128 1.737.11 2.752-.034 1.146-.159 3.938-.347 4.646.834.174.293.326.854.693.854.438 0 .922-.063 1.354.012a15.46 15.46 0 0 0 2.647.203c1.559 0 3.111 1.435 4.502 2.017l-.633-20.048c-.285.145-.563.287-.847.428 0-.405-.063-3.816.044-3.821 1.076-.023 2.152-.05 3.229-.07 4.107-.093 8.217-.188 12.32-.278 1.021-.021 2.032-.045 3.047-.066.381-.013 1.291-2.741 1.404-3.312.309-1.541.635-3.06 1.016-4.585.153-.608.078-1.4.746-1.5 1.172-.168 1.088-.095 1.256-1.251.074-.521.381-1.386.265-1.905-.19-.82-.38-1.646-.569-2.474-.291-1.259-1.175-2.081-1.029-3.407.08-.729.096-1.235-.022-1.958-.118-.721-.708-1.255-1.146-1.831-.314-.424-1.229.224-1.271.137-.34-.736-.685-1.479-1.021-2.219-.482-1.05-.789-2.203-1.016-3.338-.109-.544-.377-1.165-.188-1.696.146-.393.894-1.729.73-2.103-.184-.428-.344-1.259-.738-1.521-.334-.225-1.711-.851-1.797-1.222-.188-.826-.38-1.646-.57-2.474-.117-.521.652-.97 1.004-1.32-1.354-.766-2.271-1.375-2.404-3.01-.121-1.45-.541-2.607-.893-4.009-.109-.455-.196-1.829-.56-2.129-.319-.271-.639-.533-.96-.804-.389-.323-.188-.403.044-.861.401-.808.171-.894-.28-1.685-.32-.563-.967-1.313-1.104-1.955l-.508-2.378c-.177-.801-.663-.831-1.406-1.204-.8-.396-.954-.395-1.84-.22-.394.078-1.724-.018-1.8-.41-.211-1.045-.328-.846-1.387-.846-.394 0-.791-1.449-1.119-1.698-.338-.258-1.442-.46-1.883-.396-.998.143-1.418.144-2.371-.176-.758-.256-1.225-.109-1.686.467-.189.234-.297.526-.609.526-.269 0-1.08-.146-1.297 0-.4.274-.25 1.378-.766 1.521-.43.115-1.854.771-2.232.583-.688-.346-1.375-.688-2.063-1.027-.405-.201.075-1.806-.239-2.134-.284-.292-1.827.127-1.936-.298-.068-.3-.026-.77-.375-.77-.295 0-1.047-.146-1.297 0-.361.214-.508 1.516-.961 1.48l-2.836-.188c-.68-.043-1.564 2.499-1.994 3.187-.396.636-.758 1.16-.963 1.877-.313 1.098-.479.884-1.625.969-.744.058-1.254-.12-1.617.534-.28.508-.983 1.212-.647 1.748.707 1.133 2.021 2.435 1.878 3.803-.104.955-.199 1.909-.301 2.863-.073.697-.77.938-.9 1.549-.104.486.559 1.667.719 2.146.246.734 1.113.069 1.742-.137.584-.19 1.104.703 1.5 1.104.623.623.437.649.109 1.48l-.988 2.544c-.229.592-.033 1.305.016 1.921.062.771.086 1.113-.192 1.819-.25.627-.612 1.168-.496 1.834.116.671 1.14 4.212.646 4.563-.461.325-1.301.655-1.402 1.236-.098.521-.072 1.734-.436 2.126-.824.895-1.646 1.784-2.472 2.68-.313.336.515 3.004.604 3.524.117.67-1.196 1.651-1.332 2.45-.112.689-.229 1.377-.344 2.066-.033.193-1.338.522-1.557.605-.331.122-.146 1.031-.146 1.354 0 .41 1.063.542 1.414.656.98.321.779 2.159.916 3.106.063.429.551.985.769 1.36.204.354-.079.984-.154 1.372-.128.646-.259 1.291-.387 1.936-.024.128-1.31.211-1.494.24.337.405 1.082.959 1.045 1.507l-.19 2.839c-.037.575 1.088 1.063 1.271 1.598.212.631-.002 1.664-.002 2.337" />
    <path id="9" name="Salta" fill="#bb007d" stroke="#CCC"
      d="M124.217 25.568c-.613-1.073-.869-1.499-1.912-2.125-.175-.104-1.029-.461-1.063-.669-.11-.613-.226-1.229-.331-1.836-.156-.87-1.262-.993-1.408-1.796-.123-.668.028-2.021-.771-2.013l-7.928.121c-.82.017-1.641.026-2.459.038-.344.006-1.301 1.985-1.521 2.333-.245-.684-.434-2.333-1.225-2.333-.391 0-1.039-.188-1.192.211-.196.495-.354.872-.673 1.294-1.27 1.698-1.699 3.722-2.428 5.708.561.071 1.117.146 1.678.212-.355.718-.717 1.433-1.071 2.146-.246.49-.922.844-1.069 1.315-.48 1.531-.959 3.063-1.441 4.597-.469-1.24-1.271-2.498-1.271-3.815 0-1.461-.358-2.746-1.959-2.976-.646-.091-1.282.003-1.67-.53-.419-.578-1.233-1.328-1.461-2.005-.188-.559.103-1.211-.114-1.792-.359-.956-.396-1.317-1.263-1.815-1.336-.77-3.06-.071-4.545.15-.976.146-1.25 2.308-1.554 3.139-.547 1.521-1.092 3.033-1.641 4.553-.125.346.592 1.146.635 1.542.082.734-.109 1.734.623 2.026.947.375 1.281 1.232 2.233 1.639.545.229.754.15.713.729-.049.712-.104 1.425-.153 2.138-.063.901-.289 1.855-.24 2.753.027.484.221 1.014.318 1.483.063.278.104 1.295.319 1.486.396.349 2.313.512 2.832.308.599-.24 1.194-.479 1.797-.719.205-.082 1 .505 1.187.604 1.088.588 1.931.947 3.127 1.247.705.181 2.054-.734 2.722-1.017v6.287c0 .706.104 1.503 0 2.203-.144.936-.58 1.904-.854 2.813-.188.616-.266 2.063-.994 2.063-.17 0-1.282-.105-1.346.025a711.4 711.4 0 0 1-.674 1.482c-.115.254-.214.838-.529.806-.603-.058-1.205-.118-1.808-.177-.61-.063-1.422-1.279-1.854-1.712-.469.599-.936 1.201-1.401 1.801-.274.354-1.742.106-2.183.106-.781 0-.541-.863-.619-1.563-.062-.56-1.229-.521-1.733-.348-.265.09-.582.634-.853.634-.272-.002-.567-.56-.846-.634-.65-.175-1.885.266-2.555.356-.938.135-1.773-2.25-2.201-2.974a2651.79 2651.79 0 0 0-2.453-4.168c-.211-.36-1.634.101-1.912-.223-.177-.205.168-.84 0-1.059-.164-.212-.955-.318-1.22-.41-.149-.051-.055-.828-.055-.991 0-.242.622-.142.64-.313.074-.813.146-1.63.223-2.445.063-.727.131-1.456.197-2.187.002-.036-1.988-.199-2.201-.219-.393-.035-.834-.859-1.08-1.151-.268-.324-1.367.121-1.752.197-.617.124-.494.216-.57.842-.112.901-.227 1.802-.342 2.703-.03.263-.354 1.413-.205 1.64.203.298 1.313.112 1.258.563-.186 1.548-.368 3.096-.557 4.644-.125 1.045-2.041.984-2.953 1.201-1.188.281-2.293-.318-3.445-.673-.256-.078-.576-.579-.758-.766-.605-.638-1.219-1.271-1.829-1.905-.911-.95-1.827-1.902-2.739-2.854-.258.688-.52 1.371-.771 2.063-.117.309-.269 1.217-.586 1.377-1.129.573-2.262 1.146-3.393 1.722-3.385 1.716-6.77 3.435-10.148 5.15-.992.503-1.58 1.44-2.306 2.277-.313.362-.925.832-1.071 1.306-.262.85-.521 1.697-.785 2.549-.143.462 1.771 2.409 2.146 3.063.396.705.805 1.409 1.207 2.115.057.098-.268.626-.179.659.347.135.692.271 1.04.405 1.006.39 2.098 1.063 3.188 1.072 1.359.019 2.719.029 4.077.044 4.138.047 8.276.091 12.417.136l3.321.031c.298.007.382 1.077.442 1.329.141.556 1.172.899 1.143 1.332-.063.845-.129 1.685-.191 2.522-.027.354-1.525.726-1.836.85-.447.183-1.203.295-1.467.729-.49.797-.979 1.595-1.473 2.391l-.11.188c.877.249 2.886.511 3.336 1.348.886 1.645 1.771 3.29 2.653 4.935.279.521.924.368 1.479.427 1.063.104.873-.163 1.188-1.181.467-1.505 1.148-2.682 1.945-4.049l3.365 2.945c.086.075 1.29-1.104 1.461-1.249.629-.547 1.02-.424 1.868-.424h2.397c.131 0 .468-.729.535-.852.211-.35.604-.208.998-.208.713 0 1.034.813 1.453 1.354.43.552.654.613 1.313.795 1.574.431 3.132 1.034 4.771 1.034.258 0 .949-1.394 1.098-1.63.115-.186.813-.063 1.023-.063.26 0-.091.819.133.854 1.321.224 1.489.05 2.635-.604l4.992-2.847c1.801-1.027 3.604-2.059 5.401-3.082.774-.444 1.604-1.091 2.452-1.391 2.188-.775 3.326-2.819 4.771-4.566 2.69-3.266 5.385-6.524 8.076-9.787 1.008-1.224 2.014-2.438 3.021-3.658.221-.266.826-.75.838-1.123.08-5.6.161-11.199.239-16.798l.144-9.586c.011-.771.021-1.54.034-2.313.008-.662-1.392-1.176-1.902-1.516" />
    <path id="13" name="Santiago del Estero" fill="#bb007d" stroke="#CCC"
      d="M110.645 73.778c-.748.497-1.584.736-2.36 1.181-1.466.833-2.927 1.668-4.388 2.502-3.014 1.724-6.023 3.438-9.041 5.158-.362.208-.356 2.836-.334 3.271.062 1.051.67 3.288-.053 4.09l-1.627 1.807c-.099.11.104.75.129.894.09.544-.095.495-.578.783-.668.398-.566 1.036-.842 1.74a4.945 4.945 0 0 1-1.185 1.819c-.416.416-1.888 1.997-1.479 2.543.383.511.771 1.021 1.152 1.537.188.258-.063 1.313-.082 1.627-.154 2.306-1.023 4.286-3.289 5.191.264.593.521 1.184.787 1.771.186.415-.127 1.159-.207 1.585-.281 1.496-.309 2.332-.068 3.832.217 1.375.316 2.419.201 3.796a9.19 9.19 0 0 0-.027 1.538c.031.381-.094 1.841.166 2.112.285.3 1.481.374 1.888.474.731.186.655.146.702.899.084 1.318.152 2.583.412 3.877.127.646.262 1.293.392 1.938.101.501.874 1.188 1.183 1.604.336.445-.957 2.634-1.179 3.305l9.742-.354c1.358-.051 1.771-.176 2.877.599.438.309.881.757 1.415.869.936.192 1.865.39 2.805.584 1.461.306 2.512.646 3.866 1.277.44.209 1.015.639 1.519.639h4.564c.285 0 .75-.151.818.164.115.522.234 1.052.353 1.572.104.479 1.128.761 1.521 1.017.611.392 1.189.848 1.783 1.27-.734.355-1.475.711-2.211 1.066.413.413 1.063.786 1.063 1.392 0 .882-.312 1.635.51 2.049.588.301 1.013.604 1.662.604 1.03-.004 2.065-.006 3.104-.015.838-.002.672-.067.787-.854.159-1.113.322-2.229.482-3.338 1.154-8.022 2.314-16.044 3.475-24.064.543-3.754 1.196-7.429 1.283-11.217.18-7.892.357-15.784.542-23.676l.245-10.663c-7.492.064-14.986.135-22.478.205" />
    <path id="23" name="Tierra del Fuego AIAS" fill="#bb007d" stroke="#cccccc"
      d="m 100.55794,520.521 c -0.245,-0.032 -0.422,0.121 -0.628999,0.111 -0.036,-0.042 -0.58,-0.188 -0.663,-0.188 -0.146,0 -0.623,0.254 -0.776,0.313 -0.216,0.006 -0.146,0.168 -0.308,0.252 -0.212,0.104 -0.205,-0.188 -0.452,-0.146 -0.468,0.069 -1.02,0.396 -1.498,0.476 -0.265,0.039 -0.457,0.185 -0.729,0.165 -0.098,-0.061 -0.987,-0.305 -1.002,-0.331 -0.205,-0.441 -1.123,-0.333 -1.51,-0.562 -0.334,-0.271 -1.097,-0.286 -1.496,-0.439 -0.375,-0.04 -1.308,-0.604 -1.541,-0.891 -0.375,-0.587 -1.33,-0.322 -1.797,-0.906 -0.119,-0.146 -0.68,-0.915 -0.965,-0.89 -0.549,0 -0.623,-1.207 -0.836,-1.271 -0.59,-0.711 -2.04,-0.826 -2.773,-1.393 -1.475,-1.479 -4.322,-1.725 -5.471,-3.813 -0.142,-0.265 -1.305,-0.709 -0.811,-1.19 -10e-4,0.063 0.699,-0.549 0.193,-0.479 -0.256,0.021 -0.43,-0.081 -0.67,-0.142 -0.718,-0.146 -0.678,-0.269 -0.927,-0.854 -0.091,-0.186 -0.501,-0.188 -0.623,-0.352 -0.354,-0.271 -0.643,-0.646 -0.976,-0.941 -0.536,-0.536 -1.542,-1.28 -1.686,-2.059 -0.086,-0.475 -0.438,-0.966 -0.582,-1.438 -0.197,-0.607 -0.17,-1.117 -0.678,-1.564 -0.521,-0.851 -2.031,-0.252 -2.813,-0.398 -1.053,-0.215 -1.553,-1.271 -1.254,-2.3 0.092,-0.299 1.617,-2.122 1.438,-2.322 -0.066,0.047 0.533,-0.034 0.564,-0.018 0.313,0.073 -0.11,0.534 0.275,0.582 0.186,0.021 0.84,1.561 0.814,1.628 0.291,-0.59 -0.869,-2.563 -1.08,-3.086 -0.194,-0.483 -0.656,-0.771 -0.903,-1.218 -0.26382,-0.45517 -0.578505,-0.87889 -0.938,-1.263 -0.149,-0.217 -1.533,-1.813 -1.486,-1.266 l 0.188,2.198 c 0.67,7.789 1.34,15.574 2.012,23.365 0.271,3.176 0.546,6.35 0.814,9.521 0.165,-0.037 1.389,-0.452 1.396,-0.563 0.01,-0.116 -0.235,-0.062 -0.29,-0.162 -0.022,-0.055 0.567,-0.294 0.532,0.098 -0.032,0.342 0.511,-0.132 0.545,-0.146 0.152,-0.104 0.356,-0.336 0.521,-0.4 0.16,-0.188 0.445,0.17 0.754,-0.199 -0.246,0.27 -0.492,-0.69 0.024,-0.418 0.377,-0.104 0.569,0.284 0.856,0.256 0.705,0.215 1.496,0.003 2.189,0.229 0.607,0.038 1.134,0.188 1.723,0.277 0.313,0.034 0.674,0.019 0.979,-0.061 0.188,-0.045 1.166,-0.188 1.297,-0.32 0.052,-0.061 -0.221,-0.167 -0.148,-0.31 0.078,-0.104 1.032,0.442 1.174,0.496 -0.065,-0.021 0.443,-0.045 0.473,-0.045 0.109,-0.014 0.24,-0.313 0.296,-0.239 0.177,-0.002 0.159,0.176 0.438,0.119 0.441,0.019 0.865,0.047 1.291,0.2 0.59,0.188 1.039,0.202 1.604,0.454 0.408,0.071 0.982,-0.178 1.379,0.034 0.37,-0.044 0.247,0.383 0.449,0.541 0.188,0.195 0.609,0.188 0.818,0.37 0.199,0.214 1.076,0.479 1.373,0.543 0.229,0.086 1.309,-0.188 1.213,-0.423 -0.164,-0.378 -0.297,-0.354 0.088,-0.74 0.273,-0.313 0.729,-0.031 1.021,0.021 0.402,-0.012 0.646,-0.291 1.051,-0.269 0.568,0.037 0.691,-0.417 1.146,-0.604 0.24,-0.401 0.221,-0.378 -0.09,-0.729 -0.186,-0.26 0.854,0.044 0.943,-0.021 0.473,-0.396 0.564,-0.018 0.984,0.021 0.617,0.115 0.33,-0.26 0.729,0.365 0.147,0.35 0.354,0.548 0.778,0.335 0,0 0.2,-0.353 0.283,-0.437 0.214,-0.186 0.495,0.117 0.623,-0.032 0.483,-0.354 -0.121,-0.37 0.151,-0.777 0.35,-0.496 0.515,-0.145 0.725,0.107 0.148,0.182 0.368,0.932 0.706,0.261 0.054,-0.19 0.422,-0.186 0.332,-0.4 -0.246,-0.553 -0.026,-0.34 -0.05,-0.685 -0.004,-0.13 0.351,-0.277 0.412,-0.436 0.086,-0.204 -0.018,-0.593 -0.012,-0.813 0,-0.084 0.133,-0.422 0.184,-0.466 0.284999,-0.229 -0.422,-0.296 -0.266,-0.452 0.143,-0.188 0.273,0.229 0.229,-0.199 -0.021,-0.218 -0.074,-0.417 0.076,-0.591 0.076,-0.028 0.842999,-0.643 0.645999,-0.681"
      style="display:inline" />
    d="M93.914 520.521c-.245-.032-.422.121-.629.111-.036-.042-.58-.188-.663-.188-.146
    0-.623.254-.776.313-.216.006-.146.168-.308.252-.212.104-.205-.188-.452-.146-.468.069-1.02.396-1.498.476-.265.039-.457.185-.729.165-.098-.061-.987-.305-1.002-.331-.205-.441-1.123-.333-1.51-.562-.334-.271-1.097-.286-1.496-.439-.375-.04-1.308-.604-1.541-.891-.375-.587-1.33-.322-1.797-.906-.119-.146-.68-.915-.965-.89-.549
    0-.623-1.207-.836-1.271-.59-.711-2.04-.826-2.773-1.393-1.475-1.479-4.322-1.725-5.471-3.813-.142-.265-1.305-.709-.811-1.19-.001.063.699-.549.193-.479-.256.021-.43-.081-.67-.142-.718-.146-.678-.269-.927-.854-.091-.186-.501-.188-.623-.352-.354-.271-.643-.646-.976-.941-.536-.536-1.542-1.28-1.686-2.059-.086-.475-.438-.966-.582-1.438-.197-.607-.17-1.117-.678-1.564-.521-.851-2.031-.252-2.813-.398-1.053-.215-1.553-1.271-1.254-2.3.092-.299
    1.617-2.122 1.438-2.322-.066.047.533-.034.564-.018.313.073-.11.534.275.582.186.021.84 1.561.814
    1.628.291-.59-.869-2.563-1.08-3.086-.194-.483-.656-.771-.903-1.218a6.945 6.945 0 0
    0-.938-1.263c-.149-.217-1.533-1.813-1.486-1.266l.188 2.198c.67 7.789 1.34 15.574 2.012 23.365.271 3.176.546 6.35.814
    9.521.165-.037 1.389-.452
    1.396-.563.01-.116-.235-.062-.29-.162-.022-.055.567-.294.532.098-.032.342.511-.132.545-.146.152-.104.356-.336.521-.4.16-.188.445.17.754-.199-.246.27-.492-.69.024-.418.377-.104.569.284.856.256.705.215
    1.496.003 2.189.229.607.038 1.134.188 1.723.277.313.034.674.019.979-.061.188-.045 1.166-.188
    1.297-.32.052-.061-.221-.167-.148-.31.078-.104 1.032.442
    1.174.496-.065-.021.443-.045.473-.045.109-.014.24-.313.296-.239.177-.002.159.176.438.119.441.019.865.047
    1.291.2.59.188 1.039.202 1.604.454.408.071.982-.178 1.379.034.37-.044.247.383.449.541.188.195.609.188.818.37.199.214
    1.076.479 1.373.543.229.086 1.309-.188 1.213-.423-.164-.378-.297-.354.088-.74.273-.313.729-.031
    1.021.021.402-.012.646-.291 1.051-.269.568.037.691-.417
    1.146-.604.24-.401.221-.378-.09-.729-.186-.26.854.044.943-.021.473-.396.564-.018.984.021.617.115.33-.26.729.365.147.35.354.548.778.335
    0 0
    .2-.353.283-.437.214-.186.495.117.623-.032.483-.354-.121-.37.151-.777.35-.496.515-.145.725.107.148.182.368.932.706.261.054-.19.422-.186.332-.4-.246-.553-.026-.34-.05-.685-.004-.13.351-.277.412-.436.086-.204-.018-.593-.012-.813
    0-.084.133-.422.184-.466.285-.229-.422-.296-.266-.452.143-.188.273.229.229-.199-.021-.218-.074-.417.076-.591.076-.028.843-.643.646-.681m54.544-38.086c-.187
    1.332.364 2.813-.179 4.088a1.798 1.798 0 0 1-.569.743c.119.373.144.771.045 1.155-.155.587-.571 1.063-1.026
    1.449-.846.72-2.08.205-3.09.922-.836.592-1.426 1.452-2.164 2.152-1.738 1.646-4.377.465-6.164 2.12-.479.439-.609
    1.293-1.191 1.53-.598.244-1.229.138-1.854.123-1.688-.022-2.367 1.854-3.506
    2.88-.703-1.177-2.424-1.693-3.619-.854-.431.305-.563.604-1.045.271-.609-.407-1.018-1.017-1.236-1.71-.273-.87-.563-1.729.166-2.339.684-.568
    1.363-1.146 2.045-1.71.912-.76 2.136-1.685 2.281-2.867.104-.813-.152-1.53.715-1.915 1.074-.477 2.033-1.188
    3.109-1.636 1.204-.496 2.508-.03 3.758-.284 1.152-.232 1.569-1.987
    1.414-3.006-.156-1.011-1.248-1.823-1.771-2.695-.271-.446.448-1.364.713-1.707.099-.13.446-.771.608-.807.61.407
    1.313.637 2.024.77 1.392.257 2.862.166 4.179.755.532.235 1.299 1.184 1.789 1.111.588-.077 1.178-.153 1.771-.158
    1.196-.001 2.396.372 2.797 1.619m-24.683 6.628c.42-1.382.482-3.408 2.04-3.919.852-.284.772-1.959
    1.043-2.604.352-.844 1.451-1.002
    2.004-1.605.438-.481.68-1.451.949-2.04.14-.291.273-.583.41-.876.084-.185-1.882-1.449-2.104-1.595-1.54-.984-2.907.354-4.34
    1.01-1.088.501-1.896-.657-2.584-1.31-.571-.543-1.905-1.342-2.604-.657-.367.354-.578.842-.927
    1.217-.47.508-2.24.21-2.868.026-.595-.104-2.268-2.063-2.249-.507.013.982-.538 2.5.837 2.813.488.617-.035 1.187-.506
    1.589-.543.466-.523 1.261-.25 1.88.266.6.706 1.106.898 1.743-.176.77-1 1.019-1.68
    1.148-1.813.354-.771-2.271-2.134-2.769a3.024 3.024 0 0 0-1.067-.19c-.521 0-.459.457-.537.895-.17.965-.101 1.937-.004
    2.896.06.57.117 1.145.146 1.717.032.696-.224 1.604.081 2.229.52 1.083 1.493 1.755 2.479 2.368.396.249.795.495
    1.174.771.447.326.223.855.556 1.317.547.758 1.54 1.012 1.888 1.945.996-.999 2.52-1.374 3.678-2.085 1.299-.792
    2.271-2.339 3.209-3.521.929-1.164.97-.466 2.035-.288.771.135.523-1.191.427-1.598" />
    <path id="1982" name="Islas Malvinas" fill="#bb007d" stroke="#cccccc"
      d="m 155.10194,482.435 c -0.187,1.332 0.364,2.813 -0.179,4.088 -0.12076,0.29355 -0.31707,0.5499 -0.569,0.743 0.119,0.373 0.144,0.771 0.045,1.155 -0.155,0.587 -0.571,1.063 -1.026,1.449 -0.846,0.72 -2.08,0.205 -3.09,0.922 -0.836,0.592 -1.426,1.452 -2.164,2.152 -1.738,1.646 -4.377,0.465 -6.164,2.12 -0.479,0.439 -0.609,1.293 -1.191,1.53 -0.598,0.244 -1.229,0.138 -1.854,0.123 -1.688,-0.022 -2.367,1.854 -3.506,2.88 -0.703,-1.177 -2.424,-1.693 -3.619,-0.854 -0.431,0.305 -0.563,0.604 -1.045,0.271 -0.609,-0.407 -1.018,-1.017 -1.236,-1.71 -0.273,-0.87 -0.563,-1.729 0.166,-2.339 0.684,-0.568 1.363,-1.146 2.045,-1.71 0.912,-0.76 2.136,-1.685 2.281,-2.867 0.104,-0.813 -0.152,-1.53 0.715,-1.915 1.074,-0.477 2.033,-1.188 3.109,-1.636 1.204,-0.496 2.508,-0.03 3.758,-0.284 1.152,-0.232 1.569,-1.987 1.414,-3.006 -0.156,-1.011 -1.248,-1.823 -1.771,-2.695 -0.271,-0.446 0.448,-1.364 0.713,-1.707 0.099,-0.13 0.446,-0.771 0.608,-0.807 0.61,0.407 1.313,0.637 2.024,0.77 1.392,0.257 2.862,0.166 4.179,0.755 0.532,0.235 1.299,1.184 1.789,1.111 0.588,-0.077 1.178,-0.153 1.771,-0.158 1.196,-10e-4 2.396,0.372 2.797,1.619 m -24.683,6.628 c 0.42,-1.382 0.482,-3.408 2.04,-3.919 0.852,-0.284 0.772,-1.959 1.043,-2.604 0.352,-0.844 1.451,-1.002 2.004,-1.605 0.438,-0.481 0.68,-1.451 0.949,-2.04 0.14,-0.291 0.273,-0.583 0.41,-0.876 0.084,-0.185 -1.882,-1.449 -2.104,-1.595 -1.54,-0.984 -2.907,0.354 -4.34,1.01 -1.088,0.501 -1.896,-0.657 -2.584,-1.31 -0.571,-0.543 -1.905,-1.342 -2.604,-0.657 -0.367,0.354 -0.578,0.842 -0.927,1.217 -0.47,0.508 -2.24,0.21 -2.868,0.026 -0.595,-0.104 -2.268,-2.063 -2.249,-0.507 0.013,0.982 -0.538,2.5 0.837,2.813 0.488,0.617 -0.035,1.187 -0.506,1.589 -0.543,0.466 -0.523,1.261 -0.25,1.88 0.266,0.6 0.706,1.106 0.898,1.743 -0.176,0.77 -1,1.019 -1.68,1.148 -1.813,0.354 -0.771,-2.271 -2.134,-2.769 -0.34132,-0.12707 -0.70279,-0.19144 -1.067,-0.19 -0.521,0 -0.459,0.457 -0.537,0.895 -0.17,0.965 -0.101,1.937 -0.004,2.896 0.06,0.57 0.117,1.145 0.146,1.717 0.032,0.696 -0.224,1.604 0.081,2.229 0.52,1.083 1.493,1.755 2.479,2.368 0.396,0.249 0.795,0.495 1.174,0.771 0.447,0.326 0.223,0.855 0.556,1.317 0.547,0.758 1.54,1.012 1.888,1.945 0.996,-0.999 2.52,-1.374 3.678,-2.085 1.299,-0.792 2.271,-2.339 3.209,-3.521 0.929,-1.164 0.97,-0.466 2.035,-0.288 0.771,0.135 0.523,-1.191 0.427,-1.598"
      style="display:inline" />
    <path id="21" name="Río Negro" fill="#bb007d" stroke="#CCC"
      d="M117.003 307.732c-.255-.344-.894-1.598-1.272-1.7-.379-.103-1.504.645-1.904.852-.609.31-.991 0-1.646-.06-.209-.018-1.959-.113-1.959-.213V283.218c0-.514-2.287-1.553-2.856-1.879-.425-.237-.834-.757-1.128-.28-.299.476-.596.95-.895 1.431-.637-.638-1.25-1.304-1.927-1.896-.479-.419-.96-.839-1.438-1.261-.205-.175-1.313.116-1.588.146-.928.104-2.104-.896-2.899-1.314-.876-.465-1.763-.449-2.751-.553.283-.565.566-1.129.852-1.695-1.636-.462-3.738-.729-5.438-.391-.98.188-1.817.41-2.813.299-.283-.029-1.021-.281-1.142.029-.191.516-.39 1.022-.578 1.543-.696-.279-1.396-.561-2.089-.83-.469-.189-1.428.813-1.94.83-.596.015-1.599-.666-2.149-.896-.68-.273-1.354.102-2.051.288-.728.203-1.236.134-2 .055-.986-.099-1.125-.457-1.795-1.219-.632-.722-.396-.937-.158-1.888.174-.697-1.063-.754-1.646-.946-1.356-.451-2.403-1.488-3.692-2.137-1.347-.674-2.281-1.404-3.234-2.555-.047-.058-1.403.462-1.666.521-.975.215-1.34.293-2.271.012-.682-.199-1.134-.313-1.677-.75-.396-.313-1.338-1.419-1.84-1.217-1.058.425-.987.188-1.761-.656-.743-.812-.924-.857-.809-1.943.068-.663.686-1.154.893-1.778.412-1.236.443-1.229 1.699-1.585.34-.104-.063-1.461-.39-1.613-.815-.385-1.269-.626-2.153-.61-1.634.021-2.896-.04-4.479-.479.053 4.079.103 8.156.149 12.239.021 1.713.043 3.417.063 5.129.004.297 1.147.896 1.416 1.291.519.776.801 1.555 1.132 2.434-1.104 0-3.021-.104-3.939.511-1.051.698-2.674 1.557-3.34 2.684-.824 1.398-1.263 2.352-1.465 3.971-.113.91-.053 1.231-.728 1.818-.577.506-1.13.986-1.769 1.414-1.295.867-2.621 1.681-3.951 2.5-.213.133-.217.582-.271.813-.057.211-.57.293-.758.362-.725.271-1.447.521-2.184.767-1.166.394-2.244 1.856-1.771 3.041.253.637.837 1.379.438 1.979-.178.265-.375.744-.629.941-.285.221-.791.188-1.06.424-.455.402-.759 1.389-1.054 1.927-.284.521-.655.684-1.172 1.012-.418.271-1.043.884-1.56.884-.632 0-1.293-.144-1.836.194-1.128.69-2.226 1.291-3.159 2.222-.729.729-2.465 2.035-1.955 3.313.061.148.387.689.338.848-.066.217-.576.248-.656.48-.198.604-.295 1.105-.739 1.557-.31.307-.981 1.299-1.412 1.37-.774.128-1.313.188-2.085.075-.648-.09-.961-.627-1.525-.736-.654-.126-1.041-.189-1.686-.074-.51.096-1.278.402-1.782.266-.735-.2-1.468-.396-2.202-.602 0 1.52.25 2.82-.121 4.305-.164.652.031 1.348.114 2.014.06.473 1.413.505 1.521 1.033.103.502.531 1.527.387 2.021-.077.267-.729 2.033-.568 2.111.954.479 1.188.438 1.338 1.479.094.641-.1 1.521.09 2.104.405 1.225 1.715.758 2.729.729 2.32-.072 4.645-.146 6.968-.226 16.298-.519 32.597-1.035 48.894-1.554 5.984-.189 11.97-.381 17.953-.564.342-.018 2.557.131 2.592-.242.148-1.479.707-3.07.498-4.523-.057-.396-.184-.551.133-.78.331-.25.629-.327.629-.744 0-1.019-.461-1.403-1.074-2.224-.408-.539-.189-1.493-.326-2.178-.179-.896-.512-1.396-.512-2.354 0-1.657-.441-3.522-1.061-5.063.654-.185 1.305-.332 1.91-.641.728-.363 1.217-.934 2.021-.664.31.104-.067.688.103.881.108.127.896.09 1.062.104.955.099 1.298.253 2.116.766 1.244.771 2.56 1.263 3.76 2.117.54.387 1.37.19 2.018.19.629 0 .823 1.064 1.504 1.064.34 0 .752-.16.826.211.029.16.061.813.223.865.729.24 1.408.438 2.156.588 1.396.282 2.803.398 4.223.535 2.533.229 6.759-.779 6.431-4.025-.109-.899-.543-1.82-.795-2.658" />
    <path id="2" name="Catamarca" fill="#bb007d" stroke="#CCC"
      d="M40.012 107.719c.748.366 1.676.477 1.729 1.354.061 1.032.119 2.063.181 3.096.41-.103.718-.285 1.091-.081.617.335 1.231.67 1.848 1.011.748.404 2.063.132 2.894.132h1.511c.201 0 .313.607.369.771.4 1.086.801 2.173 1.2 3.26.653-.419 1.313-.836 1.97-1.254.598-.381 1.313-.351 2.01-.438.388-.048 1.391 1.001 1.713 1.248.359.269 1.938-.104 2.392-.133.875-.063.856-.104 1.388-.826.492-.675.512-.977 1.314-.965.85.007 3.581-.452 4.02.331l2.637 4.717c.275.494.83.543 1.354.739.833.313.396.976.276 1.804-.067.477-.445 1.262.074 1.447.937.324 1.867.65 2.802.979 1.438.506 2.426 1.373 3.646 2.313.406.313.286.563.286 1.092 0 .651.577.61 1.167.828.336.121 1.12.208 1.202.596l.438 2.092c.461 2.188.693 4.431 1.58 6.488.146.335.949.155 1.283.155.172 0 .438 1.031.495 1.188.203.556.675 2.869 1.315 2.814l4.335-.376c.503-.042.343-.66.39-1.105.098-.891.037-.823.939-.823-.325-1.566-.651-3.145-.979-4.717-.129-.625.416-.602.972-.853.787-.356 1.203-.396 1.528-1.172.106-.266.945-1.776.79-1.985-.361-.483-1.148-1.177-1.27-1.766-.283-1.438-.6-2.822-.688-4.278-.026-.409.13-1.888-.138-2.198-.328-.379-1.916-.479-2.424-.61-.53-.132-.297-3.26-.239-3.929.138-1.646-.153-3.113-.411-4.752-.211-1.336.271-2.725.521-4.046.061-.312-.653-1.178-.818-1.468-.266-.455-.751-.875-1.262-.949-.6-.086-.961-.311-1.361.139-.523.584-1.046 1.164-1.57 1.746-.259.287-1.132.234-1.509.289-.153.022-1.125-.958-1.104-1.11.09-.615.517-1.375-.193-1.491-.962-.157-.916-.082-1.508.705-.805-1.476-1.313-2.541-1.641-4.178-.134-.658-.5-1.275-.771-1.894-.277-.627-1.244-.856-1.836-1.151-.659-.333-.422-.859-.422-1.588 0-1.128-.26-1.322.854-1.55.507-.102.798-1.213 1.013-1.641.342-.688.586-1.272 1.123-1.813.685-.68.664-.972.785-1.947.09-.718-.529-1.401-.869-2.021-.271-.49-.914-.668-1.396-.926-.229-.121-1.917-.816-1.934-1.056l-.117-2.359c-.021-.438-.301-1.574-.027-1.947l1.495-2.051c.302-.416-.91-1.24-1.235-1.566-.037-.036-.074-.073-.111-.106-.738 1.271-1.438 2.398-1.871 3.806-.244.802-.127 1.533-1.012 1.444-.59-.063-1.429.107-1.729-.446-.864-1.604-1.729-3.211-2.596-4.816-.521-.966-2.391-1.183-3.396-1.467.679-1.103 1.155-2.542 2.384-3.034.803-.318 1.604-.642 2.403-.962.304-.122.228-1.824.25-2.157.063-.849-.282-.9-.964-1.446-.221-.178-.291-1.729-.486-1.729-.941-.012-1.883-.021-2.822-.03l-12.321-.133c-1.491-.017-2.983-.029-4.479-.047-1.012-.011-1.796-.426-2.754-.799-.302-.117-1.505-.812-1.814-.682-.801.336-1.604.67-2.402 1.007-.309.128-.255 3.27-.093 3.701.634 1.665 1.268 3.329 1.896 4.991.5 1.318.656 2.614.877 4.016.084.521.352.981-.078 1.329-.797.637-1.594 1.271-2.392 1.906-.53.429-.549.364-.433 1.021l.563 3.089c.143.788.006.943.776 1.137.896.228 1.044.173 1.466.939.367.67 2.311 3.286 1.705 3.8-.396.333-2.145 2.229-2.594 2.077-.635-.211-2.766-1.318-3.26-.869-.979.894-2.049 1.521-2.371 2.813-.188.762-.25.879-.85 1.377-.645.529-.636.542-.636 1.38 0 .762-.022.83.517 1.365.422.42.297.473.147 1.049-.356 1.361-.716 2.729-1.068 4.1-.11.417 2.003.883 2.492.789 1.279-.252 2.563-.493 3.848-.734" />
    <path id="6" name="Jujuy" fill="#bb007d" stroke="#CCC"
      d="M65.889 51.867c.67-.158 3.561-.438 3.635-1.093.199-1.667.398-3.332.603-4.999.034-.291-1.294-.253-1.256-.551.104-.871.217-1.739.323-2.609.102-.78.195-1.563.297-2.343.025-.234 1.717-.413 1.99-.468.478-.099.797 1.05 1.195 1.241.566.278 1.661.152 2.299.21.069.009-.332 4.07-.375 4.513-.021.275-.299.256-.553.342-.225.075-.099.785-.099 1.011 0 .188.7.314.868.371.548.183.402.333.402.917 0 .554 1.371.425 1.862.48.222.021.628.998.731 1.176 1.103 1.869 2.199 3.739 3.301 5.604.365.625.602.388 1.353.279 1.231-.176 1.673-.417 2.656.321.19.144.696-.516.912-.587.354-.122.956 0 1.332 0 .985 0 .03 1.479.579 1.903.371.288 2.012 0 2.512 0 .344 0 1.273-1.597 1.518-1.903.437.434 1.246 1.647 1.855 1.712.604.06 1.205.12 1.807.177.316.032.416-.551.53-.806.226-.494.449-.987.674-1.482.063-.134 1.175-.029 1.345-.029.729 0 .81-1.44.996-2.06.273-.906.713-1.878.854-2.814.104-.696 0-1.494 0-2.199v-6.287l-2.146.896c-.674.283-1.351-.073-2.047-.248-.633-.153-1.304-.688-1.877-.996-.904-.484-.904-.508-1.863-.125-.738.296-1.076.49-1.842.365-.457-.077-1.824-.032-1.932-.535-.366-1.69-.579-2.902-.422-4.622.054-.604.095-1.21.137-1.813.063-.863.419-1.488-.406-1.836-.853-.362-1.097-.578-1.679-1.311-.519-.646-1.151-.212-1.256-1.162-.086-.783-.158-1.354-.464-2.075-.271-.634-.333-.695-.139-1.307.599-1.832 1.188-3.661 1.783-5.492l.787-2.421-4.506.106c-.534.013-3.884.415-4.031-.095-.289-1.021-.115-1.302-1.168-1.302-1.101 0-1.24.216-1.626-.782-.096-.25-.56-1.944-.801-1.976-.666-.074-1.604-.431-2.138.024-.455.391-1.139.741-1.293 1.339l-.767 2.905c-.143.544-.062.786-.587.932l-2.917.817-2 .56c-.251.069-.67 1.668-.767 1.914-.278.712-.561 1.423-.838 2.136-.119.313-1.768.661-2.107.788-.529.195.316 1.808-.227 2.163-.955.637-1.91 1.272-2.865 1.907.648.953 1.302 1.904 1.955 2.854.508.747.865.943.64 1.774l-2.327 8.479c-.08.3-.643 1.567-.402 1.815.893.925 1.779 1.85 2.668 2.776.845.876 1.686 1.751 2.522 2.626.505.524 2.102.679 2.802.895" />
    <path id="15" name="Chaco" fill="#bb007d" stroke="#CCC"
      d="M177.238 91.382c-.635-.314-1.516-.533-1.879-1.167-.545-.949-.818-1.267-1.729-1.874-.799-.53-1.312-.652-2.271-.848-.854-.172-1.258-.604-1.934-1.167-.574-.476-.451-1.456-1.271-1.575a18.19 18.19 0 0 1-2.526-.563c-.912-.258-1.192-.833-1.524-1.616-.312-.725-.89-1.076-1.496-1.583.444-.444 1.229-.813.84-1.393-.443-.668-.9-1.327-1.371-1.981-.846-1.186-1.893-2.249-2.842-3.354-.447-.523-1.174-.744-1.781-1.052-.633-.313-1.215-.736-1.813-1.109-.404-.252-.638-1.146-.91-1.554-.469-.701-.75-1.184-1.459-1.627-.863-.533-.896-.734-1.791-.292-1.104.557-1.013.436-1.89-.443-.42-.42-1.245-.555-1.791-.757-.563-.214-.679-1.208-1.313-1.329-1.516-.296-2.439-1.354-3.432-2.472a7.786 7.786 0 0 1-1.066-1.514c-.498-.892-.721-1.135-1.596-1.667-.578-.352-1.459.305-1.957-.265-.604-.694-1.328-1.137-1.209-2.065.164-1.292-.006-1.188-1.119-1.882-.707-.442-.994-1.255-1.594-1.854-.563-.563-1.33-.323-1.938-.813-.847-.675-1.278-.579-2.376-.579-.279 0-.764-.474-.987-.627-.392-.258-.487-.194-.965-.113-.915.155-1.513-.331-2.337-.742-.086 1.66.27 3.449-.813 4.762-1.664 2.016-3.328 4.028-4.992 6.05l-9.461 11.461 22.479-.212c-.284 12.304-.564 24.604-.85 36.913 0 .064-.004.135-.006.201l37.933.63c.098.002.659.067.688-.029.282-1.351.293-2.045.02-3.401-.059-.304-.037-1.227 0-1.515.107-.751.064-1.222-.08-2.01-.299-1.686 1.383-1.356 2.459-1.939.646-.351.76-.295.766-1.018.004-.63.006-1.261.006-1.895 0-.521.853-.581.853-.966 0-.604-.187-1.097.33-1.438.776-.521 2.038-1.492 1.622-2.532-.303-.747-.188-.729.322-1.367.328-.409.803-.64 1.215-.994-.388-.273-.777-.549-1.164-.824" />
    <path id="17" name="Formosa" fill="#bb007d" stroke="#CCC"
      d="M127.613 52.358c.797-.135 1.133-.306 1.799.14.826.549 1.253.493 2.264.493.563 0 .87.787 1.436.881.912.153 1.322.262 1.929 1.029.499.638.583 1.026 1.271 1.46 1.033.646 1.076.551.92 1.758-.104.842.357 1.089.92 1.734.642.729 1.025.56 2.016.56 1.407 0 1.738 1.917 2.477 2.743.789.893 1.943 2.571 3.211 2.817.938.183 1.063.421 1.687 1.165.44.528 1.247.656 1.888.896.396.15.824 1.216 1.248 1.004.727-.359 1.271-.94 1.982-.499.666.414 1.186.667 1.611 1.313.453.675.854 1.367 1.256 2.071.668 1.171 2.703 1.148 3.516 2.102.967 1.123 2.063 2.209 2.922 3.414.461.646.918 1.296 1.357 1.957.533.795-.063.948-.705 1.593.727.604 1.229.949 1.59 1.804.355.83.865 1.236 1.768 1.49.598.168 2.127.21 2.584.524.271.187.5.88.666 1.168.215.376.479.565.814.848.777.646 1.471.694 2.475.896.779.151 1.508.869 2.164 1.308.648.435.604 1.367 1.393 1.76.845.421 1.688.838 2.533 1.251-.065.061-.129.112-.19.167.688.795 2.487-.77 2.672-1.506.138-.532.524-1.318.353-1.851-.314-.932-.441-.974.172-1.708.764-.916 1.52-1.852 2.209-2.819.375-.527.867-.961.867-1.616 0-1.015.106-.915 1.059-1.295-.586-1.177-1.281-2.321-.146-3.455.934-.936 1.889-1.804 2.621-2.9.445-.671.803-.854.484-1.585a34.767 34.767 0 0 0-.949-2.036c-.514-1.021 1.973-2.122 2.656-2.535-.363-.438-.863-.875-1.117-1.386-.301-.602-.564-1.574-1.037-2.042-.596-.594-.813-1.021-1.646-1.021-1.037 0-1.159-.299-1.903-1.049-.291-.296-1.154-.753-1.556-.642a83.06 83.06 0 0 0-1.246.354c-.352.099-.502-.417-.686-.688-.689-1.034-2.406-.706-3.52-1.266-1.146-.571-2.449-1.563-3.678-1.875-.646-.162-1.619-.632-2.281-.576-.543.049-1.381 1.104-1.861.723-1.199-.966-2.35-1.748-3.188-3.047a26.376 26.376 0 0 0-1.217-1.682c-.48-.62-1.117-.835-1.818-1.188-.965-.488-1.813-1.155-2.695-1.774-.906-.638-2.031-.271-2.805-1.178-.313-.367-.813-1.279-1.254-1.479-.336-.148-1.328.111-1.703.172-.623.104-1.242.276-1.861.413-.475.104-1.311-.271-1.785-.375-.873-.19-1.998-1.323-2.764-1.841a74.171 74.171 0 0 1-2.864-2.026c-.81-.604-1.271-1.729-1.856-2.556-.771-1.084-1.475-1.441-2.647-2.1-.259.489-.519.979-.771 1.469-.157.302-.982-.201-1.26-.303-.968-.36-1.738-1.065-2.671-1.481-1.18-.521-2-.938-2.975-1.771-.726-.621-1.021-1.871-1.813-2.324-.361-.206-1.125-.458-1.354-.806-.313-.472-.592-1.002-.987-1.401-.479-.471-.671-.639-.827-1.273-.16-.646-.195-1.02-.656-1.479-.209-.208-1-.742-.799-1.021.125-.171 1.041-1.235.941-1.378-.66-.945-1.273-1.723-2.102-2.524-.041 4.66-.08 9.314-.119 13.977-.021 2.884-.049 5.771-.072 8.651-.006.724-.012 1.447-.02 2.169-.032.576 1.21.854 1.673 1.083" />
    <path id="5" name="Entre Ríos" fill="#bb007d" stroke="#CCC"
      d="M178.727 147.38c-.354.031-2.219.402-2.369.15-.481-.806-.92-1.42-1.92-1.646-1.098-.25-1.637-.554-2.604.007-.945.542-1.764.495-2.855.564-1.166.079-1.18.208-1.938 1.133-.844 1.028-.818 1.281-2.109 1.197-1.658-.104-4.34-.299-4.873-2.165-1.815.871-.483 2.306-.723 3.715-.104.581-.488 1.161-.297 1.768.229.729.684.969.357 1.789-.801 2.021-2.324 3.689-3.222 5.677-.465 1.025-1.063 1.916-1.633 2.88-.442.516-.821.543-1.396.78-.854.354-.773 1.259-1.238 1.923-.482.706-1.283.636-1.896 1.125-.465.366-.844.878-1.279 1.282-.477.438-.854 1.083-1.56 1.193-.704.119-.59.195-.747.873-.378 1.616-1.193 4.147-.24 5.636.547.849.156 1.862-.401 2.604-.357.472-.104.741.034 1.188.607.813-.021 1.635-.309 2.417-.351.963-.133 1.884.221 2.804.438 1.016.617 2.135 1.139 3.118.289.742 1.063 1.01 1.503 1.635.36.527 1.248.768 1.313 1.474.063.74 1.133.938 1.551 1.43.613.694.799 1.242 1.754 1.519 1.324.375 1.506 1.674 2.736 2.294 1.491.589 2.604 1.771 4.021 2.438.592.272.84.693 1.489.896.781.058 1.396.545 1.957 1.042.441.396 1.24.69 1.461 1.284.128.362 1.339-.105 1.775.368.793.851 1.691.602 2.754.877.674.176 1.162.669 1.81.896.754.271 1.479.177 2.223-.064.979-.317.543-.946.41-1.875-.065-.495.131-1.091.104-1.608-.021-.563-.104-1.123-.184-1.687-.145-.988-.053-2.149.57-2.979.51-.917.682-1.59.807-2.623.07-.592.291-2.229 1.006-2.452.523-.156 1.008.175 1.563-.078.364-.164.784-.521 1.043-.823.729-.873.545-1.92.077-2.854-.215-.431-.372-.93-.096-1.385.158-.513.74-.932.181-1.495-.845-1.64-1.146-3.332.18-4.797.572-.636 1.113-1.354.904-2.278-.203-.916-.697-1.979-.423-2.93.229-.78.693-1.692.509-2.522-.093-.425-.42-.758-.175-1.214.179-.333.673-.551.97-.75 1.377-.918 1.707-2.6.707-3.942-.326-.442-.086-.575.147-.932.574-.319.517-.969.486-1.519-.035-.63.072-1.267.139-1.896.127-1.316.303-2.62.49-3.937.152-1.09.684-2.536.516-3.59-.182-1.132-1.27-2.237-1.967-3.071a135.294 135.294 0 0 0-2.453-2.864" />
    <path id="16" name="Chubut" fill="#bb007d" stroke="#CCC"
      d="M12.859 329.575c-.075.233-.563 1.925-.684 1.891-1.049-.296-1.283-.506-2.179.093-.776.517-.621 1.172-.728 2.094-.063.602 1.022 1.271.754 1.806-.396.797-.812 1.31-.666 2.188.117.691-.137 1.264-.034 1.942.249 1.724.129 3.104-.069 4.837.656.066 1.311.133 1.965.197.354.037.319 1.167.366 1.497 1.308-.214 1.388-.113 2.416.739.581.479.707 1.882.134 2.438-.267.261-1.066.358-1.414.476-.615.211-.591.398-.84 1.021-.193.486 1.739 1.104 2.254 1.273-.216.42-.427.844-.64 1.269.739 0 2.884-.099 2.688 1.041-.146.861-.146.869-.932 1.267-.488.241-.458 1.219-.354 1.646.18.695.965.098 1.353.504.425.446-.192 1.253-.474 1.532-.36.362-.303 1.104-.368 1.597-.034.234-1.247.585-1.493.69.457.456.925.891 1.33 1.396.087.111.629.646.55.771-.264.395-.526.795-.79 1.188-.109.165.102.703.141.896.07.345.313.178.643.138.254-.034.857-.229 1.1-.136.162.062.532.7.68.603.757-.501.992-.975 1.765-.464.104.068.688.548.776.456l.986-.982c.117-.117 1.832-.147 1.946-.039.149.16-.065.834 0 1.063.104.367.522.787.74 1.108.17.256-.31 1.349-.593 1.463-.17.063-.928.242-.994.396-.09.188.33 1.002.4 1.213.11.332-1.072.896-1.41.854-1.004-.12-1.467-.241-2.332-.768-.144-.086-.623.523-.736.642-.236.235-.482.235-.813.307-.502.104-.418.113-.418.64 0 .48-.424.418-.865.543-.486.138-1.616.129-1.891-.457-.086-.183.155-.801.197-1.008.029-.172-.827-.563-.99-.66-.234-.146-1.063.297-1.33.39.141.188.666.681.622.901-.079.396-.374.918.021 1.113.709.356 1.677.461 2.173 1.077.196.249.415.761.755.677.499-.125 1.044-.199 1.521-.381.334-.121.928-.656 1.272-.632.295.024.899.75 1.138.945.643.534.211 1.424 1.068 1.854.893.45 1.546.68 1.396 1.869-.088.708-.789 1.635-1.293 2.137-.783.782-.705 1.422-.83 2.529-.852-.642-.77-.716-1.525.04-.354.354-.021 1.188.046 1.652-.425-.068-.853-.146-1.272-.209 0 .627-.203 1.563.127 2.116.074.125.574.803.463.889l-1.014.813c.95.939 2.25.317 3.479.346 1.279.021 2.563.088 3.845.063 2.011-.037 4.019-.072 6.024-.105 8.273-.146 16.545-.297 24.815-.444 2.872-.051 5.746-.104 8.621-.153.429-.008 1.146.2 1.146-.294 0-.872-.041-1.27.855-1.442.635-.127.844-.85.844-1.479 0-.774-.281-1.612.416-2.038.303-.184.588-.293.771-.595.238-.404.344-.812.809-.927.834-.219.786-.854.657-1.623-.063-.364-.229-.571.11-.744.568-.286.627-.229.627-.866 0-.683.927-.787 1.464-.907 1.007-.223 1.384-.15 2.384.135.323.093 1.676.248 1.885.051.271-.258.326-1.771.387-2.139.082-.508.941-.535 1.31-.834.587-.479.797-.938 1.485-1.354.885-.53 2.037.726 2.932.726 1.236 0 2.436.271 3.661.094.313-.045 1.541-.521 1.211-1.012-.353-.516-.908-.908-1.229-1.421-.297-.469-.399-1.207-.578-1.733-.262-.779-.252-.84.123-1.586.021-.041 1.541-.229 1.729-.279.825-.208 1.04-.404 1.646-1.02.297-.3-.125-1.147.049-1.524.098-.208.43-.425.594-.585.203-.202.277-.643.386-.897.259-.646.851-.797.507-1.481-.274-.56-.673-1.002-1.061-1.485.564-.375.695-.546 1.004-1.156.385-.771.543-.839.163-1.598-.533-1.063-1.167-1.831-1.167-3.04 0-.51.143-1.178-.126-1.624-.271-.445-.777-1.007-.274-1.511.875-.881 1.711-1.729 2.485-2.693.442-.561.819-.22 1.021-1.02.104-.404.383-1.332.713-1.563.377-.271 1.166.101 1.338-.417.269-.807.285-1.031 1-1.458.281-.169.886-.883 1.132-.883.888 0 1.063-.063 1.771-.593.379-.285.887-.469 1.326-.642.688-.274.73-.436 1.063-1.106-.734-.146-1.455-.521-2.174-.646-.248-.04-1.14-.053-1.25-.271-.266-.532-.211-.846-.795-.646-.644.21-.758.373-1.293-.031-.375-.273-.683-.576-1.011-.903-.567-.568-1.524-1.021-2.172-1.528 1.28-1.033 2.597-1.484 4.245-1.484-.188-.918-.282-.99.377-1.653.396-.4 1.604.549 1.891.761.217.165.779.048 1.047.048.229 0 .512.437.666.591.202.204.633.283.896.392.375.147.563.552.8.864.104.146-1.011 1.02-1.011 1.445 0 .618.402.123.637.523.137.236-.354.828-.215 1.063.191.336 1.893.485 2.193.551.674.15 1.375-.302 2.011-.535a15.811 15.811 0 0 0 1.577-.68c1.002-.496 1.195-.548 1.578-1.572.498-1.324.699-2.743.699-4.15 0-.578-.244-1.073-.146-1.652.169-1.016-.098-1.229-.678-2.097-.438-.666-.676-.962-.834-1.744-.1-.483-1.563-.517-2.025-.604-.771-.156-1.585.807-2.203 1.115-.943.471-1.781.725-2.813.982.535.175 2.023.335 2.188.834.362 1.08.252 1.438-.065 2.559-.732-.314-1.258-.701-2.035-.5-.573.146-1.418.406-1.979.226-1.139-.39-1.082-.396-1.277-1.579-.112-.708 1.258-1.15 1.69-1.327-.644-.212-1.243-.42-1.909-.528-.568-.099-1.521.266-1.969.08-1.396-.563-2.664-1.396-3.35-2.757-.387-.771-1.891-.35-2.678-.321-5.938.188-11.875.377-17.813.563-16.314.521-32.637 1.038-48.949 1.562-3.111.101-6.221.192-9.331.293.111.172.213.402.312.631" />
    <path id="19" name="Neuquén" fill="#bb007d" stroke="#CCC"
      d="M13.921 313.245c1.372.271 2.3 1.237 3.798.991 1.502-.25 2.459-1.521 2.922-2.913.104-.308.373-.405.637-.585.154-.104-.207-.73-.271-.893-.157-.396.114-1.475.411-1.77 1.076-1.074 2.021-2.105 3.313-2.91.398-.243 1.274-1.049 1.75-1.049.707 0 1.414.152 2.02-.229.598-.384 1.479-.744 1.965-1.261.521-.55.848-1.55 1.215-2.219.241-.44 1.014-.38 1.34-.871.672-1.004.606-.997.154-2.122-.697-1.747.18-2.383 1.504-3.459.625-.512 2.199-.782 2.961-1.064.243-.098.119-.783.438-.979.641-.396 1.279-.79 1.923-1.186.858-.529 1.755-1.063 2.56-1.68.457-.354.877-.765 1.313-1.146.499-.432.436-.756.521-1.432.125-1.01.201-2.013.717-2.889.668-1.133 1.25-1.807 2.221-2.699 1.668-1.542 3.652-1.809 5.838-1.809-.549-1.451-.96-2.646-2.337-3.467-.521-.313-.231-1.979-.237-2.521-.052-4.04-.101-8.075-.15-12.116-.012-.994-.021-1.987-.035-2.981 0-.113-1.292-.549-1.535-.702-.688-.427-1.273-.848-2.051-1.069-1.211-.345-2.74-.462-4.008-.462-1.141 0-1.106-.015-1.7-1.006-.162-.271-1.438-.681-1.771-.69-.677-.025-1.449-.172-2.115-.076-.652.09-1.481.369-2.133.285-.646-.082-1.418-.01-1.922-.438-.699-.6-1.171-.929-1.51-1.771.592.027 1.188.061 1.779.094 0-1.25.057-1.623-.719-2.592-.563-.705-1.767-.439-2.356-1.228-.622-.83-1.896-1.032-2.851-1.396-.595-.231-.701-1.829-.863-2.423-.553.271-1.037.671-1.655.583-1.082-.155-1.073-.098-1.479-1.1-.582-1.467-.684-2.753-.684-4.316 0-.854-.318-1.058-.895-1.723-.164-.191-.271-.494-.521-.385-.488.221-.98.438-1.468.657-.621.275-1.104.837-1.61 1.277-.593.515-.279 1.065-.174 1.82-.632.093-1.404-.062-1.596.601-.061.211-.143.961-.313 1.096-.152.117-1.097-.156-1.302-.187-1.047-.146-.259 3.396-.188 3.789-.166-.04-.813-.308-.873-.14-.151.442-.311.884-.465 1.326l-.994 2.844c.477.07 1.424-.043 1.543.476.184.781.557 1.692.578 2.504.022.72-.26 1.563-.379 2.271-.104.631.717 1.407 1.055 1.914.406.611-.846.913-.663 1.354.336.805.672 1.604 1.005 2.404.167.402-.426 1.364-.575 1.771-.151.405.622 1.17.622 1.646 0 .524-.248 1.75 0 2.205.123.229.771.463 1.002.6.152.095-.146.948-.186 1.12-.043.192-.268.717-.137.893.118.15.629.641.577.829-.261.903-.514 1.259-.063 2.063.357.642.684 1.235 1.14 1.81.548.688.521 1.313.632 2.183.037.299-.729 1.321-1.031 1.321-.83 0-1.578.037-2.397.155-.722.104-.416 1.06-.995 1.146-.979.136-1.246-.058-1.457.896-.221.983-.277 1.167.171 2.063.339.683.095 1.443.021 2.193-.063.64.414 1.193.395 1.81-.02.512-.848 1.188-.529 1.651.563.838.767.985.573 1.959-.13.646-1.396-.136-1.741.213-.348.348.317 1.431-.132 1.809-.526.438-1.161.676-1.106 1.38.06.729-.016 1.614.186 2.32.163.584.664.979.602 1.608-.063.644.149 1.736-.563 1.84-1.088.164-1.08.121-1.515 1.123-.592 1.383.662 2.388 1.688 3.071l-1.032 1.23c-.148.177-1.057.036-1.301.036.23.584.506.896.223 1.468-.354.708-.266 1.05-.445 1.766-.083.327-.563 1.453-.367 1.712.561.74.594.938.594 1.857 0 .431.613.521.719 1.041.172.854.444.729 1.293.96 1.28.379 2.132.161 3.476-.08" />
    <path id="3" name="Córdoba" fill="#bb007d" stroke="#CCC"
      d="m129.305 183.648-.18-4.654c-.025-.662.079-.788-.464-1.146-.31-.205-1.454-.716-1.485-1.097l-.438-5.146c-.063-.688-.119-1.369-.182-2.059-.045-.52-.604-1.142-.855-1.592 1.215-.491 1.126-.632 1.513-1.852l1.629-5.13c.554-1.739 1.105-3.479 1.656-5.22.244-.771.658-1.333.244-2.028-.908-1.529-1.816-3.06-2.726-4.583-.334-.563-.664-1.117-.996-1.68-.146-.251-1.131-.082-1.394-.075-.864.001-1.726.004-2.587.006-.613.003-1.162-.434-1.699-.702-.598-.304-.311-1.333-.311-1.949 0-.604-.65-.979-1.064-1.392.737-.354 1.479-.71 2.213-1.066-.584-.417-1.17-.831-1.754-1.248-.396-.284-1.443-.541-1.554-1.035-.104-.464-.206-.928-.313-1.392-.099-.445-.135-.348-.604-.348H113.253c-.58 0-1.121-.396-1.638-.639-1.435-.67-2.567-1.011-4.12-1.333-.854-.178-1.7-.354-2.551-.528-.604-.129-1.131-.667-1.622-1.016-1.026-.717-1.826-.479-3.089-.437-2.104.077-4.199.15-6.303.229-1.08.039-2.242-.043-3.309.167-.609.123-1.223.243-1.834.366l1.059 5.093c-1.115 0-.877.245-.996 1.333-.09.83-.436.605-1.248.677-.979.087-1.951.171-2.93.255-.961.084-.764.15-.764 1.151 0 .963-.291 1.624-.626 2.537-.649 1.771-1.299 3.535-1.948 5.302a16748.54 16748.54 0 0 1-3.515 9.57c-.14.372.396.729.624 1 .41.497.373.609.373 1.253v5.896c0 .221-.148 1.183 0 1.354.121.146.883.146 1.074.181.347.059.543.383.783.623.316.317 1.258-.409 1.625-.087.563.499 1.162 1.26 1.819 1.614.591.323 1.306.316 1.899.674.897.545.719 1.129.82 2.174.105 1.029 3.188.324 3.223 1.138.041.852.078 1.705.115 2.559.025.561.242 1.438.08 1.979-.404 1.342-1.222 2.854-1.474 4.204-.218 1.167.553 3.153-.229 4.095-.754.898-.836.936-.804 2.005l.685 22.517.111 3.771c.018.464-.126.707.35.708 3.115.014 6.231.021 9.352.036 4.333.017 8.666.03 12.999.051l-.216-10.08 4.811.014c.781.001 1.789.339 2.236-.366 1.713-2.709 3.427-5.417 5.141-8.121 2.129-3.367 4.262-6.733 6.391-10.101.457-.721.912-1.438 1.369-2.163.104-.163-.387-1.033-.451-1.201-.371-.933-.746-1.862-1.118-2.798a3.56 3.56 0 0 0-.102-.268" />
    <path id="14" name="Tucumán" fill="#bb007d" stroke="#CCC"
      d="M94.52 85.866c.021-.243.289-3.166.16-3.187-.757-.126-1.218.063-1.218-.752 0-.716-1.075-.276-1.333.141-.158.249-.622 1.255-.865 1.255-.504 0-.929.015-1.408-.115-1.235-.338-2.813-.502-3.959-1.081-1.018-.513-1.151-1.98-2.401-1.98-.824 0-.81.277-1.24.998-.137.226-1.435.058-1.687.058h-2.077c-.274 0-.78.614-.994.807-.354.316-.797 1.054-1.229.72a908.39 908.39 0 0 0-1.683-1.313c-.678.938-1.726 1.813-1.664 2.995.05.972.097 1.943.146 2.916.035.713.031.662.664 1l2.375 1.267c.488.263.738 1.107.996 1.575.355.646.145 1.229.049 1.953-.065.551-.854.784-1.092 1.259-.338.682-.678 1.354-1.018 2.032-.419.838-.391.897-1.311 1.085-.459.091-.211 1.508-.211 1.925 0 .938-.012.865.834 1.288.688.348 1.199.448 1.511 1.145.276.63.59 1.216.723 1.892.31 1.548.841 2.584 1.604 3.981.656-.875.64-.85 1.709-.67.543.087-.26 1.262.119 1.644.74.746.771.956 1.791.807.848-.118 1.082-.601 1.662-1.241.572-.643.646-1 1.487-.881.487.07 1.556.613 1.923.469 1.436-.576 2.241-1.813 2.834-3.199.254-.592.2-1.274.244-1.912.055-.808.26-1.387-.227-2.032-.512-.686-1.073-.983-.688-1.766.401-.806.688-1.282 1.316-1.91.55-.551.805-1.063 1.157-1.768.349-.693.162-1.371.865-1.793 1.074-.643.178-.648.432-1.655.144-.563 1.255-1.396 1.646-1.828.731-.82.117-3.073.058-4.129" />
    <path id="12" name="Santa Fe" fill="#bb007d" stroke="#CCC"
      d="M126.973 147.38c1.043 1.75 2.191 3.419 3.33 5.108.338.501.904 1.036.692 1.703-.205.64-.407 1.28-.612 1.921l-2.473 7.797a554.407 554.407 0 0 0-.962 3.027c-.237.745-.464.7-1.249 1.018.234.413.813 1.063.854 1.532.063.705.121 1.411.184 2.115.146 1.732.3 3.472.443 5.208.026.313 1.379.968 1.652 1.146.454.307.289.935.309 1.452.051 1.278-.25 3.196.229 4.396.323.813.649 1.631.979 2.444.082.201.764 1.464.646 1.647-.435.68-.856 1.354-1.288 2.037-2.111 3.338-4.228 6.678-6.34 10.019-1.841 2.906-3.679 5.813-5.519 8.714 3.299-.035 6.6-.067 9.896-.107.498-.004 2.675.306 3.057-.046.785-.727 1.567-1.444 2.354-2.166 2.949-2.726 5.902-5.442 8.854-8.163.482-.442 1.154-1.468 1.849-1.307.916.22 1.832.433 2.746.646.66.156.566.03.896-.565.896-1.615 1.799-3.232 2.692-4.853.388-.69-.311-1.295-.604-1.897-.252-.521-1.046-1.021-1.455-1.455-.561-.594-1.089-.904-1.41-1.693-.812-2.003-1.855-4.074-.938-6.176.531-1.229-.407-1.966.037-3.07.771-1.027.666-1.747.188-2.818-.549-.816-.056-2.079-.056-2.98 0-.936.362-1.926.575-2.828.131-.56.479-.298.979-.536.612-.285.938-.9 1.466-1.293.518-.377.78-.996 1.368-1.289.775-.386 1.646-.506 1.859-1.53.286-1.473 1.791-1.213 2.483-2.333.654-1.054 1.24-2.059 1.732-3.202.783-1.8 2.684-3.412 3.066-5.359.311-.762-.514-1.115-.514-1.818 0-.653.385-1.223.379-1.877-.002-.658-.379-1.276-.349-1.941.039-.905.871-1.317 1.603-1.655-.388-.62-.431-1.063-.271-1.771.172-.798.006-1.584.256-2.387.262-.857.758-1.646.229-2.487-.227-.366-.614-.762-.686-1.199-.084-.526.525-1.167.807-1.556.408-.813.066-1.455-.146-2.276-.078-1.028.51-.938 1.129-1.539.5-.483.642-1.185 1.32-1.515.256-.198.547-.291.772-.544.398-.449.469-1.104.873-1.561.604-.682 1.938-.832 1.631-2.034-.346-1.426 1.156-1.698 1.238-2.896.215-.896.033-1.805.414-2.688.203-.934-.506-1.625-.107-2.521.313-.69.556-1.201.238-1.944-.281-.666-1.293-1.505-.51-2.197.711-.628 1.828-.396 2.453-1.212.479-.629.77-1.758.914-2.526-12.693-.263-25.385-.525-38.074-.792-.164-.003-.813-.132-.842.071-.104.698-.199 1.396-.305 2.093-.482 3.361-.974 6.725-1.453 10.082-1.094 7.546-2.185 15.092-3.271 22.636a47.789 47.789 0 0 1-.237 1.79" />
    <path id="4" name="Corrientes" fill="#bb007d" stroke="#CCC"
      d="M212.236 114.291c-.06-.596-.117-1.189-.178-1.79-.058-.563-.463-.979-.773-1.439-.313-.479-.506-1.061-.734-1.577-.277-.624-.572-.643-1.223-.901.107.045.016-3.128-.006-3.333-.023-.316-.055-.641-.08-.962-.02-.248.291-.136.439-.281.145-.141.266-.517.479-.478.323.059.521.126.821-.021-1.252-.196-2.791-.816-3.953-.24-1.524.761-2.899 1.246-4.551 1.716-1.131.325-2.699-.271-3.858-.502-.677-.14-1.134-.248-1.802-.145-.784.128-1.594.336-2.391.325-.496-.007-1.314.154-1.736-.125-.311-.206-.272-.522-.438-.813-.191-.342-.477-.439-.809-.603-.854-.417-1.012-.488-1.9-.166-.605.217-1.393.126-2-.017-.551-.152-.762-.744-1.385-.913a9.33 9.33 0 0 1-1.449-.265c-1.01-.264-2.02-.292-2.986-.623-1.313-.708-2.217-.053-3.463.313-1.109.328-2.367-.455-3.391.104-.178.096-.824.313-.828.53-.008.454.061.448-.389.518-.854.125-2.166.167-2.729.874-.313.393-.151.477.063.881.328.618.041 1.148.15 1.773.063.37-.025.634-.117.998-.095.376.233 1.055.278 1.46.203 1.932-.032 5.394-2.163 6.121-.568.194-1.589.273-1.638 1.073-.031.521.444.914.672 1.34.226.426.392.903.302 1.396-.14.744-.974 1.376-.347 2.163.401.52.084 1.063-.08 1.582-.229.722-.229 1.487-.272 2.237-.049.771-.646 1.011-1.021 1.581-.49.733.137 1.686-.363 2.338-.479.606-1.33.68-1.707 1.402-.324.646-.537 1.366-1.242 1.698-.789.566-1.248 1.617-2.135 2.021-1.27.577.119 2.108-.18 3.061-.188.595-.766.98-.943 1.587-.229.772.777 1.34.896 2.063.186 1.102-.736 2.277-.68 3.446.033.608-.303 1.22-.174 1.803.17.789.438.705.182 1.477-.246.729.762.854 1.373 1.165.717.354 1.074.521 1.859.568.786.055 2.09.483 2.629-.171.414-.511 1.188-1.973 1.873-2.019.77-.054 2.321.161 2.987-.225.463-.268.933-.533 1.396-.806.275-.16 1.289.255 1.604.325.884.2 1.554.6 2.009 1.354.459.768 1.721.283 2.549.209.321-.026 1.336 1.47 1.586 1.771.688.823 1.369 1.646 2.055 2.468.695-1.28 1.322-2.596 1.994-3.879.521-.984 1.359-1.381 2.131-2.105.477-.441.619-1.159.975-1.695.313-.48.693-.634 1.16-.912 1.346-.483.924-2.011 1.836-2.777.594-.502 2.797-.552 2.492-1.716.074-.44-.178-.81.436-1.035.383-.141.764-.275 1.146-.42.438-.159.865-.373 1.195-.706.26-.256.604-.481.945-.606.516-.178.438-.624.745-.949.252-.271.543-.104.845-.195.354-.114.373-.426.543-.702.196-.313.502-.443.731-.724.261-.314.265-.651.42-1.005.24-.543.789-.751.998-1.36.283-.842 1.188-.895 1.584-1.639.396-.442.606-.684 1.19-.881.523-.183 1.132-.404 1.367-.955.313-.73.451-1.08.992-1.696.385-.44.67-.968.996-1.451.313-.461.643-.939 1.139-1.229.582-.353.021-1.263.666-1.46.426-.125 1.467-.39 1.332-1.031-.104-.463-.102-1.814.664-1.179.422.351 1.099.795 1.652.47.645-.379.068-1.272-.133-1.729-.172-.383-.531-1.088.146-1.238.635-.145 1.178-.347.922-.979-.308-.821-.49-1.017-1.197-1.543" />
    <path id="10" name="San Juan" fill="#bb007d" stroke="#CCC"
      d="M26.648 180.469c.391-1.358 1.011-2.305 1.672-3.531.416-.771.83-1.542 1.246-2.316.162-.296 1.83.025 2.162.046.992.068 1 .19 1.494-.672.535-.937.774-.744 1.86-.744.2 0 .125.735.261.855.156.142.879.096 1.086.118.104.012.817.021.828.131l.151 1.53c.08.813.606.824 1.341 1.188.891.443 1.021.367 2.004.1.939-.255 1.105-.181 1.48-1.059.422-.974.688-.742 1.755-.742.188 0 .521-.584.632-.726.296-.369.311-.334.798-.334.681 0 1.354.484 1.991.396.843-.121 1.33-.178 2.145.027 1.008.252 1.071.57 1.635 1.472.477.763 1.07-.017 1.547.438.148.143.158.79.199.998.033.164.949.175 1.112.191.405.053 1.433-.252 1.691-.122.548.273 1.487 1.023 2.09 1.052 1.763.068.812-2.617.681-3.665-.104-.84-1.085-.277-1.531-.791-.242-.282 0-1.601 0-2.048v-1.394c0-.326.521-.167.783-.167.653 0 1.258-.333 1.893-.451 1.221-.223 3.1-.896 4.14-.027.713.597.81.688 1.72.688h1.385c.406 0 .267-.199.267-.596 0-1.183.042-1.086-1.101-1.413-.588-.168-.779-.852-.834-1.446-.025-.3.006-1.979-.246-2.081-.727-.291-1.457-.568-2.188-.848-1.487-.563-1.024-2.557-.81-3.759.229-1.243.238-2.709-.125-3.919-.188-.623-.281-1.241-.693-1.748-.471-.571-1.375-1.318-1.643-2.009-.23-.614-.143-1.55-.205-2.208-.039-.435-.984-.932-1.314-1.214-.373-.319-1.125-1.288-1.626-1.227-.448.057-.896.116-1.344.172-.349.044-.274-.563-.322-.847-.12-.709-.854-1.09-1.382-1.554-.604-.525-.387-1.203-.387-1.985 0-.224-.854-1.458-1.059-1.532-.217-.075-.771.155-1 .2-.318.063-.854-.217-1.16-.309-.588-.17-.531-.628-.697-1.208-.17-.591-.551-.466-.993-.834-.257-.216-1.204-.766-1.244-1.083-.026-.202-.128-1.646-.254-1.646-.404 0-1.304.183-1.651 0-.359-.188-.527-1.063-.964-1.063-1.243 0-2.463-.02-3.698.104-.492.049-.912.176-1.359-.024-.397-.178-1.217-.754-1.648-.711-.611.063-3.316.549-2.564-.951.211-.421.397-1.093.734-1.426.334-.336.975-.736 1.055-1.221.104-.611.244-.948-.027-1.492-.283-.564-.566-1.135-.854-1.704.635-.139 1.271-.281 1.905-.423-.401-.252-1.479-.652-1.694-1.063-.27-.496 0-1.873 0-2.438 0-.692.271-1.146-.463-1.214-.531-.049-1.785.127-1.942-.444-.08-.288-.396-2.058-.65-2.058-1.288 0-.516-.525-.974-1.48-.282-.599-1.021-1.172-1.458-1.673-.188-.222-1.709.052-1.992.064l-2.41.115c-.174.01-.075 1.808-.075 2.063 0 .658-.901.78-1.06 1.341-.166.584.541 1.377.401 1.989-.285 1.28-.313 3.078-1.137 4.122-.574.729-1.146 1.456-1.72 2.188-.435.55-.206.843-.054 1.538.16.726.322 1.447.482 2.17.146.659.258.502.957.502-.236.718-.476 1.435-.714 2.146-.229.687.306 1.271.618 1.896.688 1.381.418 3.246.479 4.766.041.973-.043.92.91 1.239.748.25.275 1.396.207 2.099-.053.534-1.203 1.211-1.591 1.557-.554.488-1.142.067-1.819-.129-.268 1.465-.533 2.931-.797 4.395-.104.563-.962.729-1.439.969-.551.276-.26 1.001-.229 1.574.036.596-.111 1.632.129 2.185.086.199 1.344 1.192 1.252 1.298-.531.601-1.061 1.194-1.592 1.795-.18.202-1.13-.778-1.354-.97-.45 1.099-.9 2.194-1.354 3.291-.324.788.178 1.983.327 2.789.073.393.302 3.152.658 3.271.229.076 1.211.254 1.226.495.037.691.076 1.388.112 2.077.062 1.081.157 1.873.468 2.902.26.864.405 2.637 1.17 3.183.146.104 1.238.758 1.199.898-.186.675-.365 1.35-.55 2.021-.185.669 1.358 1.709 1.835 2.182.158-.287.814-1.888 1.09-1.908.91-.042 1.819-.109 2.728-.179" />
    <path id="11" name="San Luis" fill="#bb007d" stroke="#CCC"
      d="M87.734 190.648c.262-.313 1.063-.961 1.063-1.362v-2.813c0-1.353.671-2.451 1.056-3.731.486-1.62.358-2.938.281-4.642-.011-.229.082-1.415-.164-1.468-.908-.185-1.813-.364-2.72-.55-.669-.136-.46-1.024-.522-1.642-.069-.711-.592-1.041-1.301-1.243-.746-.212-1.228-.306-1.795-.808-.521-.462-1.076-1.31-1.799-1.201-.25.035-.863.25-1.104.159-.228-.087-.396-.605-.633-.641-.563-.079-1.346 1.354-1.91 1.272-.563-.079-.453-1.272-1.252-1.272-.178 0-.808-.104-.902.063-.085.143-.487 1.01-.626 1.001-.854-.062-1.704-.115-2.558-.172-.156-.015-.578-.137-.623.047-.131.525-.041.741-.574.813-1.096.154-1.104.15-1.885-.628-.537-.533-1.435-.592-2.146-.786-.619-.169-1.214-.127-1.859-.127-1.043 0-1.17-.021-1.97-.688-1.04-.865-2.919-.192-4.136.031-.559.104-1.135.447-1.695.447-.133 0-.98-.051-.98.043v3.517c0 .331 1.445.146 1.531.838.09.717.178 1.435.258 2.15.021.186.226.932.119 1.088-.168.254-.904.159-1.057.426-.188.313.393 1.83.471 2.191.141.653.309 1.022.643 1.606.393.686.781 1.37 1.175 2.055.229.409-.872 1.113-.454 1.462.415.349 1.066.674 1.203 1.214.188.762.352 1.531.566 2.282.414 1.433.688 2.52.813 4.012.11 1.363 1.308 1.963 2.369 2.563-.354.351-1.123.803-1.002 1.32.155.688.188 1.917.575 2.506.33.495 1.375.912 1.877 1.247.242.161.726 1.354.621 1.635-.237.657-.75 1.512-.801 2.208-.047.622.271 1.51.424 2.12.367 1.479.941 2.786 1.576 4.164.41.889.41.685 1.332.313.146-.059 1.234 1.433 1.334 1.67.228.555.211 1.269.147 1.852-.106.957-.163 1.306.226 2.157.604 1.313 1.238 2.802 1.324 4.268.044.739-.232 1.616-.338 2.348-.132.917-.624.697-1.521.825-.422.063-.996 3.882-1.142 4.62-.354 1.752-.916 3.095-1.668 4.726 7.14-.07 14.28-.145 21.42-.219-.386-13.185-.772-26.368-1.161-39.553-.033-1.238-.07-2.475-.106-3.713" />
    <path id="no_def" name="CABA No Defined" fill="#CCC" stroke="#CCC"
      d="m171.053 210.185-1.988.519-2.467 3.422-.512 2.39 2.518 3.895 1.246-1.069.037-.132.137-.015.998-.882.711-.069.277.209.225-.019.207.218.177.077s.305.06.539-.183c0 0 .52.21.725-.03.05-.099.123-.14.123-.14s.338-.104.422-.077l.205-.125.021-.146-.162-.16.109-.069.146.038.301-.179-.022-.313-.238-.354.092-.158.373.498-.008.168.117.019.024-.185.113-.103.099.183.104-.035-.086-.115.107-.036.18.183.143-.049-.232-.255-.25-.036.006-.29-.301-.042-.035-.108.168.007.443-.586-.117-.729-.258-.105-.236.086-.282-.041-.063-.28.188-.022-.062-.179.129-.067.043-.165-.397-.432-.277.146-.848-1.009.084-.105-.326-.713-.319-.371-.168-.009-.308-.279-.026-.144-.152-.005-.689-.798-.389-.174-.319-.471z" />
    <path id="0" name="CABA" fill="#bb007d" stroke="#CCC"
      d="m223.94 173.415-7.172 1.873-8.896 12.342-1.847 8.621 9.08 14.049 4.496-3.856.133-.476.493-.054 3.601-3.181 2.564-.249 1 .753.811-.067.746.785.638.278s1.1.216 1.945-.661c0 0 1.874.758 2.612-.107.18-.357.445-.505.445-.505s1.218-.375 1.521-.278l.74-.451.073-.526-.584-.576.395-.25.523.137 1.087-.644-.081-1.131-.859-1.275.33-.571 1.346 1.796-.027.606.422.069.089-.668.408-.371.355.66.373-.127-.31-.413.387-.131.647.661.516-.178-.839-.919-.901-.131.021-1.043-1.084-.152-.127-.391.606.024 1.598-2.114-.422-2.627-.93-.38-.853.31-1.018-.148-.229-1.009.68-.079-.223-.645.466-.243.155-.595-1.434-1.557-1 .526-3.058-3.64.303-.38-1.177-2.571-1.153-1.338-.604-.031-1.109-1.008-.096-.52-.549-.017-2.486-2.878-1.402-.627-1.135-1.701z" />
  </g>
</svg>