<svg version="1.2" xmlns="http://www.w3.org/2000/svg" viewBox="0 0 255 537" width="255" height="537">
	<title>image-svg</title>
	<style>
		.s0 { fill: none;stroke: #cccccc } 
		.s1 { fill: #0072bb;stroke: #cccccc } 
		.s2 { fill: #cccccc;stroke: #cccccc } 
	</style>
	<g>
		<path class="s0" d="m224 216.9c-13.6 0-24.6-11-24.6-24.6 0-13.6 11-24.6 24.6-24.6 13.6 0 24.6 11 24.6 24.6 0 13.6-11 24.6-24.6 24.6z"/>
		<path fill-rule="evenodd" class="s0" d="m199.4 192.3h-7.9l-17 20.1"/>
	</g>
	<g>
		<path class="s1" d="m171.4 203.7c-1.2-0.3-2-1.1-3.3-1.2-0.4-0.1-0.9 0-1.3-0.3-0.5-0.4-0.9-1.1-1.6-0.6-0.4 0.2-2.6-2.1-3.2-2.3-0.5-0.2-1.4-0.2-1.7-0.7-0.4-0.6-1.5-0.8-2.1-1.3-1-0.9-2.5-1.2-3.4-2.1-0.5-0.5-0.5-1.4-1.2-1.6-0.8-0.2-1.4-0.3-1.9-1.1-1.4-2-2.4 1.2-2.9 2.2q-0.2 0.3-0.4 0.6-0.1 0.3-0.3 0.6-0.2 0.3-0.3 0.6-0.2 0.3-0.4 0.6c-0.3 0.6-0.3 0.5-1 0.4-0.9-0.3-2.5-1.1-3.3-0.4q-4 3.8-8.1 7.5-1.8 1.7-3.6 3.4c-0.6 0.5-0.7 0.5-1.5 0.5l-11.3 0.2c-0.9 0-7.2 0.1-7.2 0.2q0 1.2 0 2.4-0.3 20.2-0.5 40.3-0.3 23.4-0.6 46.8c0 0.7-0.4 8.2 0.1 8.2 0.7 0.1 1.4 0.1 2.1 0.3 0.9 0.2 1.1 0 1.9-0.3 0.7-0.3 1.1-0.8 1.7-0.1 0.4 0.6 0.9 1.1 1.1 1.9 0.2 0.5 0.3 1.6 0.7 2q0.5 0.4 1 0.9c0.3 0.3 0.4 0.1 0.9-0.1 0.6-0.4 1.3-0.2 1.9-0.5 0.3-0.2 0.5-0.6 0.8-0.8 0.2-0.2 0.9-0.1 1.1-0.1 1.1 0 0.6-1.1 0.9-1.8 0.3-0.8 0.6-1.7 0.8-2.6 0.1-0.7 0.3-0.8-0.2-1.1-0.6-0.3-0.7-0.5-1.1-1-0.2-0.5-0.5-0.6-1-0.9-0.2-0.1-0.2-0.8-0.3-1-0.2-0.9-0.7-1.7 0.1-2.4 0.3-0.4 1.6-1.7 1.4-2.2-0.3-0.9-0.7-1.8-0.1-2.7 0.3-0.5 0.4-0.6 1-0.9 0.4-0.2 0.9 0.3 1.2 0.5 0.2-0.8 0.3-1.3 0.1-2-0.2-0.5 0.3-1.5 0.4-2 0.2-0.6 0.4-1.2 0.4-1.8v-1.5c0-0.5-0.3-0.4-0.8-0.5-0.9-0.2-0.7-0.6-1.1-1.3-0.5-0.7-1-0.8-1.2-1.7-0.1-0.7-0.1-1.4-0.1-2.1 0-0.6-0.4-1.1-0.4-1.7 0-0.2-0.1-2.1 0-2.1h1.3c0.5 0 0.5 0.1 0.6 0.6 0.3 0.5 1 1.1 1.6 1.1 0.4 0 0.7-0.2 0.9 0.2 0.2 0.3 0.3 0.8 0.7 0.9 0.8 0.1 1.2 0 2.1-0.3 1-0.3 1 0.3 1.7 0.6 0.3 0.2 1.1 0 1.4 0h3.3c1.5 0 2.8 0.1 4.3-0.1 0.6-0.1 1-0.4 1.6-0.6 0.9-0.3 1.3-0.3 2.2-0.2 1.1 0.1 1.1 0.2 1.9-0.6 0.4-0.4 1.2 0.1 1.8 0.1 1.4 0 2.8-0.2 4.3-0.2 1 0 1.2 0.1 1.6-0.8 0 0 2-0.4 2.2-0.5 1.3-0.4 2.9-0.2 4.2-0.2 1.3 0 2.9-0.3 3.8-1.3 0.4-0.3 1.3 0 1.8-0.2 0.8-0.4 1.5-0.7 2.3-1 0.6-0.2 1.5-0.1 2.2-0.1 0.6 0 0.9-1 1.4-1 0.9-0.2 1.3-0.3 2-0.7 0.5-0.4 1.2-1 1.8-1 1.6 0 2.7-0.1 3.9-1.1 0.6-0.4 1.1-0.9 1.6-1.4 0.4-0.4 0.5-1.5 0.7-2 0.4-1.3 0.6-2.7 1.4-3.9 0.4-0.6 0-1.2 0.6-1.6q0.2-0.2 0.5-0.3 0.2-0.2 0.4-0.4 0.3-0.2 0.5-0.4 0.2-0.2 0.4-0.4c0.6-0.6 0.9-0.9 1.2-1.7 0.2-0.6 0.7-1.2 1.3-1.5 0.9-0.4 1-0.7 1.5-1.6 0.4-0.5 0.7-1.1 1.1-1.6 1.5-1.8 1.5-3.9 2-6.2 0.2-1 0.1-2.1-0.1-3.1-0.2-1-0.2-2-0.4-3-1.4 0.4-2.8-0.3-4.2-0.6-0.1 0-0.9-1.3-1.1-1.5-0.5-0.6-0.9-1.2-1.3-2-0.3-0.5-0.7-1.2-0.7-1.8 0-0.7 0.5-1.4 0.6-2.1 0.1-0.9 0.3-1.2 0.9-1.9 0.3-0.5 0.5-1.4 0.9-1.8 0.3-0.2 0.5-0.6 0.8-0.8 0.2-0.1 0.8-0.2 0.9-0.4 0.2-0.5-0.4-1.5-0.7-1.9-0.8-1.2-1.2-2.7-2.2-3.8-1-1.2-2.2-2.1-3.4-3-0.5-0.3-0.9-0.7-1.5-1-0.8-0.3-1.3-0.6-2-1.2-0.6-0.5-1.2-1-2-1.2-1.1-0.3-2-0.3-2.5-1.3-0.4-0.8-0.9-1.5-1.4-2.3-0.4-0.7-1.5-1.1-1.8-1.9-0.1-0.4-0.5-0.9-0.2-1.3 0.3-0.6 0.5-0.7 0.4-1.4-0.2-0.5 0.3-0.5 0.5-0.9 0.2-0.3 0-1.1 0-1.4 0-0.2 1-0.6 1.2-0.7 0.2-0.1-0.2-1.2-0.2-1.4-0.1-0.6-0.1-0.5-0.7-0.4-0.7 0.1-1.4 0.3-2.1 0.2zm-139.7-83.5c0.1 0.3 0.1 1.4 0.2 1.5 0.6 0.4 0.8-0.4 1 0.5l0.5 1.8c0.1 0.2 1.5 0.2 1.7 0.2 0.5 0 0.7-0.1 0.7 0.4v2.3c0 0.3-0.2 0.9 0.1 1q0.8 0.5 1.6 1-1 0.2-1.9 0.5c0.5 1 1.6 2.5 0.5 3.6-0.6 0.6-0.9 1-1.2 1.8-0.1 0.1-0.5 0.6-0.4 0.8 0.2 0.2 0.5 0.8 0.8 0.7 0.6 0 1.6-0.3 2.1-0.1 0.6 0.3 1.4 0.8 2.1 0.7 0.7 0 1.4-0.1 2-0.1 0.6 0 2-0.3 2.5 0 0.8 0.4 0.5 1 1.5 1 0.2 0 1-0.1 1.1 0 0.2 0.2 0.1 1.1 0.2 1.4 0 0.6 0.8 0.9 1.2 1.4 0.3 0.1 0.6 0.3 0.9 0.4 0.2 0.1 0.3 0.9 0.3 1.1 0.2 0.6 1 0.8 1.6 0.8 0.3 0 0.7-0.1 1-0.2 0.2 0 0.6 0.7 0.7 0.9 0.5 0.7 0.5 1 0.5 1.9 0 0.7 0.9 1.2 1.4 1.7 0.3 0.2 0.5 1.5 0.5 1.4 0.9-0.1 1.4-0.3 2.1 0.2q0.8 0.7 1.7 1.4c0.8 0.7 0.7 1 0.8 2 0 0.8 0.1 0.9 0.6 1.6 0.4 0.5 1.2 1.1 1.4 1.8 0.2 0.6 0.6 1.4 0.6 2v2.6c0 0.6-0.2 1.3-0.4 2-0.1 0.7 0.3 1.3 0.5 2 0.2 0.4 1.3 0.6 1.7 0.8 0.9 0.3 1.1 0.2 1.2 1.1 0.1 0.7 0.1 1.4 0.3 2.1 0.1 0.3 0.2 0.6 0.5 0.7 0.2 0 1.1 0.1 1.3 0.3 0.2 0.3-0.4 1.6 0.1 1.8 0.5 0.1 1.8 0.2 2.2 0.6 0.3 0.3 0.7 0.9 1.1 1 0.3 0.1 1-0.1 1.4-0.2 0.3 0 0-0.9 0.4-0.8l1.7 0.1c0.3 0 1.1 0.2 1.3 0.1 0.3-0.2 0.4-1.1 0.7-1.1 0.2 0 1.2-0.1 1.3 0.1q0.4 0.6 0.8 1.2c0.6-0.6 1-1.4 1.9-1.3-0.3 0-1.3 0-1.3-0.4v-7.7c0-0.4-0.6-1-0.9-1.3-0.2-0.2 0-0.4 0.1-0.7q0.8-2.1 1.6-4.3l4-10.9c0.9-2.5-0.3-4.5-1.2-6.9-0.1-0.3-1.1 0.2-1.4-0.3-0.3-0.7-0.5-1.2-0.6-1.9q-0.1-0.6-0.2-1.2-0.1-0.5-0.2-1.1-0.1-0.5-0.3-1.1-0.1-0.5-0.2-1.1-0.2-1.1-0.5-2.2c0-0.3-1.9-0.7-2.2-0.8-0.4-0.2 0.2-1.1-0.2-1.4q-1.1-0.9-2.2-1.7c-1.1-0.9-2.8-1.2-4.1-1.7-0.7-0.2-0.6-0.2-0.5-1 0.1-0.4 0.5-2.1 0.2-2.2-0.4-0.1-1.4-0.3-1.6-0.7q-0.6-1.1-1.3-2.2c-0.5-0.9-1-3-2.2-3-0.7 0-3.6-0.4-4 0.1-0.3 0.4-0.7 1.4-1.2 1.6-0.4 0.3-1.6 0.1-2.1 0.2-0.7 0-0.9 0.1-1.5-0.3-0.5-0.4-1-1-1.6-0.9-0.6 0.1-1.2 0.1-1.7 0.4l-2 1.3-1.1-3.1c-0.4-1.1-0.4-1-1.7-1-0.8 0-2.3 0.3-3 0l-1.8-1c-0.5-0.3-0.7-0.2-1.3 0l-0.2-3.3c0-0.6-1.3-1.3-1.8-1.1l-3.7 0.6c-1 0.2-1.7-0.3-2.5-0.7-0.2 0.7-0.3 2-0.7 2.6-0.2 0.3-1 0.5-1.3 0.7-0.3 0.2-0.4 0.5-0.6 0.8-0.6 0.7-1 2.1-2 2.1-0.6 0-0.5 0-0.7 0.5q-0.2 1-0.4 1.9c-0.2 0.9-1.2 1-2 1.4-0.6 0.3-0.4 0.4-0.2 1 0 0.1 0.6 0 0.8 0q1.7-0.1 3.5-0.2c0.5 0 1.3 1.3 1.6 1.7zm210-27.6c-1.1-1-0.4-2.3 0.1-3.4 0.5-1.1 0.8-1.2 0.3-2.2q-0.6-1.2-1.2-2.3c-0.2-0.4-0.1-0.8-0.2-1.2-0.4-0.7-1-1.2-1-2.1-0.1-1.2-0.2-1.9-1-2.9-0.2-0.4-0.6-0.7-0.9-1-0.7-0.6-0.9 0.2-1.5 0-0.6-0.1-0.2-1.3-0.7-1.3-0.8-0.2-0.4 1-0.8 1.1-0.7 0-1-0.5-1.5 0.2-0.5 0.5-0.8 1.4-1.7 0.9-0.8-0.6-2.2-1.7-2.8-0.1-0.2 0.8 0.3 1.9 0.2 2.7-0.1 0.8-0.1 1.5-0.3 2.2-0.3 1.2-0.9 1.6-0.7 2.9 0.2 1 0 1.5-0.6 2.3-0.5 0.8-0.7 1.7-0.9 2.6-0.2 0.9-0.2 2-0.8 2.8-0.4 0.6-1.1 0.6-1.5 1.1-0.5 0.5-0.7 0.9-1.4 1.2-0.4 0.2-1 0.4-1.3 0.7-0.7 0.4-0.6 1-1 1.4-0.6 0.7-1.8-0.3-2.7 0.6-0.6 0.6-1.2 1.2-2 1.7-0.8 0.5-1 1.9-1.7 2.7-1.2 1.7-3.4-0.5-4.6 1.1-0.4 0.5-0.1 1.5-0.1 2.1 0.1 0.7 0 1.4-0.1 2.1 0 0.1 0.7 0.3 0.8 0.4 0.3 0.1 0.3 0.3 0.5 0.6 0.3 0.7 0.6 1.4 1.1 2.1 0.4 0.7 0.4 1.3 0.5 2.1 0.1 0.8 0.6 1 1.2 1.5 0.3 0.2 0.6 0.5 1 0.5 0.9-0.1 1.1-0.6 1.9-1.1 0.9-0.5 1.2-1.6 2.1-2.2 0.9-0.7 2.1-0.6 3-1.2 0.4-0.3 0.9-0.5 1.4-0.8 0.6-0.5 0.8-1.4 1.5-1.8 0.6-0.3 1.4-0.1 1.8-0.8 0.3-0.3 0.4-1.1 1.1-0.9 0.5 0.1 0.9 0.6 1.4 0.2 0.5-0.4 0.3-0.7 0.9-0.8 0.4 0 0.6-0.6 1-0.8 0.5-0.3 0.8 0 1.4 0 0.8 0.2 1.1-1 1.9-1.2 0.5-0.2 1-0.1 1.5-0.5 0.4-0.3 1.1-0.8 1.4-1.2 0.1-0.1 0.2-0.6 0.5-0.6 0.4 0.1 0.6 0.5 1 0.1q0.5-0.4 0.8-0.9c0.3-0.4 0.5 0 0.8 0 0.8 0.6 1.2-1 1.1-1.5-0.1-0.8-0.5-1 0-1.8q0.6-0.7 0.9-1.5c0.4-1.3 1.1-2.7-0.1-3.8zm-217.8 296.4q-2 0-4 0c-0.3 0-1-0.1-1.2 0.1-0.4 0.4-1.2 0.4-1.5 0 0.5 0.5 0.4 0.7 0.5 1.5 0.5-0.2 1.2 0.3 1.3 0.8 0.1 0.3 0.1 1.7 0 1.8-0.4 0.2-0.4 0.9-0.9 1.3-0.5 0.4-1.7-0.1-1.7 0.7 0-0.3 0.8 0.8 0.6 0.6 0.3 0.2 0.6 0.2 1 0.2 0.7 0.1 0.4 1.5 0.3 1.9-0.4 1.2 0.9 2.4 1.1 3.7 0.1 0.7 0.5 1.1 0.2 1.7-0.1 0.3-1.1 1.7-1.4 1.7-1-0.2-0.8 0-0.9 0.8-0.1 0.6-0.6 1.3-0.1 1.7 0.4 0.3 0.6 0.4 0.6 0.8 0 0.3-0.4 0.5-0.4 0.7 0.1 0.7 0.9 0.3 0.9 1.2-0.1 1 0 1.3-1 0.8-0.5-0.3-0.2 1.4-0.3 1.6-0.2 0.4-0.5 0.4-0.7 0.8-0.3 0.6-0.3 0.7-1 0.8-0.7 0.1-0.7 0.1-1 0.7-0.4 0.6 0 0.4 0.2 1 0.3 0.6 0 1.6-0.1 2.2-0.1 0.3-0.3-0.1-0.2 0.4 0.1 0.3 0.1 0.3 0 0.6 0 0.2-0.4 0.6-0.5 0.9-0.1 0-0.2 0-0.3-0.1-0.3 0.5 0.1 0.5 0 0.7 0 0.5-0.3 0.5-0.3 1 0 0.4-0.2 0.5-0.2 0.9 0.1 0.1 0.7 0.2 0.9 0.3 0.5 0.3 0.5 0.2 0.6 0.8 0 0.2 0.2 0.2 0.3 0.3 0.3 0.1 0.2 0.3 0.2 0.5 0.2 0.4 0.3 0.6 0.4 1 0 0.5-0.2 0.7-0.1 1.2 0.1 0.3 0.6 0.5 0.6 0.8 0.1 0.2 0 0.7-0.1 0.8-0.1 0-0.7 0.3-0.7 0.3-0.7 0.1 0.1 0.4 0.1 0.6-0.1 0.3-0.3 0.3-0.4 0.5-0.1 0.2 0.6 0.5 0.2 0.8-0.4 0.2-0.6 0.5-1.1 0.4-0.4 0-0.4-0.4-1-0.3q0.3 1.1 0.7 2.1c0.2 0.6-0.1 1.3 0.2 1.9 0.1 0.4 0.3 0.6 0 0.9-0.2 0.4-0.6 0.4-0.9 0.7-0.3 0.4-0.7 1.5-1 1.8-0.7 0.4-1.3-0.6-1.8 0.1-0.2 0.4-0.1 0.6-0.2 1-0.1 0.1-0.3 0.1-0.4 0.2 0 0.1 0.2 0.2 0 0.4-0.3 0.3-0.3 0.3-0.3 0.8 0.1 0.3-0.1 0.8-0.1 0.9 0.1 0.2 0 0.9 0.2 1.1 0.2 0.3 0.6-0.1 0.8 0.4-1.2 0.2-2.2-0.2-3.4-0.4-0.3-0.1-0.9-0.4-1-0.1-0.1 0.5-0.4 1.3 0.4 1.2-0.1 0.6 0.6 0.9 0.3 1.5-0.1 0.3-0.2 1.6-0.2 1.7-1.2 0.1-0.4 0.2-0.5 1.1 0 0.2 0.4 0.4 0.5 0.5 0.3 0.2 0.2 0.5 0.2 0.8-0.1 0.2-0.2 0.1-0.2 0.5 0.1 0.6 0.3 0.4 0.5 0.8 0.3 0.6-0.1 0.8-0.1 1.4 0.1 0.5 0.2 0.5-0.2 0.6-0.3 0.1-0.2 0.6-0.1 0.7 0.3 0.4 0.6 0.6 0.2 0.9-0.3 0.2-0.5 0.2-0.4 0.7 0.6-0.1 1.2 0.4 0.9 1-0.3-0.1-0.8 0.2-0.5 0.5 0.2 0.3 0.5 0.9-0.2 0.8 0.2 1 0.4 1.5 1.3 1.8 0.2 0.1 0 0.9 0.1 1.2 0.1 0.1 0.4 0.1 0.5 0.3 0 0.1 0 0.7 0.2 0.8 0.1 0.1 0.5-0.1 0.6 0.1 0.1 0 0.2 0.5 0.2 0.7 0.1 0.3 0.1 0.2 0.4 0.2 0.3 0.1 0.1 0.3 0.2 0.5 0.1 0.1 0.5-0.1 0.5 0.1q0 0.5 0 0.9c0 0.3 1.1-0.1 1 0.6-0.1 0.6-1 0.1-0.6 0.9 0.2 0.4-0.3 0.7 0.1 1.2 0.5 0.8 1.3-1 1.6-1.1q0.4-0.1 0.8-0.3c0.2 0 0-0.3 0.1-0.5 0.1-0.1 0.3-0.1 0.4-0.3 0-0.3 0-0.3 0.2-0.5q0.6-0.4 1.1-0.9c0.1-0.1 0.4 0.1 0.4-0.1 0-0.3 0-0.5 0.4-0.4q-0.1 0.1-0.1 0.3c0.4 0 0.5 0.4 0.9 0.2 0.3 0 0.1 0.6 0.7 0.3q-0.1-0.3-0.2-0.7c0.6 0.1 0.2-0.6 1-0.6 0.2 0.1 0.4 0.5 0.6 0.6 0.2 0 0.5-0.3 0.7-0.3-0.1 0.3 0 0.6 0.5 0.6-0.2 0.4-0.6 1.1-0.2 1.5 0.4 0.4 0.5 1 0.9 1.4 0.3 0.3 0.1 1.4 0.1 1.8 0.1 0.7-0.6 0.5-1 0.3 0 0.6 0 1.1-0.1 1.7 0-0.1 0.7 1.4 0.7 1.4 0.2 0 0.7-0.3 0.7 0 0.1 0.2 0.3 0.8 0.1 1-0.3 0.2-1.1 1.4-0.2 1 0.1 0.5-0.1 1 0 1.3 0.4 0.6-0.3 0.6-0.2 1.3-0.1-0.1-0.3-0.1-0.5-0.2 0 0.5-0.3 1.6 0.5 1.5 0.3 0-0.1-0.5 0.5-0.4 0.2 0 0.3 0.9 0.3 1.1 0.2 0.8 0.7 0.6 1.4 0.8 0.6 0.3 1.3 1.2 1.8 1.6 0.2 0.2 0.5 0.3 0.5 0.5 0 0.2-0.2 1-0.2 0.9 0.1 0.3 0.6 0.5 0.8 0.6 0.2 0.3 0.3 0.9 0.5 1.1 0.5 0.2 2-0.1 2.5-0.1l12.2-0.5q2.3-0.1 4.6-0.2c1.1-0.1 1.6 0.3 2.6 0.7 1.2 0.6 1.8 0.9 3.1 0.9 0.8-0.1 2.9-0.6 3.6-0.1 0.9 0.7 2 1.7 3.1 2.1q1.1 0.3 2.1 0.7c0.8 0.3 1.1 0.1 0.8 0.9 0.5-0.2 0.6-1.6 0.3-2-0.3-0.4-0.7-1.1-1.1-1.4-0.4-0.3-0.7-1.1-1.1-1.6q-0.2-0.2-0.3-0.4-0.2-0.2-0.3-0.4-0.2-0.2-0.3-0.4-0.2-0.2-0.3-0.4c-0.1-0.3-0.5-0.7-0.6-1q0-0.1-0.1-0.3 0-0.1-0.1-0.2 0-0.1-0.1-0.2-0.1-0.2-0.1-0.3c-0.4-0.5-0.7-1.3-1.1-1.8-0.3-0.5-0.4-1-0.7-1.5-0.1-0.1-0.3-0.3-0.5-0.4-0.3 0-0.1 0.3-0.3 0.4 0 0.1-1.5 1.3-1.6 1.1-0.1-0.4 0.8-0.5 0.3-1.1-0.1 0-0.6-0.3-0.7-0.4-0.3-0.2-0.6 0.1-0.9-0.1-0.5 0-0.7 0-1.2 0.3-0.2 0.1-1 0.2-1.2 0.5 0.3-0.5 0.5-0.6 1-0.6 0.4 0 0.7-0.7 1.1-0.7 0.4-0.1 0.9 0.4 1.3 0.3 0.2 0.1 0.7 0.4 1 0.4 0.4 0 0.5-0.7 0.8-0.7 0.4-0.3 0.8 0.7 0.9 0 0-0.5-0.3-1-0.5-1.4-0.3-0.5-0.4-1.1-0.5-1.7-0.4-1-0.6-1.8-1-2.7-0.4-0.8-0.2-1.8-0.5-2.6 0-0.1-0.3-1.1-0.5-0.6-0.1 0-1 0.6-1 0.6-0.3 0.2-1.1 1.9-1.6 1.6-0.1-0.2 1.2-1.6 1.4-1.9 0.1-0.2 0.5-0.7 0.9-0.7 0.4 0 0.3-0.7 0.6-0.8 0.1-0.1 0.2 0.3 0.2 0.2 0.5-0.9-0.6-2.3-0.2-3.3 0.4-0.9 0.4-1.9 0.7-2.9 0.1-0.5 0.3-0.9 0.5-1.4 0.1-0.3 0-0.6 0.2-0.8 0.2-0.2 0.5-0.6 0.6-0.8 0.1-0.6 1.8-1.7 2.4-2 0.3-0.2 0.8-0.1 1.2-0.5 0.2-0.2 1.3-0.5 1.4-0.7 0.2-0.6 0.2-1-0.7-1-0.6 0.1-0.8-1.2-1-1.6-0.5-0.7-0.5-0.6-1.3-0.4-0.6 0.2-1.4-0.1-2 0.1-0.2 0.1-1.1 0.5-1.2 0.7-0.1 0.1-1 1.3-0.9 1.3-0.3-0.2 0.8-1.5 1-1.6 0.3 0 0.8-0.5 1.2-0.6 0.4 0 0.8-0.1 1.2-0.1 0.4-0.2 2.3-0.2 1.4-1-0.3-0.2-0.4-0.8-0.5-1.1-0.1-0.2-0.7-0.9-0.8-1 0.3 0.2 0.8 0.3 0.9 0.7 0.2 0.3 0.3 0.8 0.6 0.9 0.4 0.7 0.8 1 1 1.8 0.1 0.2 0.3 1 0.7 1 0.3 0 0.4 0.7 0.6 0.8 0.2 0.5 2.1-0.4 2.5-0.6 4.6-1.8 5.6-6.9 5-11.3-0.1 0.2-0.7 1.3-0.9 1.2-0.8-0.3-0.5-0.7-0.5-1.5 0-0.4 0.7-0.9 1-1.2 0.3-0.3 0.2-1.1 0.4-1.5 0.3-0.4 1-0.7 1.1-1.2 0.2-0.5 0.3-1.1 0.4-1.7 0.1-0.3 1.3-0.1 1.5-0.3 0.3-0.2 0.6-1 0.8-1.4 0.2-0.5 0.4-1 0.7-1.6 0.4-0.6 0.6-0.7 1.4-1 0.5-0.2 1-0.4 1.6-0.5 0.6-0.2 0.7-0.8 1.1-1.3 0.5-0.9 1.5-1.7 2.5-1.9 0.6-0.1 1.1-0.4 1.7-0.7 0.4-0.2-0.1-1.2-0.2-1.6 0.9-0.1 1.2 0 1.4-0.9 0.1-0.3 0.6 0.1 0.7-0.2 0.1-0.6 0.1-0.7 0.6-0.9 0.8-0.4 1-0.8 1.5-1.5 0.1-0.3 0.6-0.4 0.8-0.6 0.4-0.2 0.5-0.5 0.6-0.9 0.2-0.3-0.3-1.5-0.6-1.7-0.6-0.4-1.1-0.7-0.6-1.6 1-1.4 1.3-2.5 1.3-4.2 0-0.5 0.5-1.4 0.4-1.7-0.4-0.8-0.4-1.3-0.4-2.3 0-0.1-0.7-0.5-0.8-0.6-0.2-0.2-0.1-0.7-0.3-0.9-0.4-0.3-1.7 0.1-2.2 0-1.3-0.2-2.8-0.3-4.1-0.1-0.8 0.1-1.4-0.1-2-0.5-0.5-0.5-0.7-1.2-1.4-1.4-0.8-0.3-1.3-0.6-2-1-0.2-0.2-0.6-0.4-0.8-0.6-0.3-0.3-0.4-0.8-0.6-1.1-0.5-0.5-1.2-0.6-1.5-1.2-0.1-0.2-0.3-0.9-0.5-0.9-0.5 0-0.6 0-1-0.3-0.7-0.4-1.2-0.6-1.5-1.3-0.4-0.8-0.7-1.3-0.8-2.2-0.2-1.4-1.1-2.4-1.1-3.8 0-0.6 0.5-2.1-0.4-2.1q-1.3 0-2.6 0.1-5.4 0.1-10.8 0.2c-8.9 0.2-17.9 0.6-26.9 0.5z"/>
		<path class="s1" d="m88.7 218.6l0.3 15.3-38.6 0.6q-0.7 0-1.5 0c0 0 0 3.5 0 3.9q0.4-0.2 0.9-0.5 0.3 9.7 0.6 19.4v0.7c0 0.1 1.7 0.5 1.9 0.5 1.4 0.2 2.8-0.3 4.2 0.3 0.8 0.4 0.8 0.7 1.1 1.7 0.1 0.5-1.4 0.2-1.5 0.8-0.3 0.7-1.9 3.1-1.3 3.8l1.7 1.8c0.2 0.3 0.9-0.5 1.4-0.1 1.2 1 2.4 2 4 2.1 0.5 0 1.4-0.2 1.9-0.4 1.2-0.5 1.1-0.4 1.9 0.6 0.8 1 2.4 1.6 3.5 2.1 0.6 0.3 1.2 0.9 1.7 1.3 0.6 0.4 1.6 0.5 2.2 0.7 0.7 0.3 0.2 1 0 1.7-0.1 0.5 1.1 1.4 1.4 1.8 0.3 0.3 1.6 0.2 2.1 0.3 0.6 0 1.5-0.4 2.2-0.6 0.5-0.1 1.2 0.3 1.8 0.6 0.9 0.4 1 0.4 1.9 0 0.5-0.2 0.8-0.5 1.3-0.3q0.9 0.3 1.8 0.7 0.3-0.7 0.5-1.4c0.2-0.5 0.5-0.3 1-0.2 1.1 0.1 1.9-0.1 3-0.3 1.7-0.3 3.9-0.1 5.5 0.4q-0.4 0.9-0.9 1.7c0.9 0.1 1.8 0 2.6 0.5 0.7 0.3 2.1 1.5 2.9 1.4 0.4-0.1 1.3-0.3 1.7-0.2 0.5 0.1 1 0.9 1.4 1.1 0.7 0.7 1.4 1.4 2 2.1l0.9-1.5c0.3-0.4 0.9 0.2 1.4 0.4 0.9 0.6 1.7 1.1 2.6 1.7q0.3-18.6 0.6-37.2 0.2-13.6 0.5-27.2-11.3 0-22.6-0.1z"/>
		<path class="s1" d="m22.8 241.3c0.2 1.3 0.6 2.3 1 3.5 0.2 0.4 1.2 0.3 1.5 0.4 0.4 0 1-0.5 1.3-0.7 0.3 1 0.3 2.2 1.3 2.6q0.9 0.4 1.9 0.7c0.4 0.2 0.5 0.9 0.9 1 1 0.3 2.3 0.5 2.7 1.7 0.1 0.2 0.2 1.5 0 1.7-0.2 0.2-1.1 0.5-1.5 0.6 0.6 0.5 1.2 1.2 1.9 1.3 1 0.1 1.7 0.1 2.8 0 1.1-0.2 3.9-0.4 4.6 0.8 0.2 0.3 0.3 0.9 0.7 0.9 0.4 0 0.9-0.1 1.3 0q0.4 0 0.7 0.1 0.3 0 0.7 0 0.3 0.1 0.6 0.1 0.4 0 0.7 0c1.6 0 3.1 1.4 4.5 2l-0.6-20q-0.5 0.2-0.9 0.4c0-0.4 0-3.8 0.1-3.8q1.6-0.1 3.2-0.1 6.2-0.2 12.3-0.3 1.5 0 3.1-0.1c0.3 0 1.2-2.7 1.4-3.3q0.4-2.3 1-4.6c0.1-0.6 0.1-1.4 0.7-1.5 1.2-0.1 1.1 0 1.3-1.2 0.1-0.5 0.4-1.4 0.2-1.9q-0.2-1.2-0.5-2.5c-0.3-1.2-1.2-2.1-1.1-3.4 0.1-0.7 0.1-1.2 0-1.9-0.1-0.8-0.7-1.3-1.1-1.9-0.3-0.4-1.3 0.2-1.3 0.2q-0.5-1.1-1-2.3c-0.5-1-0.8-2.2-1-3.3-0.1-0.5-0.4-1.2-0.2-1.7 0.1-0.4 0.9-1.7 0.7-2.1-0.2-0.4-0.3-1.3-0.7-1.5-0.4-0.2-1.7-0.9-1.8-1.2q-0.3-1.3-0.6-2.5c-0.1-0.5 0.7-1 1-1.3-1.3-0.8-2.3-1.4-2.4-3-0.1-1.5-0.5-2.7-0.9-4.1-0.1-0.4-0.2-1.8-0.5-2.1q-0.5-0.4-1-0.8c-0.4-0.3-0.2-0.4 0-0.8 0.4-0.9 0.2-0.9-0.2-1.7-0.4-0.6-1-1.3-1.1-2l-0.6-2.4c-0.1-0.8-0.6-0.8-1.4-1.2-0.8-0.4-0.9-0.4-1.8-0.2-0.4 0.1-1.7 0-1.8-0.4-0.2-1-0.3-0.8-1.4-0.8-0.4 0-0.8-1.5-1.1-1.7-0.3-0.3-1.5-0.5-1.9-0.4-1 0.1-1.4 0.1-2.4-0.2-0.7-0.3-1.2-0.1-1.6 0.5-0.2 0.2-0.3 0.5-0.7 0.5-0.2 0-1-0.2-1.3 0-0.4 0.3-0.2 1.4-0.7 1.5-0.5 0.1-1.9 0.8-2.3 0.6q-1-0.5-2-1c-0.4-0.2 0.1-1.8-0.3-2.2-0.2-0.3-1.8 0.1-1.9-0.3-0.1-0.3 0-0.7-0.4-0.7-0.3 0-1-0.2-1.3 0-0.3 0.2-0.5 1.5-0.9 1.4l-2.9-0.2c-0.6 0-1.5 2.5-2 3.2-0.3 0.7-0.7 1.2-0.9 1.9-0.3 1.1-0.5 0.9-1.6 1-0.8 0-1.3-0.1-1.7 0.5-0.2 0.5-0.9 1.2-0.6 1.8 0.7 1.1 2 2.4 1.9 3.8q-0.2 1.4-0.3 2.8c-0.1 0.7-0.8 1-0.9 1.6-0.1 0.5 0.5 1.6 0.7 2.1 0.2 0.8 1.1 0.1 1.7-0.1 0.6-0.2 1.1 0.7 1.5 1.1 0.7 0.6 0.5 0.6 0.1 1.5l-0.9 2.5c-0.3 0.6-0.1 1.3 0 1.9 0 0.8 0.1 1.1-0.2 1.9-0.3 0.6-0.6 1.1-0.5 1.8 0.1 0.7 1.1 4.2 0.6 4.6-0.4 0.3-1.3 0.6-1.4 1.2-0.1 0.5 0 1.7-0.4 2.1q-1.2 1.4-2.5 2.7c-0.3 0.3 0.5 3 0.6 3.5 0.1 0.7-1.2 1.7-1.3 2.5q-0.2 1-0.4 2c0 0.2-1.3 0.6-1.5 0.6-0.3 0.2-0.2 1.1-0.2 1.4 0 0.4 1.1 0.5 1.5 0.6 0.9 0.4 0.7 2.2 0.9 3.2 0 0.4 0.5 0.9 0.7 1.3 0.2 0.4 0 1-0.1 1.4q-0.2 1-0.4 1.9c0 0.1-1.3 0.2-1.5 0.3 0.3 0.4 1.1 0.9 1.1 1.5l-0.2 2.8c-0.1 0.6 1 1.1 1.2 1.6 0.2 0.6 0 1.7 0 2.3zm101.4-215.7c-0.6-1.1-0.9-1.5-1.9-2.2-0.2-0.1-1-0.4-1.1-0.6q-0.1-0.9-0.3-1.9c-0.1-0.8-1.3-1-1.4-1.8-0.1-0.6 0-2-0.8-2l-7.9 0.1q-1.2 0.1-2.5 0.1c-0.3 0-1.3 2-1.5 2.3-0.2-0.7-0.4-2.3-1.2-2.3-0.4 0-1-0.2-1.2 0.2-0.2 0.5-0.3 0.9-0.7 1.3-1.2 1.7-1.7 3.7-2.4 5.7q0.8 0.1 1.7 0.2-0.6 1.1-1.1 2.2c-0.2 0.4-0.9 0.8-1.1 1.3q-0.7 2.3-1.4 4.6c-0.5-1.3-1.3-2.5-1.3-3.8 0-1.5-0.3-2.8-1.9-3-0.7-0.1-1.3 0-1.7-0.6-0.4-0.5-1.2-1.3-1.5-2-0.1-0.5 0.1-1.2-0.1-1.7-0.3-1-0.4-1.4-1.2-1.9-1.4-0.7-3.1 0-4.6 0.2-1 0.1-1.2 2.3-1.5 3.1q-0.9 2.3-1.7 4.6c-0.1 0.3 0.6 1.1 0.7 1.5 0 0.8-0.1 1.8 0.6 2 0.9 0.4 1.3 1.3 2.2 1.7 0.6 0.2 0.8 0.1 0.7 0.7q0 1.1-0.1 2.2c-0.1 0.9-0.3 1.8-0.3 2.7 0.1 0.5 0.3 1 0.4 1.5 0 0.3 0.1 1.3 0.3 1.5 0.4 0.3 2.3 0.5 2.8 0.3q0.9-0.4 1.8-0.7c0.2-0.1 1 0.5 1.2 0.6 1.1 0.6 1.9 0.9 3.1 1.2 0.7 0.2 2.1-0.7 2.7-1v6.3c0 0.7 0.1 1.5 0 2.2-0.1 0.9-0.5 1.9-0.8 2.8-0.2 0.6-0.3 2.1-1 2.1-0.2 0-1.3-0.1-1.4 0q0 0.2-0.1 0.4-0.1 0.1-0.2 0.3-0.1 0.2-0.2 0.4 0 0.2-0.1 0.4c-0.1 0.2-0.2 0.8-0.6 0.8q-0.9-0.1-1.8-0.2c-0.6-0.1-1.4-1.3-1.8-1.7q-0.7 0.9-1.4 1.8c-0.3 0.3-1.8 0.1-2.2 0.1-0.8 0-0.5-0.9-0.6-1.6-0.1-0.5-1.3-0.5-1.8-0.3-0.2 0.1-0.5 0.6-0.8 0.6-0.3 0-0.6-0.5-0.9-0.6-0.6-0.2-1.8 0.3-2.5 0.3-0.9 0.2-1.8-2.2-2.2-2.9q-0.3-0.6-0.6-1.1-0.3-0.5-0.6-1-0.3-0.5-0.7-1.1-0.3-0.5-0.6-1c-0.2-0.4-1.6 0.1-1.9-0.2-0.2-0.2 0.2-0.9 0-1.1-0.1-0.2-0.9-0.3-1.2-0.4-0.1 0-0.1-0.8-0.1-1 0-0.2 0.7-0.1 0.7-0.3q0.1-1.2 0.2-2.4 0.1-1.1 0.2-2.2c0-0.1-2-0.2-2.2-0.2-0.4-0.1-0.8-0.9-1.1-1.2-0.2-0.3-1.3 0.1-1.7 0.2-0.6 0.1-0.5 0.2-0.6 0.8q-0.2 1.4-0.3 2.7c-0.1 0.3-0.4 1.5-0.2 1.7 0.2 0.3 1.3 0.1 1.2 0.5q-0.3 2.4-0.5 4.7c-0.2 1-2.1 1-3 1.2-1.2 0.3-2.3-0.3-3.4-0.7-0.3-0.1-0.6-0.6-0.8-0.7q-0.9-1-1.8-2-1.4-1.4-2.8-2.8-0.4 1-0.7 2.1c-0.2 0.3-0.3 1.2-0.6 1.3q-1.7 0.9-3.4 1.8-5.1 2.5-10.2 5.1c-1 0.5-1.5 1.4-2.3 2.3-0.3 0.3-0.9 0.8-1 1.3q-0.4 1.3-0.8 2.5c-0.2 0.5 1.7 2.4 2.1 3.1q0.6 1.1 1.2 2.1c0.1 0.1-0.2 0.6-0.2 0.7q0.6 0.2 1.1 0.4c1 0.4 2.1 1 3.2 1.1q2 0 4.1 0 6.2 0.1 12.4 0.1l3.3 0.1c0.3 0 0.4 1 0.4 1.3 0.2 0.5 1.2 0.9 1.2 1.3q-0.1 1.3-0.2 2.5c0 0.4-1.5 0.8-1.9 0.9-0.4 0.2-1.2 0.3-1.4 0.7q-0.8 1.2-1.5 2.4l-0.1 0.2c0.9 0.3 2.9 0.5 3.3 1.4q1.4 2.4 2.7 4.9c0.3 0.5 0.9 0.4 1.5 0.4 1 0.1 0.8-0.2 1.2-1.2 0.4-1.5 1.1-2.7 1.9-4l3.4 2.9c0.1 0.1 1.3-1.1 1.4-1.2 0.7-0.6 1-0.4 1.9-0.4h2.4c0.1 0 0.5-0.8 0.5-0.9 0.2-0.3 0.6-0.2 1-0.2 0.7 0 1.1 0.8 1.5 1.3 0.4 0.6 0.6 0.7 1.3 0.8 1.6 0.5 3.1 1.1 4.8 1.1 0.2 0 0.9-1.4 1.1-1.7 0.1-0.1 0.8 0 1 0 0.2 0-0.1 0.8 0.1 0.8 1.3 0.3 1.5 0.1 2.7-0.6l4.9-2.8q2.7-1.6 5.4-3.1c0.8-0.4 1.6-1.1 2.5-1.4 2.2-0.8 3.3-2.8 4.8-4.6q4-4.8 8-9.7 1.6-1.9 3.1-3.7c0.2-0.3 0.8-0.7 0.8-1.1q0.1-8.4 0.2-16.8l0.2-9.6q0-1.2 0-2.3c0-0.7-1.4-1.2-1.9-1.5z"/>
		<path fill-rule="evenodd" class="s1" d="m133.1 73.6l-0.2 10.6q-0.3 11.9-0.6 23.7c-0.1 3.8-0.7 7.5-1.2 11.2q-1.8 12.1-3.5 24.1-0.3 1.7-0.5 3.3c-0.1 0.8 0 0.9-0.8 0.9q-1.5 0-3.1 0c-0.6 0-1.1-0.3-1.7-0.6-0.8-0.4-0.5-1.2-0.5-2.1 0-0.6-0.6-0.9-1-1.3q1.1-0.6 2.2-1.1c-0.6-0.4-1.2-0.9-1.8-1.3-0.4-0.2-1.4-0.5-1.5-1q-0.2-0.8-0.4-1.6c0-0.3-0.5-0.1-0.8-0.1h-4.6c-0.5 0-1-0.5-1.5-0.7-1.3-0.6-2.4-0.9-3.8-1.2q-1.4-0.3-2.8-0.6c-0.6-0.1-1-0.6-1.5-0.9-1.1-0.8-1.5-0.7-2.8-0.6l-9.8 0.4c0.2-0.7 1.5-2.9 1.2-3.4-0.3-0.4-1.1-1.1-1.2-1.6q-0.2-0.9-0.4-1.9c-0.2-1.3-0.3-2.6-0.4-3.9 0-0.7 0-0.7-0.7-0.9-0.4-0.1-1.6-0.1-1.9-0.4-0.2-0.3-0.1-1.8-0.1-2.2q-0.1-0.1-0.1-0.3 0-0.2 0-0.4 0-0.2 0.1-0.4 0-0.2 0-0.4c0.1-1.4 0-2.4-0.2-3.8-0.3-1.5-0.2-2.3 0-3.8 0.1-0.4 0.4-1.2 0.3-1.6q-0.4-0.9-0.8-1.8c2.2-0.9 3.1-2.9 3.3-5.2 0-0.3 0.2-1.3 0-1.6q-0.5-0.8-1.1-1.5c-0.4-0.6 1.1-2.2 1.5-2.6q0.2-0.2 0.3-0.4 0.2-0.2 0.4-0.4 0.1-0.3 0.2-0.5 0.2-0.2 0.3-0.5c0.2-0.7 0.1-1.3 0.8-1.7 0.5-0.3 0.7-0.3 0.6-0.8-0.1-0.2-0.3-0.8-0.2-0.9l1.7-1.8c0.7-0.8 0.1-3.1 0-4.1 0-0.4 0-3.1 0.4-3.3q4.5-2.6 9-5.1 2.2-1.3 4.4-2.5c0.8-0.5 1.6-0.7 2.3-1.2q11.3-0.1 22.5-0.2zm-39.8 447.6c-0.2 0.2-0.1 0.4-0.1 0.6 0 0.4-0.1 0-0.2 0.2-0.2 0.1 0.5 0.2 0.2 0.4 0 0.1-0.2 0.4-0.2 0.5 0 0.2 0.1 0.6 0.1 0.8-0.1 0.2-0.5 0.3-0.5 0.5 0.1 0.3-0.2 0.1 0.1 0.6 0.1 0.3-0.3 0.3-0.3 0.4-0.4 0.7-0.6 0-0.7-0.2-0.3-0.3-0.4-0.6-0.8-0.1-0.2 0.4 0.4 0.4-0.1 0.8-0.1 0.1-0.4-0.2-0.6 0-0.1 0.1-0.3 0.4-0.3 0.4-0.4 0.2-0.7 0-0.8-0.3-0.4-0.6-0.1-0.3-0.7-0.4-0.5 0-0.5-0.4-1 0-0.1 0.1-1.1-0.2-1 0 0.4 0.4 0.4 0.3 0.1 0.8-0.4 0.1-0.5 0.6-1.1 0.6-0.4-0.1-0.7 0.2-1.1 0.2-0.3 0-0.7-0.3-1 0-0.4 0.4-0.2 0.4-0.1 0.7 0.1 0.3-1 0.6-1.2 0.5-0.3-0.1-1.2-0.4-1.4-0.6-0.2-0.2-0.6-0.2-0.8-0.3-0.2-0.2-0.1-0.6-0.4-0.6-0.4-0.2-1 0-1.4 0-0.6-0.3-1-0.3-1.6-0.5-0.4-0.1-0.9-0.2-1.3-0.2-0.3 0.1-0.3-0.1-0.4-0.1-0.1-0.1-0.2 0.2-0.3 0.2-0.1 0-0.6 0.1-0.5 0.1-0.2-0.1-1.1-0.6-1.2-0.5-0.1 0.1 0.2 0.2 0.2 0.3-0.2 0.1-1.1 0.3-1.3 0.3-0.3 0.1-0.7 0.1-1 0.1-0.6-0.1-1.1-0.3-1.7-0.3-0.7-0.2-1.5 0-2.2-0.2-0.3 0-0.5-0.4-0.9-0.3-0.5-0.3-0.2 0.7 0 0.4-0.3 0.4-0.6 0.1-0.8 0.2-0.1 0.1-0.3 0.3-0.5 0.4 0 0.1-0.6 0.5-0.5 0.2 0-0.4-0.6-0.2-0.6-0.1 0.1 0.1 0.3 0 0.3 0.1 0 0.2-1.2 0.6-1.4 0.6q-0.4-4.7-0.8-9.5-1-11.7-2-23.4l-0.2-2.2c0-0.5 1.4 1.1 1.5 1.3q0.1 0.1 0.3 0.3 0.1 0.1 0.2 0.3 0.1 0.2 0.2 0.3 0.2 0.2 0.2 0.4c0.3 0.4 0.8 0.7 1 1.2 0.2 0.5 1.3 2.5 1 3.1 0.1-0.1-0.6-1.6-0.8-1.7-0.4 0 0.1-0.5-0.3-0.5 0-0.1-0.4 0-0.5 0 0.1 0.2-1.4 2-1.5 2.3-0.3 1 0.2 2.1 1.3 2.3 0.8 0.1 2.3-0.5 2.8 0.4 0.5 0.4 0.5 0.9 0.7 1.6 0.1 0.4 0.5 0.9 0.6 1.4 0.1 0.8 1.1 1.5 1.7 2.1 0.3 0.2 0.6 0.6 0.9 0.9 0.2 0.2 0.6 0.2 0.7 0.3 0.2 0.6 0.2 0.8 0.9 0.9 0.2 0.1 0.4 0.2 0.6 0.1 0.6 0-0.1 0.6-0.1 0.5-0.5 0.5 0.6 0.9 0.8 1.2 1.1 2.1 4 2.3 5.4 3.8 0.8 0.6 2.2 0.7 2.8 1.4 0.2 0.1 0.3 1.3 0.8 1.3 0.3 0 0.9 0.7 1 0.9 0.5 0.6 1.4 0.3 1.8 0.9 0.2 0.3 1.2 0.8 1.6 0.9 0.4 0.1 1.1 0.1 1.4 0.4 0.4 0.2 1.4 0.1 1.6 0.6 0 0 0.9 0.2 1 0.3 0.2 0 0.4-0.1 0.7-0.2 0.5 0 1-0.4 1.5-0.4 0.2-0.1 0.2 0.2 0.4 0.1 0.2-0.1 0.1-0.2 0.3-0.2 0.2-0.1 0.7-0.4 0.8-0.4 0.1 0 0.6 0.2 0.7 0.2 0.2 0 0.4-0.1 0.6-0.1 0.2 0.1-0.6 0.7-0.6 0.7zm-31.2-24.2q0 0 0 0 0 0 0 0zm11.8 29.2q0 0 0 0 0 0 0 0zm43.9-215.8c0.3 3.2-3.9 4.2-6.4 4-1.5-0.1-2.9-0.2-4.3-0.5-0.7-0.2-1.4-0.4-2.1-0.6-0.2-0.1-0.2-0.7-0.2-0.9-0.1-0.3-0.5-0.2-0.9-0.2-0.6 0-0.8-1-1.5-1-0.6 0-1.4 0.1-2-0.2-1.2-0.9-2.5-1.4-3.7-2.2-0.9-0.5-1.2-0.6-2.2-0.7-0.1 0-0.9 0-1-0.1-0.2-0.2 0.2-0.8-0.1-0.9-0.8-0.3-1.3 0.3-2 0.7-0.6 0.3-1.3 0.4-2 0.6 0.7 1.5 1.1 3.4 1.1 5.1 0 0.9 0.3 1.4 0.5 2.3 0.2 0.7-0.1 1.7 0.3 2.2 0.7 0.8 1.1 1.2 1.1 2.2 0 0.4-0.3 0.5-0.6 0.8-0.3 0.2-0.2 0.3-0.1 0.7 0.2 1.5-0.4 3.1-0.5 4.6-0.1 0.3-2.3 0.2-2.6 0.2q-9 0.3-18 0.6-24.4 0.7-48.9 1.5-3.5 0.1-6.9 0.3c-1.1 0-2.4 0.4-2.8-0.8-0.2-0.6 0-1.4-0.1-2.1-0.1-1-0.4-1-1.3-1.5-0.2 0 0.5-1.8 0.6-2.1 0.1-0.5-0.3-1.5-0.4-2-0.1-0.5-1.5-0.6-1.5-1-0.1-0.7-0.3-1.4-0.2-2 0.4-1.5 0.2-2.8 0.2-4.3q1.1 0.3 2.2 0.6c0.5 0.1 1.2-0.2 1.7-0.3 0.7-0.1 1.1-0.1 1.7 0.1 0.6 0.1 0.9 0.6 1.6 0.7 0.7 0.1 1.3 0.1 2-0.1 0.5 0 1.1-1 1.5-1.3 0.4-0.5 0.5-1 0.7-1.6 0.1-0.2 0.6-0.3 0.6-0.5 0.1-0.1-0.2-0.7-0.3-0.8-0.5-1.3 1.2-2.6 2-3.3 0.9-1 2-1.6 3.1-2.3 0.6-0.3 1.2-0.2 1.9-0.2 0.5 0 1.1-0.6 1.5-0.8 0.5-0.4 0.9-0.5 1.2-1.1 0.3-0.5 0.6-1.5 1-1.9 0.3-0.2 0.8-0.2 1.1-0.4 0.3-0.2 0.5-0.7 0.6-0.9 0.4-0.6-0.2-1.4-0.4-2-0.5-1.2 0.6-2.7 1.8-3.1q1.1-0.3 2.2-0.7c0.1-0.1 0.7-0.2 0.7-0.4 0.1-0.2 0.1-0.7 0.3-0.8 1.3-0.8 2.6-1.6 3.9-2.5 0.7-0.4 1.2-0.9 1.8-1.4 0.7-0.6 0.6-0.9 0.7-1.8 0.2-1.7 0.7-2.6 1.5-4 0.7-1.1 2.3-2 3.3-2.7 1-0.6 2.9-0.5 4-0.5-0.4-0.9-0.6-1.7-1.2-2.4-0.2-0.4-1.4-1-1.4-1.3q0-2.6 0-5.2-0.1-6.1-0.2-12.2c1.6 0.4 2.9 0.5 4.5 0.5 0.9 0 1.3 0.2 2.1 0.6 0.4 0.1 0.8 1.5 0.4 1.6-1.2 0.4-1.3 0.4-1.7 1.6-0.2 0.6-0.8 1.1-0.9 1.8-0.1 1.1 0.1 1.1 0.9 1.9 0.7 0.9 0.7 1.1 1.7 0.7 0.5-0.2 1.5 0.9 1.9 1.2 0.5 0.4 0.9 0.5 1.6 0.7 1 0.3 1.3 0.2 2.3 0 0.3 0 1.6-0.6 1.7-0.5 0.9 1.1 1.9 1.9 3.2 2.6 1.3 0.6 2.3 1.6 3.7 2.1 0.6 0.2 1.8 0.2 1.6 0.9-0.2 1-0.4 1.2 0.2 1.9 0.7 0.8 0.8 1.1 1.8 1.2 0.8 0.1 1.3 0.2 2 0 0.7-0.2 1.4-0.6 2-0.3 0.6 0.2 1.6 0.9 2.2 0.9 0.5 0 1.5-1 1.9-0.8q1.1 0.4 2.1 0.8 0.3-0.8 0.6-1.5c0.1-0.4 0.9-0.1 1.1-0.1 1 0.1 1.9-0.1 2.9-0.3 1.7-0.3 3.8 0 5.4 0.4q-0.4 0.9-0.9 1.7c1 0.1 1.9 0.1 2.8 0.6 0.8 0.4 2 1.4 2.9 1.3 0.3-0.1 1.4-0.3 1.6-0.2q0.7 0.7 1.4 1.3c0.7 0.6 1.3 1.3 1.9 1.9q0.5-0.7 0.9-1.4c0.3-0.5 0.7 0 1.2 0.2 0.5 0.4 2.8 1.4 2.8 1.9v23.4c0 0.1 1.8 0.2 2 0.2 0.6 0.1 1 0.4 1.6 0.1 0.4-0.2 1.6-1 1.9-0.9 0.4 0.1 1 1.4 1.3 1.7 0.3 0.9 0.7 1.8 0.8 2.7z"/>
		<path class="s1" d="m40 107.7c0.8 0.4 1.7 0.5 1.7 1.4q0.1 1.5 0.2 3.1c0.4-0.1 0.7-0.3 1.1-0.1q0.9 0.5 1.9 1c0.7 0.4 2 0.1 2.9 0.1h1.5c0.2 0 0.3 0.6 0.3 0.8q0.6 1.6 1.2 3.3 1-0.7 2-1.3c0.6-0.4 1.3-0.3 2-0.4 0.4-0.1 1.4 1 1.7 1.2 0.4 0.3 2-0.1 2.4-0.1 0.9-0.1 0.9-0.1 1.4-0.8 0.5-0.7 0.5-1 1.3-1 0.9 0 3.6-0.5 4 0.3l2.7 4.7c0.3 0.5 0.8 0.6 1.3 0.8 0.9 0.3 0.4 1 0.3 1.8-0.1 0.5-0.4 1.2 0.1 1.4q1.4 0.5 2.8 1c1.4 0.5 2.4 1.4 3.6 2.3 0.4 0.3 0.3 0.6 0.3 1.1 0 0.7 0.6 0.6 1.2 0.8 0.3 0.2 1.1 0.3 1.2 0.6l0.4 2.1c0.5 2.2 0.7 4.5 1.6 6.5 0.2 0.4 1 0.2 1.3 0.2 0.2 0 0.4 1 0.5 1.2 0.2 0.5 0.7 2.8 1.3 2.8l4.3-0.4c0.5 0 0.4-0.7 0.4-1.1 0.1-0.9 0.1-0.8 1-0.8q-0.5-2.4-1-4.7c-0.1-0.7 0.4-0.6 1-0.9 0.7-0.4 1.2-0.4 1.5-1.2 0.1-0.2 0.9-1.7 0.8-2-0.4-0.4-1.2-1.1-1.3-1.7-0.3-1.5-0.6-2.8-0.7-4.3 0-0.4 0.1-1.9-0.1-2.2-0.4-0.4-1.9-0.5-2.4-0.6-0.6-0.1-0.3-3.3-0.3-3.9 0.2-1.7-0.1-3.1-0.4-4.8-0.2-1.3 0.3-2.7 0.5-4 0.1-0.3-0.6-1.2-0.8-1.5-0.3-0.5-0.7-0.9-1.3-0.9-0.6-0.1-0.9-0.4-1.3 0.1q-0.8 0.9-1.6 1.7c-0.2 0.3-1.1 0.3-1.5 0.3-0.2 0-1.1-0.9-1.1-1.1 0.1-0.6 0.5-1.4-0.2-1.5-1-0.1-0.9-0.1-1.5 0.7-0.8-1.4-1.3-2.5-1.6-4.2-0.2-0.6-0.5-1.2-0.8-1.8-0.3-0.7-1.3-0.9-1.9-1.2-0.6-0.3-0.4-0.9-0.4-1.6 0-1.1-0.2-1.3 0.9-1.5 0.5-0.1 0.8-1.2 1-1.7 0.3-0.7 0.6-1.2 1.1-1.8 0.7-0.7 0.7-1 0.8-1.9 0.1-0.8-0.5-1.4-0.9-2.1-0.2-0.4-0.9-0.6-1.4-0.9-0.2-0.1-1.9-0.8-1.9-1l-0.1-2.4c0-0.4-0.3-1.6 0-1.9l1.5-2.1c0.3-0.4-1-1.2-1.3-1.6q0 0-0.1-0.1c-0.7 1.3-1.4 2.4-1.9 3.8-0.2 0.8-0.1 1.6-1 1.5-0.6-0.1-1.4 0.1-1.7-0.5q-1.3-2.4-2.6-4.8c-0.5-0.9-2.4-1.2-3.4-1.4 0.7-1.1 1.2-2.6 2.4-3.1q1.2-0.5 2.4-0.9c0.3-0.2 0.2-1.9 0.2-2.2 0.1-0.8-0.2-0.9-0.9-1.4-0.2-0.2-0.3-1.8-0.5-1.8q-1.4 0-2.8 0l-12.4-0.1q-2.2-0.1-4.4-0.1c-1 0-1.8-0.4-2.8-0.8-0.3-0.1-1.5-0.8-1.8-0.7q-1.2 0.5-2.4 1c-0.3 0.2-0.3 3.3-0.1 3.7q1 2.5 1.9 5c0.5 1.4 0.7 2.6 0.9 4.1 0.1 0.5 0.3 0.9-0.1 1.3q-1.2 0.9-2.4 1.9c-0.5 0.4-0.5 0.3-0.4 1l0.5 3.1c0.2 0.8 0 0.9 0.8 1.1 0.9 0.3 1.1 0.2 1.5 1 0.3 0.6 2.3 3.3 1.7 3.8-0.4 0.3-2.2 2.2-2.6 2-0.6-0.2-2.8-1.3-3.3-0.8-0.9 0.9-2 1.5-2.3 2.8-0.2 0.8-0.3 0.9-0.9 1.4-0.6 0.5-0.6 0.5-0.6 1.3 0 0.8 0 0.9 0.5 1.4 0.4 0.4 0.3 0.5 0.1 1.1q-0.5 2-1 4.1c-0.1 0.4 2 0.8 2.5 0.8q1.9-0.4 3.8-0.8zm25.9-55.8c0.7-0.2 3.5-0.5 3.6-1.1q0.3-2.5 0.6-5c0.1-0.3-1.3-0.3-1.2-0.6q0.1-1.3 0.3-2.6 0.1-1.2 0.3-2.3c0-0.3 1.7-0.4 2-0.5 0.5-0.1 0.8 1.1 1.2 1.2 0.5 0.3 1.6 0.2 2.3 0.3 0 0-0.4 4-0.4 4.5 0 0.2-0.3 0.2-0.6 0.3-0.2 0.1-0.1 0.8-0.1 1 0 0.2 0.7 0.3 0.9 0.4 0.6 0.2 0.4 0.3 0.4 0.9 0 0.6 1.4 0.4 1.9 0.5 0.2 0 0.6 1 0.7 1.2q1.7 2.8 3.3 5.6c0.4 0.6 0.6 0.4 1.4 0.2 1.2-0.1 1.6-0.4 2.6 0.4 0.2 0.1 0.7-0.5 0.9-0.6 0.4-0.1 1 0 1.4 0 0.9 0 0 1.5 0.5 1.9 0.4 0.3 2.1 0 2.6 0 0.3 0 1.2-1.6 1.5-1.9 0.4 0.4 1.2 1.6 1.8 1.7q0.9 0.1 1.8 0.2c0.4 0 0.5-0.6 0.6-0.8q0.3-0.8 0.6-1.5c0.1-0.2 1.2 0 1.4 0 0.7 0 0.8-1.5 1-2.1 0.3-0.9 0.7-1.9 0.8-2.8 0.1-0.7 0-1.5 0-2.2v-6.3l-2.1 0.9c-0.7 0.3-1.4-0.1-2.1-0.3-0.6-0.1-1.3-0.6-1.8-1-0.9-0.4-0.9-0.5-1.9-0.1-0.7 0.3-1.1 0.5-1.8 0.4-0.5-0.1-1.9 0-2-0.5-0.3-1.7-0.6-3-0.4-4.7q0.1-0.9 0.1-1.8c0.1-0.8 0.5-1.5-0.4-1.8-0.8-0.4-1.1-0.6-1.6-1.3-0.6-0.7-1.2-0.2-1.3-1.2-0.1-0.8-0.2-1.3-0.5-2.1-0.2-0.6-0.3-0.7-0.1-1.3q0.9-2.7 1.8-5.5l0.8-2.4-4.5 0.1c-0.6 0-3.9 0.4-4.1-0.1-0.3-1-0.1-1.3-1.1-1.3-1.1 0-1.3 0.2-1.7-0.8-0.1-0.2-0.5-1.9-0.8-1.9-0.6-0.1-1.6-0.5-2.1 0-0.5 0.4-1.1 0.7-1.3 1.3l-0.8 2.9c-0.1 0.6 0 0.8-0.5 1l-3 0.8-2 0.5c-0.2 0.1-0.6 1.7-0.7 2q-0.5 1-0.9 2.1c-0.1 0.3-1.7 0.7-2.1 0.8-0.5 0.2 0.3 1.8-0.2 2.1q-1.4 1-2.9 1.9 1 1.5 2 2.9c0.5 0.7 0.9 0.9 0.6 1.8l-2.3 8.5c-0.1 0.3-0.6 1.5-0.4 1.8q1.3 1.4 2.7 2.7 1.2 1.4 2.5 2.7c0.5 0.5 2.1 0.7 2.8 0.9zm111.3 39.5c-0.6-0.3-1.5-0.6-1.8-1.2-0.6-0.9-0.9-1.3-1.8-1.9-0.8-0.5-1.3-0.6-2.2-0.8-0.9-0.2-1.3-0.6-2-1.2-0.5-0.4-0.4-1.4-1.2-1.5q-0.4-0.1-0.7-0.2-0.3 0-0.6-0.1-0.3-0.1-0.6-0.1-0.4-0.1-0.7-0.2c-0.9-0.3-1.2-0.8-1.5-1.6-0.3-0.8-0.9-1.1-1.5-1.6 0.5-0.5 1.2-0.8 0.8-1.4q-0.6-1-1.3-2c-0.9-1.2-1.9-2.2-2.9-3.3-0.4-0.6-1.1-0.8-1.7-1.1-0.7-0.3-1.3-0.7-1.9-1.1-0.4-0.3-0.6-1.1-0.9-1.6-0.4-0.7-0.7-1.1-1.4-1.6-0.9-0.5-0.9-0.7-1.8-0.3-1.1 0.6-1 0.5-1.9-0.4-0.4-0.4-1.3-0.6-1.8-0.8-0.6-0.2-0.7-1.2-1.3-1.3-1.5-0.3-2.5-1.4-3.4-2.5q-0.2-0.1-0.3-0.3-0.2-0.2-0.3-0.4-0.2-0.2-0.3-0.4-0.1-0.2-0.2-0.4c-0.5-0.9-0.7-1.1-1.6-1.7-0.6-0.3-1.5 0.4-2-0.2-0.6-0.7-1.3-1.2-1.2-2.1 0.2-1.3 0-1.2-1.1-1.9-0.7-0.4-1-1.2-1.6-1.8-0.5-0.6-1.3-0.3-1.9-0.8-0.9-0.7-1.3-0.6-2.4-0.6-0.3 0-0.8-0.5-1-0.6-0.4-0.3-0.5-0.2-1-0.2-0.9 0.2-1.5-0.3-2.3-0.7-0.1 1.7 0.3 3.5-0.8 4.8q-2.5 3-5 6l-9.5 11.5 22.5-0.2q-0.4 18.4-0.8 36.9 0 0.1 0 0.2l37.9 0.6c0.1 0 0.7 0.1 0.7 0 0.3-1.4 0.3-2.1 0-3.4 0-0.3 0-1.2 0-1.5 0.1-0.8 0.1-1.3-0.1-2-0.3-1.7 1.4-1.4 2.5-2 0.6-0.3 0.7-0.3 0.8-1q0-0.9 0-1.9c0-0.5 0.8-0.6 0.8-1 0-0.6-0.2-1.1 0.3-1.4 0.8-0.5 2.1-1.5 1.7-2.5-0.3-0.8-0.2-0.8 0.3-1.4 0.3-0.4 0.8-0.6 1.2-1q-0.6-0.4-1.2-0.8z"/>
		<path class="s1" d="m127.6 52.4c0.8-0.2 1.1-0.3 1.8 0.1 0.8 0.5 1.3 0.5 2.3 0.5 0.5 0 0.8 0.8 1.4 0.9 0.9 0.1 1.3 0.2 1.9 1 0.5 0.6 0.6 1 1.3 1.5 1 0.6 1.1 0.5 0.9 1.7-0.1 0.9 0.4 1.1 1 1.8 0.6 0.7 1 0.5 2 0.5 1.4 0 1.7 1.9 2.4 2.8 0.8 0.8 2 2.5 3.3 2.8 0.9 0.2 1 0.4 1.6 1.1 0.5 0.6 1.3 0.7 1.9 0.9 0.4 0.2 0.9 1.3 1.3 1 0.7-0.3 1.2-0.9 2-0.5 0.6 0.5 1.1 0.7 1.6 1.4q0.6 1 1.2 2c0.7 1.2 2.7 1.2 3.5 2.1 1 1.1 2.1 2.2 3 3.4q0.7 1 1.3 2c0.6 0.8 0 0.9-0.7 1.6 0.7 0.6 1.2 0.9 1.6 1.8 0.4 0.8 0.9 1.2 1.8 1.5 0.6 0.2 2.1 0.2 2.6 0.5 0.2 0.2 0.5 0.9 0.6 1.2 0.2 0.4 0.5 0.5 0.8 0.8 0.8 0.7 1.5 0.7 2.5 0.9 0.8 0.2 1.5 0.9 2.2 1.3 0.6 0.5 0.6 1.4 1.4 1.8q1.2 0.6 2.5 1.2-0.1 0.1-0.2 0.2c0.7 0.8 2.5-0.8 2.7-1.5 0.1-0.5 0.5-1.3 0.3-1.9-0.3-0.9-0.4-0.9 0.2-1.7q1.2-1.3 2.2-2.8c0.4-0.5 0.9-0.9 0.9-1.6 0-1 0.1-0.9 1-1.3-0.5-1.2-1.2-2.3-0.1-3.4 0.9-1 1.9-1.8 2.6-2.9 0.5-0.7 0.8-0.9 0.5-1.6q-0.1-0.3-0.2-0.5-0.1-0.3-0.3-0.6-0.1-0.2-0.2-0.5-0.1-0.2-0.2-0.5c-0.6-1 1.9-2.1 2.6-2.5-0.4-0.4-0.9-0.9-1.1-1.4-0.3-0.6-0.6-1.6-1-2-0.6-0.6-0.9-1-1.7-1-1 0-1.1-0.3-1.9-1.1-0.3-0.3-1.1-0.8-1.5-0.6q-0.2 0-0.4 0-0.1 0.1-0.3 0.1-0.1 0.1-0.3 0.1-0.1 0.1-0.3 0.1c-0.3 0.1-0.5-0.4-0.7-0.7-0.7-1-2.4-0.7-3.5-1.2-1.1-0.6-2.4-1.6-3.7-1.9-0.6-0.2-1.6-0.6-2.3-0.6-0.5 0.1-1.3 1.1-1.8 0.7-1.2-0.9-2.4-1.7-3.2-3q-0.1-0.2-0.3-0.4-0.1-0.3-0.3-0.5-0.2-0.2-0.3-0.4-0.2-0.2-0.3-0.4c-0.5-0.6-1.1-0.8-1.8-1.2-1-0.5-1.9-1.1-2.7-1.8-0.9-0.6-2.1-0.2-2.8-1.1-0.4-0.4-0.9-1.3-1.3-1.5-0.3-0.2-1.3 0.1-1.7 0.2-0.6 0.1-1.2 0.2-1.9 0.4-0.4 0.1-1.3-0.3-1.7-0.4-0.9-0.2-2-1.3-2.8-1.8q-0.4-0.3-0.7-0.5-0.4-0.3-0.8-0.5-0.3-0.3-0.7-0.6-0.3-0.2-0.7-0.5c-0.8-0.6-1.2-1.7-1.8-2.5-0.8-1.1-1.5-1.5-2.7-2.1q-0.4 0.7-0.7 1.4c-0.2 0.3-1-0.2-1.3-0.3-1-0.3-1.7-1-2.7-1.4-1.2-0.6-2-1-3-1.8-0.7-0.6-1-1.9-1.8-2.3-0.3-0.2-1.1-0.5-1.3-0.8-0.3-0.5-0.6-1-1-1.4-0.5-0.5-0.7-0.7-0.8-1.3-0.2-0.7-0.2-1-0.7-1.5-0.2-0.2-1-0.7-0.8-1 0.1-0.2 1.1-1.3 1-1.4-0.7-0.9-1.3-1.7-2.1-2.5q-0.1 7-0.2 14 0 4.3 0 8.6 0 1.1-0.1 2.2c0 0.6 1.2 0.8 1.7 1.1zm51.1 95c-0.3 0-2.2 0.4-2.3 0.1-0.5-0.8-1-1.4-2-1.6-1.1-0.3-1.6-0.6-2.6 0-0.9 0.5-1.7 0.5-2.8 0.6-1.2 0-1.2 0.2-2 1.1-0.8 1-0.8 1.3-2.1 1.2-1.6-0.1-4.3-0.3-4.8-2.2-1.9 0.9-0.5 2.3-0.8 3.7-0.1 0.6-0.5 1.2-0.3 1.8 0.3 0.7 0.7 1 0.4 1.8-0.8 2-2.3 3.7-3.2 5.7-0.5 1-1.1 1.9-1.7 2.8-0.4 0.6-0.8 0.6-1.4 0.8-0.8 0.4-0.7 1.3-1.2 2-0.5 0.7-1.3 0.6-1.9 1.1-0.5 0.3-0.8 0.9-1.3 1.3-0.4 0.4-0.8 1-1.5 1.2-0.7 0.1-0.6 0.1-0.8 0.8-0.4 1.6-1.2 4.2-0.2 5.7 0.5 0.8 0.1 1.8-0.4 2.6-0.4 0.4-0.1 0.7 0 1.2 0.6 0.8 0 1.6-0.3 2.4-0.3 0.9-0.1 1.9 0.2 2.8 0.5 1 0.6 2.1 1.2 3.1 0.3 0.7 1 1 1.5 1.6 0.3 0.6 1.2 0.8 1.3 1.5 0 0.7 1.1 0.9 1.5 1.4 0.6 0.7 0.8 1.3 1.8 1.6 1.3 0.3 1.5 1.6 2.7 2.2 1.5 0.6 2.6 1.8 4 2.5 0.6 0.3 0.9 0.7 1.5 0.9 0.8 0 1.4 0.5 2 1 0.4 0.4 1.2 0.7 1.5 1.3 0.1 0.4 1.3-0.1 1.7 0.4 0.8 0.8 1.7 0.6 2.8 0.8 0.7 0.2 1.1 0.7 1.8 0.9 0.7 0.3 1.5 0.2 2.2 0 1-0.3 0.6-1 0.4-1.9 0-0.5 0.2-1.1 0.1-1.6 0-0.6-0.1-1.1-0.2-1.7-0.1-1 0-2.1 0.6-3 0.5-0.9 0.7-1.6 0.8-2.6 0.1-0.6 0.3-2.2 1-2.4 0.6-0.2 1 0.1 1.6-0.1 0.4-0.2 0.8-0.5 1-0.8 0.8-0.9 0.6-2 0.1-2.9-0.2-0.4-0.4-0.9-0.1-1.4 0.2-0.5 0.8-0.9 0.2-1.5-0.8-1.6-1.1-3.3 0.2-4.8 0.5-0.6 1.1-1.3 0.9-2.3-0.2-0.9-0.7-1.9-0.4-2.9 0.2-0.8 0.7-1.7 0.5-2.5-0.1-0.4-0.5-0.8-0.2-1.2 0.2-0.4 0.7-0.6 1-0.8 1.3-0.9 1.7-2.6 0.7-3.9-0.4-0.5-0.1-0.6 0.1-0.9 0.6-0.4 0.5-1 0.5-1.6 0-0.6 0.1-1.2 0.1-1.9q0.2-1.9 0.5-3.9c0.2-1.1 0.7-2.5 0.5-3.6-0.1-1.1-1.2-2.2-1.9-3.1q-0.3-0.3-0.6-0.7-0.3-0.3-0.6-0.7-0.3-0.4-0.7-0.7-0.3-0.4-0.6-0.7zm-165.8 182.2c-0.1 0.2-0.6 1.9-0.7 1.9-1.1-0.3-1.3-0.5-2.2 0.1-0.8 0.5-0.6 1.1-0.7 2.1-0.1 0.6 1 1.2 0.7 1.8-0.4 0.8-0.8 1.3-0.6 2.1 0.1 0.7-0.2 1.3-0.1 2 0.3 1.7 0.2 3.1 0 4.8q0.9 0.1 1.9 0.2c0.4 0.1 0.3 1.2 0.4 1.5 1.3-0.2 1.4-0.1 2.4 0.8 0.6 0.4 0.7 1.8 0.1 2.4-0.2 0.3-1 0.4-1.4 0.5-0.6 0.2-0.6 0.4-0.8 1-0.2 0.5 1.7 1.1 2.2 1.3q-0.3 0.6-0.6 1.2c0.7 0 2.9-0.1 2.7 1.1-0.2 0.8-0.2 0.8-0.9 1.2-0.5 0.3-0.5 1.3-0.4 1.7 0.2 0.7 1 0.1 1.3 0.5 0.5 0.4-0.1 1.2-0.4 1.5-0.4 0.4-0.3 1.1-0.4 1.6 0 0.3-1.2 0.6-1.5 0.7 0.5 0.5 0.9 0.9 1.3 1.4 0.1 0.1 0.7 0.7 0.6 0.8q-0.4 0.6-0.8 1.2c-0.1 0.1 0.1 0.7 0.1 0.9 0.1 0.3 0.4 0.1 0.7 0.1 0.2 0 0.8-0.2 1.1-0.1 0.2 0 0.5 0.7 0.7 0.6 0.7-0.5 1-1 1.7-0.5 0.1 0.1 0.7 0.6 0.8 0.5l1-1c0.1-0.1 1.8-0.2 1.9-0.1 0.2 0.2 0 0.9 0 1.1 0.1 0.4 0.6 0.8 0.8 1.1 0.2 0.3-0.3 1.4-0.6 1.5-0.2 0-0.9 0.2-1 0.4-0.1 0.2 0.3 1 0.4 1.2 0.1 0.3-1.1 0.9-1.4 0.8-1-0.1-1.5-0.2-2.3-0.7-0.2-0.1-0.7 0.5-0.8 0.6-0.2 0.2-0.5 0.2-0.8 0.3-0.5 0.1-0.4 0.1-0.4 0.7 0 0.4-0.4 0.4-0.9 0.5-0.5 0.1-1.6 0.1-1.9-0.5-0.1-0.1 0.2-0.8 0.2-1 0.1-0.1-0.8-0.5-1-0.6-0.2-0.2-1 0.3-1.3 0.4 0.1 0.2 0.7 0.6 0.6 0.9-0.1 0.4-0.3 0.9 0 1.1 0.8 0.3 1.7 0.4 2.2 1.1 0.2 0.2 0.4 0.7 0.8 0.6 0.5-0.1 1-0.2 1.5-0.3 0.3-0.2 0.9-0.7 1.3-0.7 0.3 0 0.9 0.8 1.1 1 0.7 0.5 0.2 1.4 1.1 1.8 0.9 0.5 1.5 0.7 1.4 1.9-0.1 0.7-0.8 1.6-1.3 2.1-0.8 0.8-0.7 1.4-0.9 2.6-0.8-0.7-0.7-0.8-1.5 0-0.3 0.3 0 1.2 0.1 1.6q-0.7-0.1-1.3-0.2c0 0.7-0.2 1.6 0.1 2.2 0.1 0.1 0.6 0.8 0.5 0.8l-1 0.9c0.9 0.9 2.2 0.3 3.5 0.3 1.2 0 2.5 0.1 3.8 0.1q3-0.1 6-0.1 12.4-0.3 24.8-0.5 4.3-0.1 8.7-0.1c0.4 0 1.1 0.2 1.1-0.3 0-0.9 0-1.3 0.9-1.5 0.6-0.1 0.8-0.8 0.8-1.5 0-0.7-0.3-1.6 0.4-2 0.3-0.2 0.6-0.3 0.8-0.6 0.2-0.4 0.3-0.8 0.8-0.9 0.8-0.2 0.8-0.9 0.7-1.6-0.1-0.4-0.3-0.6 0.1-0.8 0.5-0.3 0.6-0.2 0.6-0.8 0-0.7 0.9-0.8 1.5-1 1-0.2 1.3-0.1 2.3 0.2 0.4 0.1 1.7 0.2 1.9 0 0.3-0.2 0.4-1.7 0.4-2.1 0.1-0.5 1-0.5 1.3-0.8 0.6-0.5 0.8-1 1.5-1.4 0.9-0.5 2 0.7 2.9 0.7 1.3 0 2.5 0.3 3.7 0.1 0.3 0 1.5-0.5 1.2-1-0.3-0.5-0.9-0.9-1.2-1.4-0.3-0.5-0.4-1.2-0.6-1.7-0.3-0.8-0.2-0.9 0.1-1.6 0-0.1 1.6-0.3 1.8-0.3 0.8-0.2 1-0.4 1.6-1 0.3-0.3-0.1-1.2 0.1-1.5 0.1-0.3 0.4-0.5 0.5-0.6 0.2-0.2 0.3-0.7 0.4-0.9 0.3-0.7 0.9-0.8 0.5-1.5-0.2-0.6-0.6-1-1-1.5 0.5-0.4 0.7-0.5 1-1.2 0.4-0.7 0.5-0.8 0.1-1.5-0.5-1.1-1.1-1.9-1.1-3.1 0-0.5 0.1-1.2-0.1-1.6-0.3-0.5-0.8-1-0.3-1.5 0.9-0.9 1.7-1.8 2.5-2.7 0.4-0.6 0.8-0.2 1-1 0.1-0.4 0.4-1.4 0.7-1.6 0.4-0.3 1.2 0.1 1.3-0.4 0.3-0.8 0.3-1 1-1.5 0.3-0.1 0.9-0.9 1.2-0.9 0.9 0 1 0 1.7-0.6 0.4-0.2 0.9-0.4 1.4-0.6 0.7-0.3 0.7-0.4 1-1.1-0.7-0.1-1.4-0.5-2.1-0.6-0.3-0.1-1.2-0.1-1.3-0.3-0.3-0.5-0.2-0.9-0.8-0.7-0.6 0.2-0.7 0.4-1.3 0-0.4-0.3-0.7-0.6-1-0.9-0.6-0.6-1.5-1-2.2-1.5 1.3-1.1 2.6-1.5 4.3-1.5-0.2-0.9-0.3-1 0.4-1.7 0.4-0.4 1.6 0.6 1.8 0.8 0.3 0.2 0.8 0 1.1 0 0.2 0 0.5 0.5 0.7 0.6 0.2 0.2 0.6 0.3 0.9 0.4 0.3 0.2 0.5 0.6 0.8 0.9 0.1 0.1-1.1 1-1.1 1.4 0 0.7 0.4 0.2 0.7 0.6 0.1 0.2-0.4 0.8-0.2 1 0.2 0.4 1.9 0.5 2.2 0.6 0.6 0.1 1.3-0.3 2-0.6q0.2 0 0.4-0.1 0.2-0.1 0.4-0.2 0.2-0.1 0.4-0.2 0.2 0 0.3-0.1c1-0.5 1.2-0.6 1.6-1.6 0.5-1.3 0.7-2.8 0.7-4.2 0-0.5-0.2-1-0.1-1.6 0.1-1-0.1-1.2-0.7-2.1-0.4-0.7-0.7-1-0.8-1.8-0.1-0.4-1.6-0.5-2.1-0.6-0.7-0.1-1.5 0.8-2.2 1.2-0.9 0.4-1.7 0.7-2.8 0.9 0.6 0.2 2 0.4 2.2 0.9 0.4 1.1 0.3 1.4-0.1 2.5-0.7-0.3-1.2-0.7-2-0.5-0.6 0.2-1.4 0.4-2 0.3-1.1-0.4-1-0.4-1.2-1.6-0.2-0.7 1.2-1.2 1.6-1.3-0.6-0.3-1.2-0.5-1.9-0.6-0.5-0.1-1.5 0.3-1.9 0.1-1.4-0.6-2.7-1.4-3.4-2.8-0.4-0.7-1.9-0.3-2.7-0.3q-8.9 0.3-17.8 0.6-24.4 0.8-48.9 1.6-4.7 0.1-9.4 0.2 0.2 0.3 0.4 0.7zm1-16.4c1.4 0.3 2.3 1.3 3.8 1 1.5-0.2 2.5-1.5 2.9-2.9 0.1-0.3 0.4-0.4 0.7-0.6 0.1-0.1-0.2-0.7-0.3-0.9-0.1-0.4 0.1-1.4 0.4-1.7 1.1-1.1 2-2.1 3.3-2.9 0.4-0.3 1.3-1.1 1.8-1.1 0.7 0 1.4 0.2 2-0.2 0.6-0.4 1.5-0.8 2-1.3 0.5-0.5 0.8-1.5 1.2-2.2 0.2-0.4 1-0.4 1.3-0.9 0.7-1 0.6-1 0.2-2.1-0.7-1.7 0.2-2.4 1.5-3.4 0.6-0.6 2.2-0.8 2.9-1.1 0.3-0.1 0.2-0.8 0.5-1q0.9-0.6 1.9-1.2c0.9-0.5 1.8-1 2.6-1.7 0.4-0.3 0.8-0.7 1.3-1.1 0.5-0.4 0.4-0.8 0.5-1.4 0.1-1 0.2-2 0.7-2.9 0.7-1.2 1.3-1.8 2.2-2.7 1.7-1.6 3.7-1.8 5.9-1.8-0.6-1.5-1-2.7-2.4-3.5-0.5-0.3-0.2-2-0.2-2.5q-0.1-6.1-0.2-12.1 0-1.5 0-3c0-0.1-1.3-0.6-1.5-0.7-0.7-0.4-1.3-0.9-2.1-1.1-1.2-0.3-2.7-0.4-4-0.4-1.1 0-1.1-0.1-1.7-1.1-0.1-0.2-1.4-0.6-1.8-0.6-0.6-0.1-1.4-0.2-2.1-0.1-0.6 0.1-1.4 0.3-2.1 0.3-0.6-0.1-1.4 0-1.9-0.5-0.7-0.6-1.2-0.9-1.5-1.7q0.9 0 1.7 0.1c0-1.3 0.1-1.7-0.7-2.6-0.5-0.7-1.7-0.5-2.3-1.3-0.7-0.8-1.9-1-2.9-1.4-0.6-0.2-0.7-1.8-0.8-2.4-0.6 0.3-1.1 0.7-1.7 0.6-1.1-0.2-1.1-0.1-1.5-1.1-0.6-1.5-0.7-2.8-0.7-4.3 0-0.9-0.3-1.1-0.9-1.7-0.1-0.2-0.2-0.5-0.5-0.4q-0.7 0.3-1.4 0.6c-0.7 0.3-1.1 0.9-1.7 1.3-0.5 0.5-0.2 1.1-0.1 1.8-0.7 0.1-1.4 0-1.6 0.6-0.1 0.2-0.2 1-0.3 1.1-0.2 0.1-1.1-0.1-1.3-0.2-1.1-0.1-0.3 3.4-0.2 3.8-0.2 0-0.8-0.3-0.9-0.1q-0.2 0.6-0.5 1.3l-1 2.9c0.5 0 1.5-0.1 1.6 0.4 0.2 0.8 0.5 1.7 0.6 2.5 0 0.8-0.3 1.6-0.4 2.3-0.1 0.6 0.7 1.4 1 1.9 0.4 0.6-0.8 0.9-0.6 1.4q0.5 1.2 1 2.4c0.1 0.4-0.4 1.3-0.6 1.7-0.1 0.5 0.6 1.2 0.6 1.7 0 0.5-0.2 1.7 0 2.2 0.1 0.2 0.8 0.5 1 0.6 0.2 0.1-0.1 0.9-0.2 1.1 0 0.2-0.2 0.7-0.1 0.9 0.1 0.2 0.6 0.7 0.6 0.8-0.3 0.9-0.5 1.3-0.1 2.1 0.4 0.6 0.7 1.2 1.2 1.8 0.5 0.7 0.5 1.3 0.6 2.2 0 0.3-0.7 1.3-1 1.3-0.9 0-1.6 0.1-2.4 0.2-0.8 0.1-0.5 1-1 1.1-1 0.2-1.3 0-1.5 0.9-0.2 1-0.3 1.2 0.2 2.1 0.3 0.7 0.1 1.4 0 2.2-0.1 0.6 0.4 1.2 0.4 1.8 0 0.5-0.8 1.2-0.5 1.6 0.5 0.9 0.7 1 0.5 2-0.1 0.6-1.4-0.1-1.7 0.2-0.3 0.4 0.3 1.4-0.1 1.8-0.6 0.5-1.2 0.7-1.1 1.4 0 0.7-0.1 1.6 0.1 2.3 0.2 0.6 0.7 1 0.7 1.6-0.1 0.7 0.1 1.8-0.6 1.9-1.1 0.1-1.1 0.1-1.5 1.1-0.6 1.4 0.6 2.4 1.7 3.1l-1.1 1.2c-0.1 0.2-1 0-1.3 0 0.3 0.6 0.5 0.9 0.3 1.5-0.4 0.7-0.3 1-0.5 1.8-0.1 0.3-0.6 1.4-0.4 1.7 0.6 0.7 0.6 0.9 0.6 1.8 0 0.5 0.6 0.5 0.8 1.1 0.1 0.8 0.4 0.7 1.2 0.9 1.3 0.4 2.2 0.2 3.5-0.1zm115.4-129.6l-0.2-4.6c0-0.7 0.1-0.8-0.4-1.2-0.3-0.2-1.5-0.7-1.5-1l-0.5-5.2q-0.1-1-0.1-2.1c-0.1-0.5-0.6-1.1-0.9-1.5 1.2-0.5 1.1-0.7 1.5-1.9l1.6-5.1q0.9-2.6 1.7-5.2c0.2-0.8 0.7-1.4 0.2-2.1q-1.3-2.3-2.7-4.6-0.5-0.8-1-1.6c-0.1-0.3-1.1-0.1-1.4-0.1q-1.3 0-2.6 0c-0.6 0-1.1-0.4-1.7-0.7-0.6-0.3-0.3-1.3-0.3-2 0-0.6-0.6-0.9-1-1.4q1.1-0.5 2.2-1-0.9-0.6-1.8-1.3c-0.4-0.2-1.4-0.5-1.5-1q-0.2-0.7-0.3-1.4c-0.1-0.4-0.2-0.3-0.6-0.3h-4.7c-0.6 0-1.2-0.4-1.7-0.7-1.4-0.6-2.6-1-4.1-1.3q-1.3-0.3-2.6-0.5c-0.6-0.2-1.1-0.7-1.6-1.1-1-0.7-1.8-0.4-3.1-0.4q-3.1 0.1-6.3 0.2c-1 0.1-2.2 0-3.3 0.2q-0.9 0.2-1.8 0.4l1 5.1c-1.1 0-0.8 0.2-0.9 1.3-0.1 0.8-0.5 0.6-1.3 0.7q-1.5 0.1-2.9 0.2c-1 0.1-0.8 0.2-0.8 1.2 0 0.9-0.3 1.6-0.6 2.5q-1 2.7-2 5.3-0.4 1.2-0.8 2.4-0.5 1.2-0.9 2.4-0.5 1.2-0.9 2.4-0.4 1.2-0.9 2.4c-0.1 0.4 0.4 0.7 0.6 1 0.5 0.5 0.4 0.6 0.4 1.2v5.9c0 0.3-0.1 1.2 0 1.4 0.1 0.1 0.9 0.1 1.1 0.2 0.3 0 0.5 0.4 0.8 0.6 0.3 0.3 1.2-0.4 1.6-0.1 0.6 0.5 1.2 1.3 1.8 1.6 0.6 0.3 1.3 0.3 1.9 0.7 0.9 0.5 0.7 1.1 0.8 2.2 0.1 1 3.2 0.3 3.3 1.1q0 1.3 0.1 2.6c0 0.5 0.2 1.4 0.1 1.9-0.4 1.4-1.3 2.9-1.5 4.2-0.2 1.2 0.5 3.2-0.2 4.1-0.8 0.9-0.9 1-0.9 2l0.7 22.6 0.1 3.7c0.1 0.5-0.1 0.7 0.4 0.7q4.7 0.1 9.3 0.1 6.5 0 13 0l-0.2-10h4.8c0.8 0 1.8 0.3 2.3-0.4q2.5-4.1 5.1-8.1 3.2-5.1 6.4-10.1 0.7-1.1 1.4-2.2c0.1-0.1-0.4-1-0.5-1.2q-0.5-1.4-1.1-2.8 0 0 0-0.1 0 0 0 0-0.1-0.1-0.1-0.1 0 0 0-0.1zm-34.8-97.7c0-0.3 0.3-3.2 0.2-3.2-0.8-0.1-1.2 0-1.2-0.8 0-0.7-1.1-0.2-1.4 0.2-0.1 0.2-0.6 1.2-0.8 1.2-0.5 0-1 0-1.4-0.1-1.3-0.3-2.9-0.5-4-1.1-1-0.5-1.2-2-2.4-2-0.8 0-0.8 0.3-1.2 1-0.2 0.3-1.5 0.1-1.7 0.1h-2.1c-0.3 0-0.8 0.6-1 0.8-0.4 0.3-0.8 1.1-1.2 0.7q-0.2-0.1-0.5-0.3-0.2-0.2-0.4-0.3-0.2-0.2-0.4-0.4-0.2-0.1-0.4-0.3c-0.7 1-1.7 1.8-1.7 3q0.1 1.5 0.2 2.9c0 0.7 0 0.7 0.6 1l2.4 1.3c0.5 0.3 0.7 1.1 1 1.6 0.4 0.6 0.1 1.2 0.1 1.9-0.1 0.6-0.9 0.8-1.1 1.3q-0.5 1-1.1 2c-0.4 0.9-0.3 0.9-1.3 1.1-0.4 0.1-0.2 1.5-0.2 1.9 0 1 0 0.9 0.9 1.3 0.6 0.4 1.2 0.5 1.5 1.2 0.2 0.6 0.6 1.2 0.7 1.8 0.3 1.6 0.8 2.6 1.6 4 0.6-0.8 0.6-0.8 1.7-0.6 0.5 0-0.3 1.2 0.1 1.6 0.8 0.7 0.8 1 1.8 0.8 0.9-0.1 1.1-0.6 1.7-1.2 0.5-0.7 0.6-1 1.5-0.9 0.4 0.1 1.5 0.6 1.9 0.5 1.4-0.6 2.2-1.9 2.8-3.2 0.3-0.6 0.2-1.3 0.3-2 0-0.8 0.2-1.3-0.3-2-0.5-0.7-1-1-0.7-1.8 0.4-0.8 0.7-1.2 1.4-1.9 0.5-0.5 0.8-1 1.1-1.7 0.4-0.7 0.2-1.4 0.9-1.8 1.1-0.7 0.2-0.7 0.4-1.7 0.2-0.5 1.3-1.4 1.7-1.8 0.7-0.8 0.1-3.1 0-4.1z"/>
		<path class="s1" d="m127 147.4c1 1.7 2.2 3.4 3.3 5.1 0.3 0.5 0.9 1 0.7 1.7q-0.3 1-0.6 1.9l-2.5 7.8q-0.1 0.4-0.2 0.8-0.2 0.3-0.3 0.7-0.1 0.4-0.2 0.8-0.1 0.4-0.3 0.7c-0.2 0.8-0.4 0.7-1.2 1.1 0.2 0.4 0.8 1 0.9 1.5q0 1 0.1 2.1 0.3 2.6 0.5 5.2c0 0.3 1.4 1 1.6 1.2 0.5 0.3 0.3 0.9 0.3 1.4 0.1 1.3-0.2 3.2 0.3 4.4q0.5 1.2 0.9 2.4c0.1 0.2 0.8 1.5 0.7 1.7q-0.7 1-1.3 2-3.2 5-6.3 10-2.8 4.4-5.6 8.8 5-0.1 9.9-0.1c0.5 0 2.7 0.3 3.1-0.1q1.2-1.1 2.4-2.2 4.4-4 8.8-8.1c0.5-0.5 1.2-1.5 1.9-1.3q1.3 0.3 2.7 0.6c0.7 0.2 0.6 0.1 0.9-0.5q1.3-2.5 2.7-4.9c0.4-0.7-0.3-1.3-0.6-1.9-0.3-0.5-1.1-1-1.5-1.4-0.5-0.6-1.1-1-1.4-1.7-0.8-2-1.8-4.1-0.9-6.2 0.5-1.2-0.4-2 0-3.1 0.8-1 0.7-1.7 0.2-2.8-0.5-0.8 0-2.1 0-3 0-0.9 0.3-1.9 0.5-2.8 0.2-0.6 0.5-0.3 1-0.6 0.6-0.2 0.9-0.9 1.5-1.2 0.5-0.4 0.8-1 1.3-1.3 0.8-0.4 1.7-0.5 1.9-1.6 0.3-1.4 1.8-1.2 2.5-2.3 0.6-1 1.2-2.1 1.7-3.2 0.8-1.8 2.7-3.4 3.1-5.4 0.3-0.7-0.5-1.1-0.5-1.8 0-0.6 0.4-1.2 0.3-1.9 0-0.6-0.3-1.2-0.3-1.9 0-0.9 0.9-1.3 1.6-1.6-0.4-0.7-0.4-1.1-0.3-1.8 0.2-0.8 0-1.6 0.3-2.4 0.2-0.9 0.7-1.7 0.2-2.5-0.2-0.4-0.6-0.8-0.7-1.2-0.1-0.5 0.6-1.2 0.8-1.5 0.4-0.9 0.1-1.5-0.1-2.3-0.1-1.1 0.5-1 1.1-1.6 0.5-0.4 0.7-1.1 1.3-1.5 0.3-0.2 0.6-0.3 0.8-0.5 0.4-0.5 0.5-1.1 0.9-1.6 0.6-0.7 1.9-0.8 1.6-2-0.3-1.4 1.2-1.7 1.3-2.9 0.2-0.9 0-1.8 0.4-2.7 0.2-0.9-0.5-1.6-0.1-2.5 0.3-0.7 0.5-1.2 0.2-2-0.3-0.6-1.3-1.5-0.5-2.2 0.7-0.6 1.8-0.4 2.4-1.2 0.5-0.6 0.8-1.7 1-2.5q-19.1-0.4-38.1-0.8c-0.2 0-0.8-0.1-0.9 0.1q-0.1 1-0.3 2.1-0.7 5-1.4 10.1-1.7 11.3-3.3 22.6 0 0.2 0 0.4-0.1 0.3-0.1 0.5 0 0.2-0.1 0.4 0 0.3 0 0.5z"/>
		<path class="s1" d="m212.2 114.3q-0.1-0.9-0.1-1.8c-0.1-0.6-0.5-1-0.8-1.4-0.3-0.5-0.5-1.1-0.7-1.6-0.3-0.6-0.6-0.7-1.3-0.9 0.1 0 0-3.1 0-3.3q0-0.5-0.1-1c0-0.3 0.3-0.1 0.5-0.3 0.1-0.1 0.2-0.5 0.5-0.5 0.3 0.1 0.5 0.2 0.8 0-1.3-0.2-2.8-0.8-4-0.2-1.5 0.7-2.9 1.2-4.5 1.7-1.2 0.3-2.7-0.3-3.9-0.5-0.7-0.2-1.1-0.3-1.8-0.2-0.8 0.2-1.6 0.4-2.4 0.4-0.5 0-1.3 0.1-1.7-0.2-0.3-0.2-0.3-0.5-0.4-0.8-0.2-0.3-0.5-0.4-0.9-0.6-0.8-0.4-1-0.5-1.9-0.1-0.6 0.2-1.3 0.1-2-0.1-0.5-0.1-0.7-0.7-1.3-0.9q-0.2 0-0.4 0-0.2 0-0.4-0.1-0.2 0-0.3-0.1-0.2 0-0.4 0c-1-0.3-2-0.3-3-0.7-1.3-0.7-2.2 0-3.4 0.4-1.1 0.3-2.4-0.5-3.4 0.1-0.2 0.1-0.9 0.3-0.9 0.5 0 0.4 0.1 0.4-0.3 0.5-0.9 0.1-2.2 0.2-2.8 0.9-0.3 0.4-0.1 0.5 0.1 0.9 0.3 0.6 0 1.1 0.1 1.7 0.1 0.4 0 0.7-0.1 1-0.1 0.4 0.3 1.1 0.3 1.5 0.2 1.9 0 5.4-2.2 6.1-0.5 0.2-1.6 0.3-1.6 1.1 0 0.5 0.4 0.9 0.7 1.3 0.2 0.4 0.4 0.9 0.3 1.4-0.2 0.8-1 1.4-0.4 2.2 0.4 0.5 0.1 1-0.1 1.6-0.2 0.7-0.2 1.5-0.2 2.2-0.1 0.8-0.7 1-1.1 1.6-0.4 0.7 0.2 1.7-0.3 2.3-0.5 0.6-1.3 0.7-1.7 1.4-0.3 0.7-0.6 1.4-1.3 1.7-0.8 0.6-1.2 1.6-2.1 2-1.3 0.6 0.1 2.1-0.2 3.1-0.2 0.6-0.7 1-0.9 1.6-0.2 0.8 0.8 1.3 0.9 2.1 0.2 1.1-0.8 2.2-0.7 3.4 0 0.6-0.3 1.2-0.2 1.8 0.2 0.8 0.5 0.7 0.2 1.5-0.2 0.7 0.8 0.8 1.4 1.1 0.7 0.4 1.1 0.6 1.8 0.6 0.8 0.1 2.1 0.5 2.7-0.2 0.4-0.5 1.2-1.9 1.8-2 0.8 0 2.4 0.2 3-0.2q0.7-0.4 1.4-0.8c0.3-0.2 1.3 0.2 1.6 0.3 0.9 0.2 1.6 0.6 2 1.4 0.5 0.7 1.8 0.3 2.6 0.2 0.3 0 1.3 1.4 1.6 1.7q1 1.3 2 2.5c0.7-1.3 1.3-2.6 2-3.9 0.5-0.9 1.4-1.3 2.1-2.1 0.5-0.4 0.7-1.1 1-1.7 0.3-0.4 0.7-0.6 1.2-0.9 1.3-0.5 0.9-2 1.8-2.8 0.6-0.5 2.8-0.5 2.5-1.7 0.1-0.4-0.2-0.8 0.4-1q0.6-0.2 1.2-0.4c0.4-0.2 0.9-0.4 1.2-0.7 0.2-0.3 0.6-0.5 0.9-0.6 0.5-0.2 0.5-0.7 0.8-1 0.2-0.3 0.5-0.1 0.8-0.2 0.4-0.1 0.4-0.4 0.6-0.7 0.2-0.3 0.5-0.4 0.7-0.7 0.3-0.3 0.3-0.7 0.4-1 0.3-0.6 0.8-0.8 1-1.4 0.3-0.8 1.2-0.9 1.6-1.6 0.4-0.5 0.6-0.7 1.2-0.9 0.5-0.2 1.1-0.4 1.4-0.9 0.3-0.8 0.4-1.1 0.9-1.7 0.4-0.5 0.7-1 1-1.5 0.4-0.5 0.7-0.9 1.2-1.2 0.6-0.4 0-1.3 0.6-1.5 0.5-0.1 1.5-0.4 1.4-1-0.1-0.5-0.1-1.8 0.6-1.2 0.5 0.4 1.1 0.8 1.7 0.5 0.6-0.4 0.1-1.3-0.1-1.7-0.2-0.4-0.6-1.1 0.1-1.3 0.6-0.1 1.2-0.3 0.9-1-0.3-0.8-0.5-1-1.2-1.5zm-185.6 66.2c0.4-1.4 1.1-2.3 1.7-3.6q0.6-1.1 1.3-2.3c0.1-0.3 1.8 0 2.1 0.1 1 0 1 0.2 1.5-0.7 0.6-0.9 0.8-0.7 1.9-0.7 0.2 0 0.1 0.7 0.2 0.8 0.2 0.1 0.9 0.1 1.1 0.1 0.1 0 0.8 0 0.9 0.2l0.1 1.5c0.1 0.8 0.6 0.8 1.3 1.2 0.9 0.4 1.1 0.3 2.1 0.1 0.9-0.3 1.1-0.2 1.4-1.1 0.5-1 0.7-0.7 1.8-0.7 0.2 0 0.5-0.6 0.6-0.8 0.3-0.3 0.3-0.3 0.8-0.3 0.7 0 1.4 0.5 2 0.4 0.9-0.1 1.3-0.2 2.2 0 1 0.3 1 0.6 1.6 1.5 0.5 0.8 1.1 0 1.5 0.4 0.2 0.2 0.2 0.8 0.2 1 0.1 0.2 1 0.2 1.1 0.2 0.5 0.1 1.5-0.2 1.7-0.1 0.6 0.3 1.5 1 2.1 1.1 1.8 0 0.8-2.7 0.7-3.7-0.1-0.8-1.1-0.3-1.5-0.8-0.3-0.3 0-1.6 0-2v-1.4c0-0.4 0.5-0.2 0.8-0.2 0.6 0 1.2-0.3 1.9-0.5 1.2-0.2 3.1-0.8 4.1 0 0.7 0.6 0.8 0.7 1.7 0.7h1.4c0.4 0 0.3-0.2 0.3-0.6 0-1.2 0-1.1-1.1-1.4-0.6-0.2-0.8-0.9-0.9-1.4 0-0.3 0-2-0.2-2.1q-1.1-0.5-2.2-0.9c-1.5-0.5-1-2.5-0.8-3.7 0.2-1.3 0.2-2.7-0.1-4-0.2-0.6-0.3-1.2-0.7-1.7-0.5-0.6-1.4-1.3-1.7-2-0.2-0.6-0.1-1.6-0.2-2.2 0-0.5-1-0.9-1.3-1.2-0.4-0.4-1.1-1.3-1.6-1.3q-0.7 0.1-1.4 0.2c-0.3 0.1-0.2-0.5-0.3-0.8-0.1-0.7-0.8-1.1-1.4-1.6-0.6-0.5-0.4-1.2-0.4-2 0-0.2-0.8-1.4-1-1.5-0.2-0.1-0.8 0.2-1 0.2-0.3 0.1-0.9-0.2-1.2-0.3-0.6-0.2-0.5-0.6-0.7-1.2-0.1-0.6-0.5-0.5-1-0.9-0.2-0.2-1.2-0.7-1.2-1 0-0.2-0.1-1.7-0.3-1.7-0.4 0-1.3 0.2-1.6 0-0.4-0.2-0.5-1-1-1-1.2 0-2.4-0.1-3.7 0.1-0.5 0-0.9 0.1-1.3-0.1-0.4-0.1-1.2-0.7-1.7-0.7-0.6 0.1-3.3 0.6-2.5-0.9 0.2-0.5 0.4-1.1 0.7-1.5 0.3-0.3 1-0.7 1-1.2 0.1-0.6 0.3-0.9 0-1.5q-0.4-0.8-0.8-1.7 0.9-0.2 1.9-0.4c-0.4-0.2-1.5-0.6-1.7-1.1-0.3-0.5 0-1.8 0-2.4 0-0.7 0.2-1.1-0.5-1.2-0.5-0.1-1.8 0.1-1.9-0.5-0.1-0.2-0.4-2-0.7-2-1.3 0-0.5-0.5-1-1.5-0.2-0.6-1-1.2-1.4-1.7-0.2-0.2-1.7 0.1-2 0.1l-2.4 0.1c-0.2 0-0.1 1.8-0.1 2.1 0 0.6-0.9 0.8-1 1.3-0.2 0.6 0.5 1.4 0.4 2-0.3 1.3-0.4 3.1-1.2 4.1q-0.8 1.1-1.7 2.2c-0.4 0.6-0.2 0.9-0.1 1.6q0.3 1 0.5 2.1c0.2 0.7 0.3 0.5 1 0.5q-0.4 1.1-0.7 2.2c-0.3 0.7 0.3 1.2 0.6 1.9 0.7 1.3 0.4 3.2 0.5 4.7 0 1-0.1 1 0.9 1.3 0.7 0.2 0.2 1.4 0.2 2.1-0.1 0.5-1.2 1.2-1.6 1.5-0.6 0.5-1.2 0.1-1.8-0.1q-0.4 2.2-0.8 4.4c-0.1 0.6-1 0.7-1.5 1-0.5 0.2-0.2 1-0.2 1.5 0 0.6-0.1 1.7 0.1 2.2 0.1 0.2 1.4 1.2 1.3 1.3q-0.8 0.9-1.6 1.8c-0.2 0.2-1.1-0.8-1.4-1q-0.6 1.7-1.3 3.3c-0.3 0.8 0.2 2 0.3 2.8 0.1 0.4 0.3 3.2 0.7 3.3 0.2 0.1 1.2 0.3 1.2 0.5q0.1 1 0.1 2.1c0.1 1.1 0.2 1.8 0.5 2.9 0.2 0.8 0.4 2.6 1.1 3.2 0.2 0.1 1.3 0.7 1.2 0.9q-0.2 1-0.5 2c-0.2 0.6 1.4 1.7 1.8 2.2 0.2-0.3 0.8-1.9 1.1-2q1.4 0 2.7-0.1z"/>
		<path class="s1" d="m87.7 190.6c0.3-0.3 1.1-0.9 1.1-1.3v-2.8c0-1.4 0.7-2.5 1.1-3.8 0.4-1.6 0.3-2.9 0.2-4.6 0-0.2 0.1-1.4-0.1-1.5q-1.4-0.2-2.8-0.5c-0.6-0.2-0.4-1-0.5-1.7 0-0.7-0.6-1-1.3-1.2-0.7-0.2-1.2-0.3-1.8-0.8-0.5-0.5-1-1.3-1.8-1.2-0.2 0-0.8 0.2-1.1 0.1-0.2 0-0.4-0.6-0.6-0.6-0.6-0.1-1.4 1.4-1.9 1.3-0.6-0.1-0.5-1.3-1.3-1.3-0.1 0-0.8-0.1-0.9 0.1-0.1 0.1-0.5 1-0.6 1q-1.3-0.1-2.6-0.2c-0.1 0-0.5-0.1-0.6 0-0.1 0.6 0 0.8-0.5 0.9-1.1 0.1-1.2 0.1-1.9-0.7-0.6-0.5-1.5-0.6-2.2-0.8-0.6-0.1-1.2-0.1-1.8-0.1-1.1 0-1.2 0-2-0.7-1-0.8-2.9-0.2-4.1 0.1-0.6 0.1-1.2 0.4-1.7 0.4-0.2 0-1 0-1 0.1v3.5c0 0.3 1.4 0.1 1.5 0.8q0.1 1.1 0.3 2.2c0 0.1 0.2 0.9 0.1 1-0.2 0.3-0.9 0.2-1.1 0.5-0.2 0.3 0.4 1.8 0.5 2.2 0.1 0.6 0.3 1 0.6 1.6q0.6 1 1.2 2c0.2 0.4-0.9 1.1-0.4 1.5 0.4 0.3 1 0.7 1.2 1.2 0.2 0.8 0.3 1.5 0.5 2.3 0.4 1.4 0.7 2.5 0.8 4 0.2 1.4 1.4 2 2.4 2.6-0.3 0.3-1.1 0.8-1 1.3 0.2 0.7 0.2 1.9 0.6 2.5 0.3 0.5 1.4 0.9 1.9 1.2 0.2 0.2 0.7 1.4 0.6 1.7-0.2 0.6-0.8 1.5-0.8 2.2-0.1 0.6 0.3 1.5 0.4 2.1 0.4 1.5 1 2.8 1.6 4.2 0.4 0.8 0.4 0.6 1.3 0.3 0.2-0.1 1.3 1.4 1.4 1.6 0.2 0.6 0.2 1.3 0.1 1.9-0.1 0.9-0.2 1.3 0.2 2.1 0.6 1.4 1.3 2.8 1.3 4.3 0.1 0.8-0.2 1.6-0.3 2.4-0.1 0.9-0.6 0.7-1.5 0.8-0.4 0-1 3.9-1.2 4.6-0.3 1.8-0.9 3.1-1.6 4.7q10.7-0.1 21.4-0.2-0.6-19.8-1.2-39.5 0-1.9-0.1-3.8z"/>
		<path class="s2" d="m171.1 210.2l-2 0.5-2.5 3.4-0.5 2.4 2.5 3.9 1.3-1.1v-0.1h0.1l1-0.9 0.7-0.1 0.3 0.3 0.2-0.1 0.2 0.3h0.2c0 0 0.3 0.1 0.6-0.2 0 0 0.5 0.3 0.7 0 0-0.1 0.1-0.1 0.1-0.1 0 0 0.3-0.1 0.4-0.1l0.2-0.1 0.1-0.2-0.2-0.1 0.1-0.1h0.1l0.3-0.1v-0.4l-0.2-0.3 0.1-0.2 0.4 0.5-0.1 0.2h0.2v-0.2l0.1-0.1 0.1 0.2h0.1l-0.1-0.1 0.1-0.1 0.2 0.2h0.1l-0.2-0.3h-0.2v-0.3l-0.3-0.1-0.1-0.1h0.2l0.4-0.5-0.1-0.8-0.2-0.1-0.3 0.1h-0.2l-0.1-0.3h0.2l-0.1-0.2 0.1-0.1 0.1-0.2-0.4-0.4-0.3 0.2-0.8-1v-0.2l-0.3-0.7-0.3-0.3h-0.2l-0.3-0.3v-0.2h-0.2l-0.6-0.8-0.4-0.1z"/>
		<path class="s1" d="m223.9 173.4l-7.1 1.9-8.9 12.3-1.9 8.7 9.1 14 4.5-3.9 0.1-0.4 0.5-0.1 3.6-3.2 2.6-0.2 1 0.7h0.8l0.7 0.8 0.7 0.2c0 0 1.1 0.2 1.9-0.6 0 0 1.9 0.7 2.6-0.1 0.2-0.4 0.5-0.5 0.5-0.5 0 0 1.2-0.4 1.5-0.3l0.8-0.5v-0.5l-0.6-0.6 0.4-0.2 0.6 0.1 1-0.6v-1.2l-0.9-1.2 0.3-0.6 1.4 1.8v0.6l0.4 0.1 0.1-0.7 0.4-0.4 0.3 0.7 0.4-0.1-0.3-0.5 0.4-0.1 0.6 0.7 0.5-0.2-0.8-0.9-0.9-0.2v-1l-1.1-0.1-0.1-0.4h0.6l1.6-2.1-0.4-2.7-0.9-0.3-0.9 0.3-1-0.2-0.2-1 0.6-0.1-0.2-0.6 0.5-0.2 0.1-0.6-1.4-1.6-1 0.5-3.1-3.6 0.4-0.4-1.2-2.6-1.2-1.3h-0.6l-1.1-1-0.1-0.6h-0.5l-2.5-2.9-1.4-0.6z"/>
	</g>
</svg>